<mxfile host="Electron" agent="Mozilla/5.0 (Windows NT 10.0; Win64; x64) AppleWebKit/537.36 (KHTML, like Gecko) draw.io/28.0.4 Chrome/138.0.7204.97 Electron/37.2.1 Safari/537.36" version="28.0.4" pages="9">
  <diagram name="jvm" id="YbM60WQhbGsQyv_1Hfia">
    <mxGraphModel dx="2226" dy="961" grid="0" gridSize="10" guides="1" tooltips="1" connect="1" arrows="1" fold="1" page="0" pageScale="1" pageWidth="850" pageHeight="1100" math="0" shadow="0">
      <root>
        <mxCell id="0" />
        <mxCell id="1" parent="0" />
        <mxCell id="et69hAGGcOlHRVVRuGMC-27" value="JVM" style="rounded=1;whiteSpace=wrap;html=1;shadow=0;verticalAlign=top;labelPosition=left;verticalLabelPosition=middle;align=right;spacingLeft=0;spacingTop=0;spacing=2;spacingRight=-86;fontSize=30;fontStyle=1;fontFamily=Lucida Console;fontColor=#AE4132;" parent="1" vertex="1">
          <mxGeometry x="-448" y="177" width="720" height="388" as="geometry" />
        </mxCell>
        <mxCell id="et69hAGGcOlHRVVRuGMC-11" value="" style="group" parent="1" vertex="1" connectable="0">
          <mxGeometry x="-296" y="195" width="410" height="93" as="geometry" />
        </mxCell>
        <mxCell id="et69hAGGcOlHRVVRuGMC-1" value="Class Loader" style="rounded=0;whiteSpace=wrap;html=1;verticalAlign=top;fillColor=#d5e8d4;strokeColor=#82b366;fontStyle=1;fontSize=16;fontFamily=Verdana;" parent="et69hAGGcOlHRVVRuGMC-11" vertex="1">
          <mxGeometry width="410" height="93" as="geometry" />
        </mxCell>
        <mxCell id="et69hAGGcOlHRVVRuGMC-2" value="Loading" style="rounded=0;whiteSpace=wrap;html=1;fillColor=#60a917;fontColor=#ffffff;strokeColor=#2D7600;" parent="et69hAGGcOlHRVVRuGMC-11" vertex="1">
          <mxGeometry x="6" y="53" width="120" height="30" as="geometry" />
        </mxCell>
        <mxCell id="et69hAGGcOlHRVVRuGMC-3" value="Linking" style="rounded=0;whiteSpace=wrap;html=1;fillColor=#60a917;fontColor=#ffffff;strokeColor=#2D7600;" parent="et69hAGGcOlHRVVRuGMC-11" vertex="1">
          <mxGeometry x="144" y="53" width="120" height="30" as="geometry" />
        </mxCell>
        <mxCell id="et69hAGGcOlHRVVRuGMC-4" value="Initialization" style="rounded=0;whiteSpace=wrap;html=1;fillColor=#60a917;fontColor=#ffffff;strokeColor=#2D7600;" parent="et69hAGGcOlHRVVRuGMC-11" vertex="1">
          <mxGeometry x="282" y="53" width="120" height="30" as="geometry" />
        </mxCell>
        <mxCell id="et69hAGGcOlHRVVRuGMC-12" value="" style="group" parent="1" vertex="1" connectable="0">
          <mxGeometry x="-434" y="339" width="686" height="93" as="geometry" />
        </mxCell>
        <mxCell id="et69hAGGcOlHRVVRuGMC-5" value="Runtime Data Area" style="rounded=0;whiteSpace=wrap;html=1;verticalAlign=top;fillColor=#e1d5e7;strokeColor=#9673a6;fontStyle=1;fontSize=16;fontFamily=Verdana;" parent="et69hAGGcOlHRVVRuGMC-12" vertex="1">
          <mxGeometry width="686" height="93" as="geometry" />
        </mxCell>
        <mxCell id="et69hAGGcOlHRVVRuGMC-6" value="Method Area" style="rounded=0;whiteSpace=wrap;html=1;fillColor=#76608a;fontColor=#ffffff;strokeColor=#432D57;" parent="et69hAGGcOlHRVVRuGMC-12" vertex="1">
          <mxGeometry x="7" y="50" width="120" height="30" as="geometry" />
        </mxCell>
        <mxCell id="et69hAGGcOlHRVVRuGMC-7" value="Heap Area" style="rounded=0;whiteSpace=wrap;html=1;fillColor=#76608a;fontColor=#ffffff;strokeColor=#432D57;" parent="et69hAGGcOlHRVVRuGMC-12" vertex="1">
          <mxGeometry x="145" y="50" width="120" height="30" as="geometry" />
        </mxCell>
        <mxCell id="et69hAGGcOlHRVVRuGMC-8" value="Stack Area" style="rounded=0;whiteSpace=wrap;html=1;fillColor=#76608a;fontColor=#ffffff;strokeColor=#432D57;" parent="et69hAGGcOlHRVVRuGMC-12" vertex="1">
          <mxGeometry x="283" y="50" width="120" height="30" as="geometry" />
        </mxCell>
        <mxCell id="et69hAGGcOlHRVVRuGMC-9" value="PC Register" style="rounded=0;whiteSpace=wrap;html=1;fillColor=#76608a;fontColor=#ffffff;strokeColor=#432D57;" parent="et69hAGGcOlHRVVRuGMC-12" vertex="1">
          <mxGeometry x="421" y="50" width="120" height="30" as="geometry" />
        </mxCell>
        <mxCell id="et69hAGGcOlHRVVRuGMC-10" value="Native Method Stack" style="rounded=0;whiteSpace=wrap;html=1;fillColor=#76608a;fontColor=#ffffff;strokeColor=#432D57;" parent="et69hAGGcOlHRVVRuGMC-12" vertex="1">
          <mxGeometry x="559" y="50" width="120" height="30" as="geometry" />
        </mxCell>
        <mxCell id="et69hAGGcOlHRVVRuGMC-13" value="" style="edgeStyle=orthogonalEdgeStyle;rounded=0;orthogonalLoop=1;jettySize=auto;html=1;entryX=0.5;entryY=0;entryDx=0;entryDy=0;startArrow=classic;startFill=1;strokeWidth=2;" parent="1" source="et69hAGGcOlHRVVRuGMC-1" target="et69hAGGcOlHRVVRuGMC-5" edge="1">
          <mxGeometry relative="1" as="geometry" />
        </mxCell>
        <mxCell id="et69hAGGcOlHRVVRuGMC-21" value="" style="edgeStyle=orthogonalEdgeStyle;rounded=0;orthogonalLoop=1;jettySize=auto;html=1;startArrow=classic;startFill=1;strokeWidth=2;" parent="1" source="et69hAGGcOlHRVVRuGMC-15" target="et69hAGGcOlHRVVRuGMC-19" edge="1">
          <mxGeometry relative="1" as="geometry" />
        </mxCell>
        <mxCell id="et69hAGGcOlHRVVRuGMC-24" value="" style="edgeStyle=orthogonalEdgeStyle;rounded=0;orthogonalLoop=1;jettySize=auto;html=1;entryX=0.286;entryY=0.989;entryDx=0;entryDy=0;entryPerimeter=0;startArrow=classic;startFill=1;strokeWidth=2;" parent="1" source="et69hAGGcOlHRVVRuGMC-15" target="et69hAGGcOlHRVVRuGMC-5" edge="1">
          <mxGeometry relative="1" as="geometry" />
        </mxCell>
        <mxCell id="et69hAGGcOlHRVVRuGMC-22" value="" style="edgeStyle=orthogonalEdgeStyle;rounded=0;orthogonalLoop=1;jettySize=auto;html=1;entryX=0.75;entryY=1;entryDx=0;entryDy=0;startArrow=classic;startFill=1;strokeWidth=2;" parent="1" source="et69hAGGcOlHRVVRuGMC-19" target="et69hAGGcOlHRVVRuGMC-5" edge="1">
          <mxGeometry relative="1" as="geometry" />
        </mxCell>
        <mxCell id="et69hAGGcOlHRVVRuGMC-23" value="" style="edgeStyle=orthogonalEdgeStyle;rounded=0;orthogonalLoop=1;jettySize=auto;html=1;startArrow=classic;startFill=1;strokeWidth=2;" parent="1" source="et69hAGGcOlHRVVRuGMC-19" target="et69hAGGcOlHRVVRuGMC-20" edge="1">
          <mxGeometry relative="1" as="geometry" />
        </mxCell>
        <mxCell id="et69hAGGcOlHRVVRuGMC-19" value="Native Method Interface (JNI)" style="rounded=0;whiteSpace=wrap;html=1;fillColor=#0050ef;fontColor=#ffffff;strokeColor=#001DBC;fontStyle=1" parent="1" vertex="1">
          <mxGeometry x="40" y="479.5" width="80" height="60" as="geometry" />
        </mxCell>
        <mxCell id="et69hAGGcOlHRVVRuGMC-20" value="Native Method Library" style="rounded=0;whiteSpace=wrap;html=1;fillColor=#0050ef;fontColor=#ffffff;strokeColor=#001DBC;fontStyle=1" parent="1" vertex="1">
          <mxGeometry x="169" y="480" width="83" height="60" as="geometry" />
        </mxCell>
        <mxCell id="et69hAGGcOlHRVVRuGMC-25" value="" style="group" parent="1" vertex="1" connectable="0">
          <mxGeometry x="-411" y="463" width="347" height="93" as="geometry" />
        </mxCell>
        <mxCell id="et69hAGGcOlHRVVRuGMC-15" value="Execution Area" style="rounded=0;whiteSpace=wrap;html=1;verticalAlign=top;fillColor=#ffe6cc;strokeColor=#d79b00;fontStyle=1;fontSize=16;fontFamily=Verdana;" parent="et69hAGGcOlHRVVRuGMC-25" vertex="1">
          <mxGeometry width="347" height="93" as="geometry" />
        </mxCell>
        <mxCell id="et69hAGGcOlHRVVRuGMC-16" value="Interpreter" style="rounded=0;whiteSpace=wrap;html=1;fillColor=#f0a30a;fontColor=#000000;strokeColor=#BD7000;fontStyle=1" parent="et69hAGGcOlHRVVRuGMC-25" vertex="1">
          <mxGeometry x="6" y="53" width="120" height="30" as="geometry" />
        </mxCell>
        <mxCell id="et69hAGGcOlHRVVRuGMC-17" value="JIT Compiler" style="rounded=0;whiteSpace=wrap;html=1;fillColor=#f0a30a;fontColor=#000000;strokeColor=#BD7000;fontStyle=1" parent="et69hAGGcOlHRVVRuGMC-25" vertex="1">
          <mxGeometry x="133" y="53" width="81" height="30" as="geometry" />
        </mxCell>
        <mxCell id="et69hAGGcOlHRVVRuGMC-18" value="Garbage Collector" style="rounded=0;whiteSpace=wrap;html=1;fillColor=#f0a30a;fontColor=#000000;strokeColor=#BD7000;fontStyle=1" parent="et69hAGGcOlHRVVRuGMC-25" vertex="1">
          <mxGeometry x="221" y="53" width="120" height="30" as="geometry" />
        </mxCell>
      </root>
    </mxGraphModel>
  </diagram>
  <diagram name="spring-application" id="4pwBr9rTImkoN6XvSeih">
    <mxGraphModel dx="2226" dy="1361" grid="0" gridSize="10" guides="1" tooltips="1" connect="1" arrows="1" fold="1" page="0" pageScale="1" pageWidth="850" pageHeight="1100" math="0" shadow="0">
      <root>
        <mxCell id="Do4w3XN70ZGy2qqOF4Xm-0" />
        <mxCell id="Do4w3XN70ZGy2qqOF4Xm-1" parent="Do4w3XN70ZGy2qqOF4Xm-0" />
        <mxCell id="x5bHJ5cwNsKtpU0ymmPR-41" value="" style="rounded=1;whiteSpace=wrap;html=1;" parent="Do4w3XN70ZGy2qqOF4Xm-1" vertex="1">
          <mxGeometry x="-709" y="-399" width="675" height="470" as="geometry" />
        </mxCell>
        <mxCell id="Do4w3XN70ZGy2qqOF4Xm-2" value="JVM" style="rounded=1;whiteSpace=wrap;html=1;shadow=0;verticalAlign=middle;labelPosition=center;verticalLabelPosition=middle;align=center;spacingLeft=0;spacingTop=0;spacing=2;spacingRight=0;fontSize=30;fontStyle=1;fontFamily=Lucida Console;fillColor=#fad9d5;strokeColor=#ae4132;" parent="Do4w3XN70ZGy2qqOF4Xm-1" vertex="1">
          <mxGeometry x="-690" y="-20" width="639" height="56" as="geometry" />
        </mxCell>
        <mxCell id="x5bHJ5cwNsKtpU0ymmPR-37" value="" style="edgeStyle=orthogonalEdgeStyle;rounded=0;orthogonalLoop=1;jettySize=auto;html=1;entryX=0.5;entryY=1;entryDx=0;entryDy=0;" parent="Do4w3XN70ZGy2qqOF4Xm-1" source="x5bHJ5cwNsKtpU0ymmPR-0" target="x5bHJ5cwNsKtpU0ymmPR-2" edge="1">
          <mxGeometry relative="1" as="geometry" />
        </mxCell>
        <mxCell id="x5bHJ5cwNsKtpU0ymmPR-0" value="Class Loader" style="rounded=1;whiteSpace=wrap;html=1;fillColor=#b0e3e6;strokeColor=#0e8088;fontStyle=1" parent="Do4w3XN70ZGy2qqOF4Xm-1" vertex="1">
          <mxGeometry x="-626" y="-10" width="120" height="33" as="geometry" />
        </mxCell>
        <mxCell id="x5bHJ5cwNsKtpU0ymmPR-36" value="JAR / WAR / EAR" style="edgeStyle=orthogonalEdgeStyle;rounded=0;orthogonalLoop=1;jettySize=auto;html=1;entryX=0;entryY=0.5;entryDx=0;entryDy=0;startArrow=classic;startFill=1;endArrow=none;fontStyle=1;fontColor=#CC0000;" parent="Do4w3XN70ZGy2qqOF4Xm-1" source="x5bHJ5cwNsKtpU0ymmPR-2" target="x5bHJ5cwNsKtpU0ymmPR-7" edge="1">
          <mxGeometry x="-0.2" y="52" relative="1" as="geometry">
            <mxPoint as="offset" />
          </mxGeometry>
        </mxCell>
        <mxCell id="x5bHJ5cwNsKtpU0ymmPR-2" value="Java + Spring" style="rounded=1;whiteSpace=wrap;html=1;fillColor=#d5e8d4;strokeColor=#82b366;" parent="Do4w3XN70ZGy2qqOF4Xm-1" vertex="1">
          <mxGeometry x="-626" y="-140" width="120" height="60" as="geometry" />
        </mxCell>
        <mxCell id="x5bHJ5cwNsKtpU0ymmPR-7" value="Maven" style="rounded=1;whiteSpace=wrap;html=1;verticalAlign=top;fontStyle=1;fillColor=#bac8d3;strokeColor=#23445d;fontColor=#0000FF;" parent="Do4w3XN70ZGy2qqOF4Xm-1" vertex="1">
          <mxGeometry x="-539" y="-340" width="164" height="174" as="geometry" />
        </mxCell>
        <mxCell id="x5bHJ5cwNsKtpU0ymmPR-5" value="Classes" style="rounded=1;whiteSpace=wrap;html=1;fontStyle=1" parent="Do4w3XN70ZGy2qqOF4Xm-1" vertex="1">
          <mxGeometry x="-520" y="-317" width="120" height="60" as="geometry" />
        </mxCell>
        <mxCell id="x5bHJ5cwNsKtpU0ymmPR-40" style="edgeStyle=orthogonalEdgeStyle;rounded=0;orthogonalLoop=1;jettySize=auto;html=1;exitX=1;exitY=0.5;exitDx=0;exitDy=0;" parent="Do4w3XN70ZGy2qqOF4Xm-1" source="x5bHJ5cwNsKtpU0ymmPR-6" target="x5bHJ5cwNsKtpU0ymmPR-9" edge="1">
          <mxGeometry relative="1" as="geometry" />
        </mxCell>
        <mxCell id="x5bHJ5cwNsKtpU0ymmPR-6" value="Libraries" style="rounded=1;whiteSpace=wrap;html=1;verticalAlign=top;fontStyle=1" parent="Do4w3XN70ZGy2qqOF4Xm-1" vertex="1">
          <mxGeometry x="-520" y="-249" width="120" height="60" as="geometry" />
        </mxCell>
        <mxCell id="x5bHJ5cwNsKtpU0ymmPR-32" value="" style="ellipse;whiteSpace=wrap;html=1;aspect=fixed;fillColor=#fff2cc;strokeColor=#d6b656;" parent="Do4w3XN70ZGy2qqOF4Xm-1" vertex="1">
          <mxGeometry x="-506" y="-222" width="26" height="26" as="geometry" />
        </mxCell>
        <mxCell id="x5bHJ5cwNsKtpU0ymmPR-33" value="" style="ellipse;whiteSpace=wrap;html=1;aspect=fixed;fillColor=#fff2cc;strokeColor=#d6b656;" parent="Do4w3XN70ZGy2qqOF4Xm-1" vertex="1">
          <mxGeometry x="-473" y="-222" width="26" height="26" as="geometry" />
        </mxCell>
        <mxCell id="x5bHJ5cwNsKtpU0ymmPR-34" value="" style="ellipse;whiteSpace=wrap;html=1;aspect=fixed;fillColor=#fff2cc;strokeColor=#d6b656;" parent="Do4w3XN70ZGy2qqOF4Xm-1" vertex="1">
          <mxGeometry x="-440" y="-222" width="26" height="26" as="geometry" />
        </mxCell>
        <mxCell id="x5bHJ5cwNsKtpU0ymmPR-38" value="" style="group;fontSize=12;" parent="Do4w3XN70ZGy2qqOF4Xm-1" vertex="1" connectable="0">
          <mxGeometry x="-310" y="-386" width="253" height="270" as="geometry" />
        </mxCell>
        <mxCell id="x5bHJ5cwNsKtpU0ymmPR-9" value="Artifactory (Maven Central, JFrog)" style="rounded=1;whiteSpace=wrap;html=1;verticalAlign=top;fontStyle=1;fillColor=#f5f5f5;fontColor=#333333;strokeColor=#666666;" parent="x5bHJ5cwNsKtpU0ymmPR-38" vertex="1">
          <mxGeometry width="253" height="270" as="geometry" />
        </mxCell>
        <mxCell id="x5bHJ5cwNsKtpU0ymmPR-8" value="spring-core" style="rounded=1;whiteSpace=wrap;html=1;fillColor=#fff2cc;strokeColor=#d6b656;" parent="x5bHJ5cwNsKtpU0ymmPR-38" vertex="1">
          <mxGeometry x="11" y="31" width="89" height="23" as="geometry" />
        </mxCell>
        <mxCell id="x5bHJ5cwNsKtpU0ymmPR-11" value="spring-context" style="rounded=1;whiteSpace=wrap;html=1;fillColor=#fff2cc;strokeColor=#d6b656;" parent="x5bHJ5cwNsKtpU0ymmPR-38" vertex="1">
          <mxGeometry x="11" y="56" width="89" height="23" as="geometry" />
        </mxCell>
        <mxCell id="x5bHJ5cwNsKtpU0ymmPR-12" value="spring-web" style="rounded=1;whiteSpace=wrap;html=1;fillColor=#fff2cc;strokeColor=#d6b656;" parent="x5bHJ5cwNsKtpU0ymmPR-38" vertex="1">
          <mxGeometry x="11" y="81" width="89" height="23" as="geometry" />
        </mxCell>
        <mxCell id="x5bHJ5cwNsKtpU0ymmPR-13" value="spring-aop" style="rounded=1;whiteSpace=wrap;html=1;fillColor=#fff2cc;strokeColor=#d6b656;" parent="x5bHJ5cwNsKtpU0ymmPR-38" vertex="1">
          <mxGeometry x="11" y="106" width="89" height="23" as="geometry" />
        </mxCell>
        <mxCell id="x5bHJ5cwNsKtpU0ymmPR-14" value="spring-beans" style="rounded=1;whiteSpace=wrap;html=1;fillColor=#fff2cc;strokeColor=#d6b656;" parent="x5bHJ5cwNsKtpU0ymmPR-38" vertex="1">
          <mxGeometry x="11" y="131" width="89" height="23" as="geometry" />
        </mxCell>
        <mxCell id="x5bHJ5cwNsKtpU0ymmPR-15" value="spring-test" style="rounded=1;whiteSpace=wrap;html=1;fillColor=#fff2cc;strokeColor=#d6b656;" parent="x5bHJ5cwNsKtpU0ymmPR-38" vertex="1">
          <mxGeometry x="11" y="156" width="89" height="23" as="geometry" />
        </mxCell>
        <mxCell id="x5bHJ5cwNsKtpU0ymmPR-16" value="spring-mvc" style="rounded=1;whiteSpace=wrap;html=1;fillColor=#fff2cc;strokeColor=#d6b656;" parent="x5bHJ5cwNsKtpU0ymmPR-38" vertex="1">
          <mxGeometry x="11" y="181" width="89" height="23" as="geometry" />
        </mxCell>
        <mxCell id="x5bHJ5cwNsKtpU0ymmPR-17" value="spring-jdbc" style="rounded=1;whiteSpace=wrap;html=1;fillColor=#fff2cc;strokeColor=#d6b656;" parent="x5bHJ5cwNsKtpU0ymmPR-38" vertex="1">
          <mxGeometry x="11" y="206" width="89" height="23" as="geometry" />
        </mxCell>
        <mxCell id="x5bHJ5cwNsKtpU0ymmPR-18" value="spring-tx" style="rounded=1;whiteSpace=wrap;html=1;fillColor=#fff2cc;strokeColor=#d6b656;" parent="x5bHJ5cwNsKtpU0ymmPR-38" vertex="1">
          <mxGeometry x="11" y="231" width="89" height="23" as="geometry" />
        </mxCell>
        <mxCell id="x5bHJ5cwNsKtpU0ymmPR-20" value="spring-security" style="rounded=1;whiteSpace=wrap;html=1;verticalAlign=top;fillColor=#e1d5e7;strokeColor=#9673a6;" parent="x5bHJ5cwNsKtpU0ymmPR-38" vertex="1">
          <mxGeometry x="117" y="66" width="120" height="140" as="geometry" />
        </mxCell>
        <mxCell id="x5bHJ5cwNsKtpU0ymmPR-21" value="" style="ellipse;whiteSpace=wrap;html=1;aspect=fixed;fillColor=#b1ddf0;strokeColor=#10739e;" parent="x5bHJ5cwNsKtpU0ymmPR-38" vertex="1">
          <mxGeometry x="133" y="102" width="26" height="26" as="geometry" />
        </mxCell>
        <mxCell id="x5bHJ5cwNsKtpU0ymmPR-22" value="" style="ellipse;whiteSpace=wrap;html=1;aspect=fixed;fillColor=#b1ddf0;strokeColor=#10739e;" parent="x5bHJ5cwNsKtpU0ymmPR-38" vertex="1">
          <mxGeometry x="166" y="102" width="26" height="26" as="geometry" />
        </mxCell>
        <mxCell id="x5bHJ5cwNsKtpU0ymmPR-23" value="" style="ellipse;whiteSpace=wrap;html=1;aspect=fixed;fillColor=#b1ddf0;strokeColor=#10739e;" parent="x5bHJ5cwNsKtpU0ymmPR-38" vertex="1">
          <mxGeometry x="199" y="102" width="26" height="26" as="geometry" />
        </mxCell>
        <mxCell id="x5bHJ5cwNsKtpU0ymmPR-24" value="" style="ellipse;whiteSpace=wrap;html=1;aspect=fixed;fillColor=#b1ddf0;strokeColor=#10739e;" parent="x5bHJ5cwNsKtpU0ymmPR-38" vertex="1">
          <mxGeometry x="133" y="134" width="26" height="26" as="geometry" />
        </mxCell>
        <mxCell id="x5bHJ5cwNsKtpU0ymmPR-25" value="" style="ellipse;whiteSpace=wrap;html=1;aspect=fixed;fillColor=#b1ddf0;strokeColor=#10739e;" parent="x5bHJ5cwNsKtpU0ymmPR-38" vertex="1">
          <mxGeometry x="166" y="134" width="26" height="26" as="geometry" />
        </mxCell>
        <mxCell id="x5bHJ5cwNsKtpU0ymmPR-26" value="" style="ellipse;whiteSpace=wrap;html=1;aspect=fixed;fillColor=#b1ddf0;strokeColor=#10739e;" parent="x5bHJ5cwNsKtpU0ymmPR-38" vertex="1">
          <mxGeometry x="199" y="134" width="26" height="26" as="geometry" />
        </mxCell>
        <mxCell id="x5bHJ5cwNsKtpU0ymmPR-27" value="" style="ellipse;whiteSpace=wrap;html=1;aspect=fixed;fillColor=#b1ddf0;strokeColor=#10739e;" parent="x5bHJ5cwNsKtpU0ymmPR-38" vertex="1">
          <mxGeometry x="133" y="167" width="26" height="26" as="geometry" />
        </mxCell>
        <mxCell id="x5bHJ5cwNsKtpU0ymmPR-28" value="" style="ellipse;whiteSpace=wrap;html=1;aspect=fixed;fillColor=#b1ddf0;strokeColor=#10739e;" parent="x5bHJ5cwNsKtpU0ymmPR-38" vertex="1">
          <mxGeometry x="166" y="167" width="26" height="26" as="geometry" />
        </mxCell>
        <mxCell id="x5bHJ5cwNsKtpU0ymmPR-29" value="" style="ellipse;whiteSpace=wrap;html=1;aspect=fixed;fillColor=#b1ddf0;strokeColor=#10739e;" parent="x5bHJ5cwNsKtpU0ymmPR-38" vertex="1">
          <mxGeometry x="199" y="167" width="26" height="26" as="geometry" />
        </mxCell>
      </root>
    </mxGraphModel>
  </diagram>
  <diagram name="spring-boot-application" id="A4kOVMGvLU9BxTXVCMvD">
    <mxGraphModel dx="2445" dy="1675" grid="0" gridSize="10" guides="1" tooltips="1" connect="1" arrows="1" fold="1" page="0" pageScale="1" pageWidth="850" pageHeight="1100" math="0" shadow="0">
      <root>
        <mxCell id="LqAuA_p6qxqin5Rjm4dC-0" />
        <mxCell id="LqAuA_p6qxqin5Rjm4dC-1" parent="LqAuA_p6qxqin5Rjm4dC-0" />
        <mxCell id="LqAuA_p6qxqin5Rjm4dC-2" value="" style="rounded=1;whiteSpace=wrap;html=1;" parent="LqAuA_p6qxqin5Rjm4dC-1" vertex="1">
          <mxGeometry x="-729" y="-402" width="812" height="468" as="geometry" />
        </mxCell>
        <mxCell id="LqAuA_p6qxqin5Rjm4dC-3" value="JVM" style="rounded=1;whiteSpace=wrap;html=1;shadow=0;verticalAlign=middle;labelPosition=right;verticalLabelPosition=middle;align=left;spacingLeft=-70;spacingTop=0;spacing=2;spacingRight=0;fontSize=30;fontStyle=1;fontFamily=Lucida Console;fillColor=#fad9d5;strokeColor=#ae4132;" parent="LqAuA_p6qxqin5Rjm4dC-1" vertex="1">
          <mxGeometry x="-648" y="-20" width="239" height="56" as="geometry" />
        </mxCell>
        <mxCell id="LqAuA_p6qxqin5Rjm4dC-4" value="" style="edgeStyle=orthogonalEdgeStyle;rounded=0;orthogonalLoop=1;jettySize=auto;html=1;entryX=0.5;entryY=1;entryDx=0;entryDy=0;strokeWidth=2;" parent="LqAuA_p6qxqin5Rjm4dC-1" source="LqAuA_p6qxqin5Rjm4dC-5" target="LqAuA_p6qxqin5Rjm4dC-7" edge="1">
          <mxGeometry relative="1" as="geometry" />
        </mxCell>
        <mxCell id="LqAuA_p6qxqin5Rjm4dC-5" value="Class Loader" style="rounded=1;whiteSpace=wrap;html=1;fillColor=#b0e3e6;strokeColor=#0e8088;fontStyle=1" parent="LqAuA_p6qxqin5Rjm4dC-1" vertex="1">
          <mxGeometry x="-626" y="-10" width="120" height="33" as="geometry" />
        </mxCell>
        <mxCell id="LqAuA_p6qxqin5Rjm4dC-6" value="JAR / WAR" style="edgeStyle=orthogonalEdgeStyle;rounded=0;orthogonalLoop=1;jettySize=auto;html=1;entryX=0.5;entryY=1;entryDx=0;entryDy=0;startArrow=classic;startFill=1;endArrow=none;fontStyle=1;fontColor=#CC0000;strokeWidth=2;" parent="LqAuA_p6qxqin5Rjm4dC-1" source="LqAuA_p6qxqin5Rjm4dC-7" target="LqAuA_p6qxqin5Rjm4dC-8" edge="1">
          <mxGeometry x="0.04" y="33" relative="1" as="geometry">
            <mxPoint as="offset" />
          </mxGeometry>
        </mxCell>
        <mxCell id="LqAuA_p6qxqin5Rjm4dC-7" value="Java spring-boot" style="rounded=1;whiteSpace=wrap;html=1;fillColor=#d5e8d4;strokeColor=#82b366;" parent="LqAuA_p6qxqin5Rjm4dC-1" vertex="1">
          <mxGeometry x="-626" y="-140" width="120" height="60" as="geometry" />
        </mxCell>
        <mxCell id="T3kuxpV014jMzaP1X4v--31" style="edgeStyle=orthogonalEdgeStyle;rounded=0;orthogonalLoop=1;jettySize=auto;html=1;entryX=0.003;entryY=0.354;entryDx=0;entryDy=0;entryPerimeter=0;strokeWidth=2;" parent="LqAuA_p6qxqin5Rjm4dC-1" source="LqAuA_p6qxqin5Rjm4dC-8" target="LqAuA_p6qxqin5Rjm4dC-16" edge="1">
          <mxGeometry relative="1" as="geometry" />
        </mxCell>
        <mxCell id="LqAuA_p6qxqin5Rjm4dC-16" value="Artifactory (Maven Central, JFrog)" style="rounded=1;whiteSpace=wrap;html=1;verticalAlign=top;fontStyle=1;fillColor=#f5f5f5;fontColor=#333333;strokeColor=#666666;" parent="LqAuA_p6qxqin5Rjm4dC-1" vertex="1">
          <mxGeometry x="-398" y="-376" width="456" height="270" as="geometry" />
        </mxCell>
        <mxCell id="T3kuxpV014jMzaP1X4v--9" value="" style="group;collapsible=0;" parent="LqAuA_p6qxqin5Rjm4dC-1" vertex="1" connectable="0">
          <mxGeometry x="-381" y="-345" width="133" height="64" as="geometry" />
        </mxCell>
        <mxCell id="LqAuA_p6qxqin5Rjm4dC-17" value="spring-boot-starter" style="rounded=1;whiteSpace=wrap;html=1;fillColor=#fff2cc;strokeColor=#d6b656;verticalAlign=top;container=1;fontStyle=1;collapsible=0;" parent="T3kuxpV014jMzaP1X4v--9" vertex="1">
          <mxGeometry width="116" height="64" as="geometry">
            <mxRectangle width="133" height="26" as="alternateBounds" />
          </mxGeometry>
        </mxCell>
        <mxCell id="LqAuA_p6qxqin5Rjm4dC-27" value="" style="ellipse;whiteSpace=wrap;html=1;aspect=fixed;fillColor=#b1ddf0;strokeColor=#10739e;fontStyle=1" parent="T3kuxpV014jMzaP1X4v--9" vertex="1">
          <mxGeometry x="12" y="28.121212121212125" width="25.212121212121215" height="25.212121212121215" as="geometry" />
        </mxCell>
        <mxCell id="LqAuA_p6qxqin5Rjm4dC-28" value="" style="ellipse;whiteSpace=wrap;html=1;aspect=fixed;fillColor=#b1ddf0;strokeColor=#10739e;fontStyle=1" parent="T3kuxpV014jMzaP1X4v--9" vertex="1">
          <mxGeometry x="45" y="28.121212121212125" width="25.212121212121215" height="25.212121212121215" as="geometry" />
        </mxCell>
        <mxCell id="LqAuA_p6qxqin5Rjm4dC-29" value="" style="ellipse;whiteSpace=wrap;html=1;aspect=fixed;fillColor=#b1ddf0;strokeColor=#10739e;fontStyle=1" parent="T3kuxpV014jMzaP1X4v--9" vertex="1">
          <mxGeometry x="78" y="28.121212121212125" width="25.212121212121215" height="25.212121212121215" as="geometry" />
        </mxCell>
        <mxCell id="T3kuxpV014jMzaP1X4v--10" value="" style="group" parent="LqAuA_p6qxqin5Rjm4dC-1" vertex="1" connectable="0">
          <mxGeometry x="-258" y="-345" width="144" height="64" as="geometry" />
        </mxCell>
        <mxCell id="LqAuA_p6qxqin5Rjm4dC-18" value="spring-boot-starter-aop" style="rounded=1;whiteSpace=wrap;html=1;fillColor=#fff2cc;strokeColor=#d6b656;verticalAlign=top;fontStyle=1" parent="T3kuxpV014jMzaP1X4v--10" vertex="1">
          <mxGeometry width="144" height="64" as="geometry" />
        </mxCell>
        <mxCell id="LqAuA_p6qxqin5Rjm4dC-30" value="" style="ellipse;whiteSpace=wrap;html=1;aspect=fixed;fillColor=#b1ddf0;strokeColor=#10739e;fontStyle=1" parent="T3kuxpV014jMzaP1X4v--10" vertex="1">
          <mxGeometry x="7.25" y="29" width="26" height="26" as="geometry" />
        </mxCell>
        <mxCell id="LqAuA_p6qxqin5Rjm4dC-31" value="" style="ellipse;whiteSpace=wrap;html=1;aspect=fixed;fillColor=#b1ddf0;strokeColor=#10739e;fontStyle=1" parent="T3kuxpV014jMzaP1X4v--10" vertex="1">
          <mxGeometry x="73.375" y="29" width="26" height="26" as="geometry" />
        </mxCell>
        <mxCell id="LqAuA_p6qxqin5Rjm4dC-32" value="" style="ellipse;whiteSpace=wrap;html=1;aspect=fixed;fillColor=#b1ddf0;strokeColor=#10739e;fontStyle=1" parent="T3kuxpV014jMzaP1X4v--10" vertex="1">
          <mxGeometry x="104.5" y="29" width="26" height="26" as="geometry" />
        </mxCell>
        <mxCell id="T3kuxpV014jMzaP1X4v--11" value="" style="ellipse;whiteSpace=wrap;html=1;aspect=fixed;fillColor=#b1ddf0;strokeColor=#10739e;fontStyle=1" parent="T3kuxpV014jMzaP1X4v--10" vertex="1">
          <mxGeometry x="40" y="29" width="26" height="26" as="geometry" />
        </mxCell>
        <mxCell id="T3kuxpV014jMzaP1X4v--12" value="" style="group" parent="LqAuA_p6qxqin5Rjm4dC-1" vertex="1" connectable="0">
          <mxGeometry x="-381" y="-270" width="173" height="155" as="geometry" />
        </mxCell>
        <mxCell id="LqAuA_p6qxqin5Rjm4dC-21" value="spring-boot-starter-data-jpa" style="rounded=1;whiteSpace=wrap;html=1;fillColor=#fff2cc;strokeColor=#d6b656;verticalAlign=top;fontStyle=1" parent="T3kuxpV014jMzaP1X4v--12" vertex="1">
          <mxGeometry width="173" height="155" as="geometry" />
        </mxCell>
        <mxCell id="T3kuxpV014jMzaP1X4v--3" value="hibernate-core" style="rounded=0;whiteSpace=wrap;html=1;fillColor=#cce5ff;strokeColor=#36393d;fontStyle=0" parent="T3kuxpV014jMzaP1X4v--12" vertex="1">
          <mxGeometry x="23.308383233532936" y="27" width="124.311377245509" height="21" as="geometry" />
        </mxCell>
        <mxCell id="T3kuxpV014jMzaP1X4v--4" value="spring-aspects" style="rounded=0;whiteSpace=wrap;html=1;fillColor=#cce5ff;strokeColor=#36393d;fontStyle=0" parent="T3kuxpV014jMzaP1X4v--12" vertex="1">
          <mxGeometry x="23.308383233532936" y="51" width="124.311377245509" height="21" as="geometry" />
        </mxCell>
        <mxCell id="T3kuxpV014jMzaP1X4v--5" value="spring-boot-starter" style="rounded=0;whiteSpace=wrap;html=1;fillColor=#cce5ff;strokeColor=#36393d;fontStyle=0" parent="T3kuxpV014jMzaP1X4v--12" vertex="1">
          <mxGeometry x="23.308383233532936" y="75" width="124.311377245509" height="21" as="geometry" />
        </mxCell>
        <mxCell id="T3kuxpV014jMzaP1X4v--6" value="spring-boot-starter-jdbc" style="rounded=0;whiteSpace=wrap;html=1;fillColor=#cce5ff;strokeColor=#36393d;fontStyle=0" parent="T3kuxpV014jMzaP1X4v--12" vertex="1">
          <mxGeometry x="15.020958083832337" y="123" width="138.29640718562874" height="21" as="geometry" />
        </mxCell>
        <mxCell id="T3kuxpV014jMzaP1X4v--7" value="spring-data-jpa" style="rounded=0;whiteSpace=wrap;html=1;fillColor=#cce5ff;strokeColor=#36393d;fontStyle=0" parent="T3kuxpV014jMzaP1X4v--12" vertex="1">
          <mxGeometry x="23.308383233532936" y="99" width="124.311377245509" height="21" as="geometry" />
        </mxCell>
        <mxCell id="JFqM8bph3As3Xyw35EMd-0" value="" style="group" vertex="1" connectable="0" parent="LqAuA_p6qxqin5Rjm4dC-1">
          <mxGeometry x="-107" y="-345" width="152" height="64" as="geometry" />
        </mxCell>
        <mxCell id="LqAuA_p6qxqin5Rjm4dC-22" value="spring-boot-starter-test" style="rounded=1;whiteSpace=wrap;html=1;fillColor=#fff2cc;strokeColor=#d6b656;verticalAlign=top;fontStyle=1" parent="JFqM8bph3As3Xyw35EMd-0" vertex="1">
          <mxGeometry width="152" height="64" as="geometry" />
        </mxCell>
        <mxCell id="LqAuA_p6qxqin5Rjm4dC-33" value="" style="ellipse;whiteSpace=wrap;html=1;aspect=fixed;fillColor=#b1ddf0;strokeColor=#10739e;" parent="JFqM8bph3As3Xyw35EMd-0" vertex="1">
          <mxGeometry x="7" y="27" width="26" height="26" as="geometry" />
        </mxCell>
        <mxCell id="LqAuA_p6qxqin5Rjm4dC-34" value="" style="ellipse;whiteSpace=wrap;html=1;aspect=fixed;fillColor=#b1ddf0;strokeColor=#10739e;" parent="JFqM8bph3As3Xyw35EMd-0" vertex="1">
          <mxGeometry x="46" y="27" width="26" height="26" as="geometry" />
        </mxCell>
        <mxCell id="LqAuA_p6qxqin5Rjm4dC-35" value="" style="ellipse;whiteSpace=wrap;html=1;aspect=fixed;fillColor=#b1ddf0;strokeColor=#10739e;" parent="JFqM8bph3As3Xyw35EMd-0" vertex="1">
          <mxGeometry x="82" y="27" width="26" height="26" as="geometry" />
        </mxCell>
        <mxCell id="T3kuxpV014jMzaP1X4v--16" value="" style="ellipse;whiteSpace=wrap;html=1;aspect=fixed;fillColor=#b1ddf0;strokeColor=#10739e;" parent="JFqM8bph3As3Xyw35EMd-0" vertex="1">
          <mxGeometry x="118" y="27" width="26" height="26" as="geometry" />
        </mxCell>
        <mxCell id="JFqM8bph3As3Xyw35EMd-2" value="" style="group" vertex="1" connectable="0" parent="LqAuA_p6qxqin5Rjm4dC-1">
          <mxGeometry x="-203" y="-270" width="206" height="155" as="geometry" />
        </mxCell>
        <mxCell id="T3kuxpV014jMzaP1X4v--19" value="spring-boot-starter-web" style="rounded=1;whiteSpace=wrap;html=1;fillColor=#fff2cc;strokeColor=#d6b656;verticalAlign=top;fontStyle=1" parent="JFqM8bph3As3Xyw35EMd-2" vertex="1">
          <mxGeometry width="206" height="155" as="geometry" />
        </mxCell>
        <mxCell id="T3kuxpV014jMzaP1X4v--20" value="spring-webmvc" style="rounded=0;whiteSpace=wrap;html=1;fillColor=#cce5ff;strokeColor=#36393d;fontStyle=0" parent="JFqM8bph3As3Xyw35EMd-2" vertex="1">
          <mxGeometry x="41.308383233532936" y="52" width="124.311377245509" height="21" as="geometry" />
        </mxCell>
        <mxCell id="T3kuxpV014jMzaP1X4v--22" value="spring-boot-starter" style="rounded=0;whiteSpace=wrap;html=1;fillColor=#cce5ff;strokeColor=#36393d;fontStyle=0" parent="JFqM8bph3As3Xyw35EMd-2" vertex="1">
          <mxGeometry x="41.308383233532936" y="76" width="124.311377245509" height="21" as="geometry" />
        </mxCell>
        <mxCell id="T3kuxpV014jMzaP1X4v--23" value="spring-boot-starter-tomcat" style="rounded=0;whiteSpace=wrap;html=1;fillColor=#cce5ff;strokeColor=#36393d;fontStyle=0" parent="JFqM8bph3As3Xyw35EMd-2" vertex="1">
          <mxGeometry x="23" y="124" width="162" height="21" as="geometry" />
        </mxCell>
        <mxCell id="T3kuxpV014jMzaP1X4v--24" value="spring-boot-starter-json" style="rounded=0;whiteSpace=wrap;html=1;fillColor=#cce5ff;strokeColor=#36393d;fontStyle=0" parent="JFqM8bph3As3Xyw35EMd-2" vertex="1">
          <mxGeometry x="23" y="100" width="162" height="21" as="geometry" />
        </mxCell>
        <mxCell id="JFqM8bph3As3Xyw35EMd-1" value="spring-web" style="rounded=0;whiteSpace=wrap;html=1;fillColor=#cce5ff;strokeColor=#36393d;fontStyle=0" vertex="1" parent="JFqM8bph3As3Xyw35EMd-2">
          <mxGeometry x="41.308383233532936" y="28" width="124.311377245509" height="21" as="geometry" />
        </mxCell>
        <mxCell id="LqAuA_p6qxqin5Rjm4dC-8" value="Maven" style="rounded=1;whiteSpace=wrap;html=1;verticalAlign=top;fontStyle=1;fillColor=#bac8d3;strokeColor=#23445d;fontColor=#0000FF;" parent="LqAuA_p6qxqin5Rjm4dC-1" vertex="1">
          <mxGeometry x="-648" y="-371" width="164" height="181" as="geometry" />
        </mxCell>
        <mxCell id="LqAuA_p6qxqin5Rjm4dC-9" value="Classes" style="rounded=1;whiteSpace=wrap;html=1;fontStyle=1" parent="LqAuA_p6qxqin5Rjm4dC-1" vertex="1">
          <mxGeometry x="-629" y="-344" width="120" height="60" as="geometry" />
        </mxCell>
        <mxCell id="LqAuA_p6qxqin5Rjm4dC-11" value="libraries + starters + autoconfigure" style="rounded=1;whiteSpace=wrap;html=1;verticalAlign=top;fontStyle=1" parent="LqAuA_p6qxqin5Rjm4dC-1" vertex="1">
          <mxGeometry x="-629" y="-277" width="120" height="80" as="geometry" />
        </mxCell>
        <mxCell id="LqAuA_p6qxqin5Rjm4dC-12" value="" style="ellipse;whiteSpace=wrap;html=1;aspect=fixed;fillColor=#fff2cc;strokeColor=#d6b656;" parent="LqAuA_p6qxqin5Rjm4dC-1" vertex="1">
          <mxGeometry x="-615" y="-231" width="26" height="26" as="geometry" />
        </mxCell>
        <mxCell id="LqAuA_p6qxqin5Rjm4dC-13" value="" style="ellipse;whiteSpace=wrap;html=1;aspect=fixed;fillColor=#dae8fc;strokeColor=#6c8ebf;" parent="LqAuA_p6qxqin5Rjm4dC-1" vertex="1">
          <mxGeometry x="-582" y="-231" width="26" height="26" as="geometry" />
        </mxCell>
        <mxCell id="LqAuA_p6qxqin5Rjm4dC-14" value="" style="ellipse;whiteSpace=wrap;html=1;aspect=fixed;fillColor=#fff2cc;strokeColor=#d6b656;" parent="LqAuA_p6qxqin5Rjm4dC-1" vertex="1">
          <mxGeometry x="-549" y="-231" width="26" height="26" as="geometry" />
        </mxCell>
      </root>
    </mxGraphModel>
  </diagram>
  <diagram name="spring-boot-test" id="pNWmRzX8o81__ESZZLUF">
    <mxGraphModel dx="1479" dy="1200" grid="0" gridSize="10" guides="1" tooltips="1" connect="1" arrows="1" fold="1" page="0" pageScale="1" pageWidth="850" pageHeight="1100" math="0" shadow="0">
      <root>
        <mxCell id="O6BjkIQajMiKkO3FrxA_-0" />
        <mxCell id="O6BjkIQajMiKkO3FrxA_-1" parent="O6BjkIQajMiKkO3FrxA_-0" />
        <mxCell id="gBwH-GEI10st3f3pyOS6-51" value="" style="rounded=1;whiteSpace=wrap;html=1;" vertex="1" parent="O6BjkIQajMiKkO3FrxA_-1">
          <mxGeometry x="-727" y="-418" width="396" height="284" as="geometry" />
        </mxCell>
        <mxCell id="gBwH-GEI10st3f3pyOS6-9" value="Service A" style="rounded=1;whiteSpace=wrap;html=1;fontSize=17;fontStyle=1;fillColor=#f5f5f5;fontColor=#333333;strokeColor=#666666;" vertex="1" parent="O6BjkIQajMiKkO3FrxA_-1">
          <mxGeometry x="-480" y="-408" width="120" height="31" as="geometry" />
        </mxCell>
        <mxCell id="gBwH-GEI10st3f3pyOS6-10" value="Service B" style="rounded=1;whiteSpace=wrap;html=1;fontSize=17;fontStyle=1;fillColor=#f5f5f5;fontColor=#333333;strokeColor=#666666;" vertex="1" parent="O6BjkIQajMiKkO3FrxA_-1">
          <mxGeometry x="-480" y="-195" width="120" height="31" as="geometry" />
        </mxCell>
        <mxCell id="gBwH-GEI10st3f3pyOS6-11" value="Service C" style="rounded=1;whiteSpace=wrap;html=1;fontSize=17;fontStyle=1;fillColor=#f5f5f5;fontColor=#333333;strokeColor=#666666;" vertex="1" parent="O6BjkIQajMiKkO3FrxA_-1">
          <mxGeometry x="-480" y="-366" width="120" height="31" as="geometry" />
        </mxCell>
        <mxCell id="gBwH-GEI10st3f3pyOS6-12" value="Service D" style="rounded=1;whiteSpace=wrap;html=1;fontSize=17;fontStyle=1;fillColor=#f5f5f5;fontColor=#333333;strokeColor=#666666;" vertex="1" parent="O6BjkIQajMiKkO3FrxA_-1">
          <mxGeometry x="-480" y="-324" width="120" height="31" as="geometry" />
        </mxCell>
        <mxCell id="gBwH-GEI10st3f3pyOS6-13" value="Service E" style="rounded=1;whiteSpace=wrap;html=1;fontSize=17;fontStyle=1;fillColor=#f5f5f5;fontColor=#333333;strokeColor=#666666;" vertex="1" parent="O6BjkIQajMiKkO3FrxA_-1">
          <mxGeometry x="-480" y="-281" width="120" height="31" as="geometry" />
        </mxCell>
        <mxCell id="gBwH-GEI10st3f3pyOS6-14" value="Service F" style="rounded=1;whiteSpace=wrap;html=1;fontSize=17;fontStyle=1;fillColor=#f5f5f5;fontColor=#333333;strokeColor=#666666;" vertex="1" parent="O6BjkIQajMiKkO3FrxA_-1">
          <mxGeometry x="-480" y="-238" width="120" height="31" as="geometry" />
        </mxCell>
        <mxCell id="gBwH-GEI10st3f3pyOS6-60" value="" style="group" vertex="1" connectable="0" parent="O6BjkIQajMiKkO3FrxA_-1">
          <mxGeometry x="-703" y="-269" width="135" height="129" as="geometry" />
        </mxCell>
        <mxCell id="gBwH-GEI10st3f3pyOS6-32" value="Controller 2" style="rounded=1;whiteSpace=wrap;html=1;verticalAlign=top;fontSize=17;fontStyle=1;fillColor=#ffe6cc;strokeColor=#d79b00;" vertex="1" parent="gBwH-GEI10st3f3pyOS6-60">
          <mxGeometry x="31" width="104" height="129" as="geometry" />
        </mxCell>
        <mxCell id="gBwH-GEI10st3f3pyOS6-52" value="" style="group" vertex="1" connectable="0" parent="gBwH-GEI10st3f3pyOS6-60">
          <mxGeometry y="32" width="70" height="20" as="geometry" />
        </mxCell>
        <mxCell id="gBwH-GEI10st3f3pyOS6-34" value="" style="verticalLabelPosition=bottom;html=1;verticalAlign=top;align=center;strokeColor=none;fillColor=#00BEF2;shape=mxgraph.azure.service_endpoint;" vertex="1" parent="gBwH-GEI10st3f3pyOS6-52">
          <mxGeometry width="50" height="20" as="geometry" />
        </mxCell>
        <mxCell id="gBwH-GEI10st3f3pyOS6-35" value="1" style="ellipse;whiteSpace=wrap;html=1;aspect=fixed;fillColor=#dae8fc;strokeColor=#6c8ebf;" vertex="1" parent="gBwH-GEI10st3f3pyOS6-52">
          <mxGeometry x="50" width="20" height="20" as="geometry" />
        </mxCell>
        <mxCell id="gBwH-GEI10st3f3pyOS6-53" value="" style="group" vertex="1" connectable="0" parent="gBwH-GEI10st3f3pyOS6-60">
          <mxGeometry y="54" width="70" height="20" as="geometry" />
        </mxCell>
        <mxCell id="gBwH-GEI10st3f3pyOS6-37" value="" style="verticalLabelPosition=bottom;html=1;verticalAlign=top;align=center;strokeColor=none;fillColor=#00BEF2;shape=mxgraph.azure.service_endpoint;" vertex="1" parent="gBwH-GEI10st3f3pyOS6-53">
          <mxGeometry width="50" height="20" as="geometry" />
        </mxCell>
        <mxCell id="gBwH-GEI10st3f3pyOS6-38" value="2" style="ellipse;whiteSpace=wrap;html=1;aspect=fixed;fillColor=#dae8fc;strokeColor=#6c8ebf;" vertex="1" parent="gBwH-GEI10st3f3pyOS6-53">
          <mxGeometry x="50" width="20" height="20" as="geometry" />
        </mxCell>
        <mxCell id="gBwH-GEI10st3f3pyOS6-54" value="" style="group" vertex="1" connectable="0" parent="gBwH-GEI10st3f3pyOS6-60">
          <mxGeometry y="76" width="70" height="20" as="geometry" />
        </mxCell>
        <mxCell id="gBwH-GEI10st3f3pyOS6-40" value="" style="verticalLabelPosition=bottom;html=1;verticalAlign=top;align=center;strokeColor=none;fillColor=#00BEF2;shape=mxgraph.azure.service_endpoint;" vertex="1" parent="gBwH-GEI10st3f3pyOS6-54">
          <mxGeometry width="50" height="20" as="geometry" />
        </mxCell>
        <mxCell id="gBwH-GEI10st3f3pyOS6-41" value="3" style="ellipse;whiteSpace=wrap;html=1;aspect=fixed;fillColor=#dae8fc;strokeColor=#6c8ebf;" vertex="1" parent="gBwH-GEI10st3f3pyOS6-54">
          <mxGeometry x="50" width="20" height="20" as="geometry" />
        </mxCell>
        <mxCell id="gBwH-GEI10st3f3pyOS6-55" value="" style="group" vertex="1" connectable="0" parent="gBwH-GEI10st3f3pyOS6-60">
          <mxGeometry y="98" width="70" height="20" as="geometry" />
        </mxCell>
        <mxCell id="gBwH-GEI10st3f3pyOS6-43" value="" style="verticalLabelPosition=bottom;html=1;verticalAlign=top;align=center;strokeColor=none;fillColor=#00BEF2;shape=mxgraph.azure.service_endpoint;" vertex="1" parent="gBwH-GEI10st3f3pyOS6-55">
          <mxGeometry width="50" height="20" as="geometry" />
        </mxCell>
        <mxCell id="gBwH-GEI10st3f3pyOS6-44" value="4" style="ellipse;whiteSpace=wrap;html=1;aspect=fixed;fillColor=#dae8fc;strokeColor=#6c8ebf;" vertex="1" parent="gBwH-GEI10st3f3pyOS6-55">
          <mxGeometry x="50" width="20" height="20" as="geometry" />
        </mxCell>
        <mxCell id="gBwH-GEI10st3f3pyOS6-61" value="" style="group" vertex="1" connectable="0" parent="O6BjkIQajMiKkO3FrxA_-1">
          <mxGeometry x="-703" y="-408" width="135" height="129" as="geometry" />
        </mxCell>
        <mxCell id="gBwH-GEI10st3f3pyOS6-3" value="Controller 1" style="rounded=1;whiteSpace=wrap;html=1;verticalAlign=top;fontSize=17;fontStyle=1;fillColor=#d5e8d4;strokeColor=#82b366;" vertex="1" parent="gBwH-GEI10st3f3pyOS6-61">
          <mxGeometry x="31" width="104" height="129" as="geometry" />
        </mxCell>
        <mxCell id="gBwH-GEI10st3f3pyOS6-56" value="" style="group" vertex="1" connectable="0" parent="gBwH-GEI10st3f3pyOS6-61">
          <mxGeometry y="32" width="70" height="20" as="geometry" />
        </mxCell>
        <mxCell id="gBwH-GEI10st3f3pyOS6-6" value="" style="verticalLabelPosition=bottom;html=1;verticalAlign=top;align=center;strokeColor=none;fillColor=#00BEF2;shape=mxgraph.azure.service_endpoint;" vertex="1" parent="gBwH-GEI10st3f3pyOS6-56">
          <mxGeometry width="50" height="20" as="geometry" />
        </mxCell>
        <mxCell id="gBwH-GEI10st3f3pyOS6-20" value="1" style="ellipse;whiteSpace=wrap;html=1;aspect=fixed;fillColor=#dae8fc;strokeColor=#6c8ebf;" vertex="1" parent="gBwH-GEI10st3f3pyOS6-56">
          <mxGeometry x="50" width="20" height="20" as="geometry" />
        </mxCell>
        <mxCell id="gBwH-GEI10st3f3pyOS6-57" value="" style="group" vertex="1" connectable="0" parent="gBwH-GEI10st3f3pyOS6-61">
          <mxGeometry y="54" width="70" height="20" as="geometry" />
        </mxCell>
        <mxCell id="gBwH-GEI10st3f3pyOS6-5" value="" style="verticalLabelPosition=bottom;html=1;verticalAlign=top;align=center;strokeColor=none;fillColor=#00BEF2;shape=mxgraph.azure.service_endpoint;" vertex="1" parent="gBwH-GEI10st3f3pyOS6-57">
          <mxGeometry width="50" height="20" as="geometry" />
        </mxCell>
        <mxCell id="gBwH-GEI10st3f3pyOS6-22" value="2" style="ellipse;whiteSpace=wrap;html=1;aspect=fixed;fillColor=#dae8fc;strokeColor=#6c8ebf;" vertex="1" parent="gBwH-GEI10st3f3pyOS6-57">
          <mxGeometry x="50" width="20" height="20" as="geometry" />
        </mxCell>
        <mxCell id="gBwH-GEI10st3f3pyOS6-58" value="" style="group" vertex="1" connectable="0" parent="gBwH-GEI10st3f3pyOS6-61">
          <mxGeometry y="76" width="70" height="20" as="geometry" />
        </mxCell>
        <mxCell id="gBwH-GEI10st3f3pyOS6-4" value="" style="verticalLabelPosition=bottom;html=1;verticalAlign=top;align=center;strokeColor=none;fillColor=#00BEF2;shape=mxgraph.azure.service_endpoint;" vertex="1" parent="gBwH-GEI10st3f3pyOS6-58">
          <mxGeometry width="50" height="20" as="geometry" />
        </mxCell>
        <mxCell id="gBwH-GEI10st3f3pyOS6-24" value="3" style="ellipse;whiteSpace=wrap;html=1;aspect=fixed;fillColor=#dae8fc;strokeColor=#6c8ebf;" vertex="1" parent="gBwH-GEI10st3f3pyOS6-58">
          <mxGeometry x="50" width="20" height="20" as="geometry" />
        </mxCell>
        <mxCell id="gBwH-GEI10st3f3pyOS6-59" value="" style="group" vertex="1" connectable="0" parent="gBwH-GEI10st3f3pyOS6-61">
          <mxGeometry y="98" width="70" height="20" as="geometry" />
        </mxCell>
        <mxCell id="gBwH-GEI10st3f3pyOS6-2" value="" style="verticalLabelPosition=bottom;html=1;verticalAlign=top;align=center;strokeColor=none;fillColor=#00BEF2;shape=mxgraph.azure.service_endpoint;" vertex="1" parent="gBwH-GEI10st3f3pyOS6-59">
          <mxGeometry width="50" height="20" as="geometry" />
        </mxCell>
        <mxCell id="gBwH-GEI10st3f3pyOS6-26" value="4" style="ellipse;whiteSpace=wrap;html=1;aspect=fixed;fillColor=#dae8fc;strokeColor=#6c8ebf;" vertex="1" parent="gBwH-GEI10st3f3pyOS6-59">
          <mxGeometry x="50" width="20" height="20" as="geometry" />
        </mxCell>
        <mxCell id="gBwH-GEI10st3f3pyOS6-47" style="edgeStyle=orthogonalEdgeStyle;rounded=0;orthogonalLoop=1;jettySize=auto;html=1;entryX=0;entryY=0.75;entryDx=0;entryDy=0;fillColor=#ffe6cc;strokeColor=#d79b00;" edge="1" parent="O6BjkIQajMiKkO3FrxA_-1" source="gBwH-GEI10st3f3pyOS6-35" target="gBwH-GEI10st3f3pyOS6-14">
          <mxGeometry relative="1" as="geometry" />
        </mxCell>
        <mxCell id="gBwH-GEI10st3f3pyOS6-48" style="edgeStyle=orthogonalEdgeStyle;rounded=0;orthogonalLoop=1;jettySize=auto;html=1;entryX=0;entryY=0.5;entryDx=0;entryDy=0;fillColor=#ffe6cc;strokeColor=#d79b00;" edge="1" parent="O6BjkIQajMiKkO3FrxA_-1" source="gBwH-GEI10st3f3pyOS6-38" target="gBwH-GEI10st3f3pyOS6-10">
          <mxGeometry relative="1" as="geometry" />
        </mxCell>
        <mxCell id="gBwH-GEI10st3f3pyOS6-49" style="edgeStyle=orthogonalEdgeStyle;rounded=0;orthogonalLoop=1;jettySize=auto;html=1;fillColor=#ffe6cc;strokeColor=#d79b00;" edge="1" parent="O6BjkIQajMiKkO3FrxA_-1" source="gBwH-GEI10st3f3pyOS6-41" target="gBwH-GEI10st3f3pyOS6-10">
          <mxGeometry relative="1" as="geometry" />
        </mxCell>
        <mxCell id="gBwH-GEI10st3f3pyOS6-50" style="edgeStyle=orthogonalEdgeStyle;rounded=0;orthogonalLoop=1;jettySize=auto;html=1;fillColor=#ffe6cc;strokeColor=#d79b00;" edge="1" parent="O6BjkIQajMiKkO3FrxA_-1" source="gBwH-GEI10st3f3pyOS6-44" target="gBwH-GEI10st3f3pyOS6-10">
          <mxGeometry relative="1" as="geometry" />
        </mxCell>
        <mxCell id="gBwH-GEI10st3f3pyOS6-17" style="edgeStyle=orthogonalEdgeStyle;rounded=0;orthogonalLoop=1;jettySize=auto;html=1;entryX=0;entryY=0.5;entryDx=0;entryDy=0;exitX=1;exitY=0.5;exitDx=0;exitDy=0;fillColor=#d5e8d4;strokeColor=#82b366;" edge="1" parent="O6BjkIQajMiKkO3FrxA_-1" source="gBwH-GEI10st3f3pyOS6-24" target="gBwH-GEI10st3f3pyOS6-12">
          <mxGeometry relative="1" as="geometry">
            <Array as="points">
              <mxPoint x="-506" y="-322" />
              <mxPoint x="-506" y="-308" />
              <mxPoint x="-480" y="-308" />
            </Array>
          </mxGeometry>
        </mxCell>
        <mxCell id="gBwH-GEI10st3f3pyOS6-18" style="edgeStyle=orthogonalEdgeStyle;rounded=0;orthogonalLoop=1;jettySize=auto;html=1;entryX=0;entryY=0.5;entryDx=0;entryDy=0;fillColor=#d5e8d4;strokeColor=#82b366;" edge="1" parent="O6BjkIQajMiKkO3FrxA_-1" source="gBwH-GEI10st3f3pyOS6-24" target="gBwH-GEI10st3f3pyOS6-13">
          <mxGeometry relative="1" as="geometry">
            <Array as="points">
              <mxPoint x="-506" y="-322" />
              <mxPoint x="-506" y="-265" />
              <mxPoint x="-480" y="-265" />
            </Array>
          </mxGeometry>
        </mxCell>
        <mxCell id="gBwH-GEI10st3f3pyOS6-16" style="edgeStyle=orthogonalEdgeStyle;rounded=0;orthogonalLoop=1;jettySize=auto;html=1;entryX=0;entryY=0.5;entryDx=0;entryDy=0;fillColor=#d5e8d4;strokeColor=#82b366;" edge="1" parent="O6BjkIQajMiKkO3FrxA_-1" source="gBwH-GEI10st3f3pyOS6-22" target="gBwH-GEI10st3f3pyOS6-11">
          <mxGeometry relative="1" as="geometry">
            <Array as="points">
              <mxPoint x="-497" y="-344" />
              <mxPoint x="-497" y="-350" />
              <mxPoint x="-480" y="-350" />
            </Array>
          </mxGeometry>
        </mxCell>
        <mxCell id="gBwH-GEI10st3f3pyOS6-15" style="edgeStyle=orthogonalEdgeStyle;rounded=0;orthogonalLoop=1;jettySize=auto;html=1;entryX=0;entryY=0.5;entryDx=0;entryDy=0;fillColor=#d5e8d4;strokeColor=#82b366;" edge="1" parent="O6BjkIQajMiKkO3FrxA_-1" source="gBwH-GEI10st3f3pyOS6-20" target="gBwH-GEI10st3f3pyOS6-9">
          <mxGeometry relative="1" as="geometry">
            <Array as="points">
              <mxPoint x="-497" y="-366" />
              <mxPoint x="-497" y="-392" />
            </Array>
          </mxGeometry>
        </mxCell>
        <mxCell id="gBwH-GEI10st3f3pyOS6-19" style="edgeStyle=orthogonalEdgeStyle;rounded=0;orthogonalLoop=1;jettySize=auto;html=1;entryX=0;entryY=0.25;entryDx=0;entryDy=0;fillColor=#d5e8d4;strokeColor=#82b366;" edge="1" parent="O6BjkIQajMiKkO3FrxA_-1" source="gBwH-GEI10st3f3pyOS6-26" target="gBwH-GEI10st3f3pyOS6-14">
          <mxGeometry relative="1" as="geometry">
            <Array as="points">
              <mxPoint x="-519" y="-300" />
              <mxPoint x="-519" y="-230" />
              <mxPoint x="-480" y="-230" />
            </Array>
          </mxGeometry>
        </mxCell>
      </root>
    </mxGraphModel>
  </diagram>
  <diagram name="regular-flow" id="fp6ZBOlopt7pNSIMsRDQ">
    <mxGraphModel dx="570" dy="384" grid="0" gridSize="10" guides="1" tooltips="1" connect="1" arrows="1" fold="1" page="0" pageScale="1" pageWidth="850" pageHeight="1100" math="0" shadow="0">
      <root>
        <mxCell id="x3alznxt2rm3ecylXqy4-0" />
        <mxCell id="x3alznxt2rm3ecylXqy4-1" parent="x3alznxt2rm3ecylXqy4-0" />
        <mxCell id="LbR-n3zfD15C_6hWRWTA-1" value="Regular flow" style="swimlane;html=1;childLayout=stackLayout;horizontal=1;startSize=20;horizontalStack=0;rounded=0;shadow=0;labelBackgroundColor=none;strokeWidth=1;fontFamily=Verdana;fontSize=8;align=center;container=0;fillColor=#f5f5f5;strokeColor=#666666;fontColor=#333333;" vertex="1" parent="x3alznxt2rm3ecylXqy4-1">
          <mxGeometry x="20" y="20" width="372" height="284" as="geometry" />
        </mxCell>
        <mxCell id="LbR-n3zfD15C_6hWRWTA-2" value="Application" style="swimlane;html=1;startSize=20;horizontal=0;collapsible=0;fillColor=#dae8fc;strokeColor=#6c8ebf;" vertex="1" parent="x3alznxt2rm3ecylXqy4-1">
          <mxGeometry x="20" y="40" width="372" height="150" as="geometry" />
        </mxCell>
        <mxCell id="LbR-n3zfD15C_6hWRWTA-3" style="edgeStyle=orthogonalEdgeStyle;rounded=0;html=1;labelBackgroundColor=none;startArrow=none;startFill=0;startSize=5;endArrow=classicThin;endFill=1;endSize=5;jettySize=auto;orthogonalLoop=1;strokeWidth=1;fontFamily=Verdana;fontSize=8" edge="1" parent="LbR-n3zfD15C_6hWRWTA-2" source="LbR-n3zfD15C_6hWRWTA-4" target="LbR-n3zfD15C_6hWRWTA-5">
          <mxGeometry relative="1" as="geometry" />
        </mxCell>
        <mxCell id="LbR-n3zfD15C_6hWRWTA-4" value="" style="ellipse;whiteSpace=wrap;html=1;rounded=0;shadow=0;labelBackgroundColor=none;strokeWidth=1;fontFamily=Verdana;fontSize=8;align=center;" vertex="1" parent="LbR-n3zfD15C_6hWRWTA-2">
          <mxGeometry x="60" y="60" width="30" height="30" as="geometry" />
        </mxCell>
        <mxCell id="LbR-n3zfD15C_6hWRWTA-32" value="" style="edgeStyle=orthogonalEdgeStyle;rounded=0;orthogonalLoop=1;jettySize=auto;html=1;" edge="1" parent="LbR-n3zfD15C_6hWRWTA-2" source="LbR-n3zfD15C_6hWRWTA-5" target="LbR-n3zfD15C_6hWRWTA-7">
          <mxGeometry relative="1" as="geometry" />
        </mxCell>
        <mxCell id="LbR-n3zfD15C_6hWRWTA-5" value="Action 1" style="rounded=1;whiteSpace=wrap;html=1;shadow=0;labelBackgroundColor=none;strokeWidth=1;fontFamily=Verdana;fontSize=8;align=center;fillColor=#f5f5f5;fontColor=#333333;strokeColor=#666666;" vertex="1" parent="LbR-n3zfD15C_6hWRWTA-2">
          <mxGeometry x="120" y="56.49999999999997" width="70" height="37" as="geometry" />
        </mxCell>
        <mxCell id="LbR-n3zfD15C_6hWRWTA-6" style="edgeStyle=orthogonalEdgeStyle;rounded=0;html=1;labelBackgroundColor=none;startArrow=none;startFill=0;startSize=5;endArrow=classicThin;endFill=1;endSize=5;jettySize=auto;orthogonalLoop=1;strokeWidth=1;fontFamily=Verdana;fontSize=8" edge="1" parent="LbR-n3zfD15C_6hWRWTA-2" source="LbR-n3zfD15C_6hWRWTA-7" target="LbR-n3zfD15C_6hWRWTA-8">
          <mxGeometry relative="1" as="geometry" />
        </mxCell>
        <mxCell id="LbR-n3zfD15C_6hWRWTA-7" value="Action 2" style="rounded=1;whiteSpace=wrap;html=1;shadow=0;labelBackgroundColor=none;strokeWidth=1;fontFamily=Verdana;fontSize=8;align=center;fillColor=#f5f5f5;fontColor=#333333;strokeColor=#666666;" vertex="1" parent="LbR-n3zfD15C_6hWRWTA-2">
          <mxGeometry x="230" y="56.49999999999997" width="70" height="37" as="geometry" />
        </mxCell>
        <mxCell id="LbR-n3zfD15C_6hWRWTA-8" value="" style="ellipse;whiteSpace=wrap;html=1;rounded=0;shadow=0;labelBackgroundColor=none;strokeWidth=2;fontFamily=Verdana;fontSize=8;align=center;" vertex="1" parent="LbR-n3zfD15C_6hWRWTA-2">
          <mxGeometry x="330" y="60" width="30" height="30" as="geometry" />
        </mxCell>
        <mxCell id="LbR-n3zfD15C_6hWRWTA-14" value="Libraries" style="swimlane;html=1;startSize=20;horizontal=0;collapsible=0;fillColor=#ffe6cc;strokeColor=#d79b00;" vertex="1" parent="x3alznxt2rm3ecylXqy4-1">
          <mxGeometry x="20" y="190" width="372" height="114" as="geometry" />
        </mxCell>
        <mxCell id="LbR-n3zfD15C_6hWRWTA-16" value="Library 1" style="rounded=1;whiteSpace=wrap;html=1;shadow=0;labelBackgroundColor=none;strokeWidth=1;fontFamily=Verdana;fontSize=8;align=center;fillColor=#ffe6cc;strokeColor=#d79b00;" vertex="1" parent="LbR-n3zfD15C_6hWRWTA-14">
          <mxGeometry x="120" y="49.99999999999996" width="70" height="37" as="geometry" />
        </mxCell>
        <mxCell id="LbR-n3zfD15C_6hWRWTA-33" value="Library 2" style="rounded=1;whiteSpace=wrap;html=1;shadow=0;labelBackgroundColor=none;strokeWidth=1;fontFamily=Verdana;fontSize=8;align=center;fillColor=#ffe6cc;strokeColor=#d79b00;" vertex="1" parent="LbR-n3zfD15C_6hWRWTA-14">
          <mxGeometry x="230" y="49.99999999999996" width="70" height="37" as="geometry" />
        </mxCell>
        <mxCell id="LbR-n3zfD15C_6hWRWTA-26" value="USE" style="edgeStyle=orthogonalEdgeStyle;rounded=0;html=1;labelBackgroundColor=none;startArrow=none;startFill=0;startSize=5;endArrow=classic;endFill=1;endSize=5;jettySize=auto;orthogonalLoop=1;strokeWidth=1;fontFamily=Verdana;fontSize=8" edge="1" parent="x3alznxt2rm3ecylXqy4-1" source="LbR-n3zfD15C_6hWRWTA-5" target="LbR-n3zfD15C_6hWRWTA-16">
          <mxGeometry x="-0.108" y="13" relative="1" as="geometry">
            <mxPoint as="offset" />
          </mxGeometry>
        </mxCell>
        <mxCell id="LbR-n3zfD15C_6hWRWTA-34" value="USE" style="edgeStyle=orthogonalEdgeStyle;rounded=0;orthogonalLoop=1;jettySize=auto;html=1;fontSize=8;" edge="1" parent="x3alznxt2rm3ecylXqy4-1" source="LbR-n3zfD15C_6hWRWTA-7" target="LbR-n3zfD15C_6hWRWTA-33">
          <mxGeometry x="-0.1268" y="15" relative="1" as="geometry">
            <mxPoint as="offset" />
          </mxGeometry>
        </mxCell>
        <mxCell id="LbR-n3zfD15C_6hWRWTA-35" style="edgeStyle=orthogonalEdgeStyle;rounded=0;orthogonalLoop=1;jettySize=auto;html=1;entryX=0.75;entryY=0;entryDx=0;entryDy=0;" edge="1" parent="x3alznxt2rm3ecylXqy4-1" source="LbR-n3zfD15C_6hWRWTA-7" target="LbR-n3zfD15C_6hWRWTA-16">
          <mxGeometry relative="1" as="geometry">
            <Array as="points">
              <mxPoint x="285" y="210" />
              <mxPoint x="193" y="210" />
            </Array>
          </mxGeometry>
        </mxCell>
      </root>
    </mxGraphModel>
  </diagram>
  <diagram name="ioc-flow" id="WZD4zhQimNFYiZPPxa7J">
    <mxGraphModel dx="570" dy="384" grid="0" gridSize="10" guides="1" tooltips="1" connect="1" arrows="1" fold="1" page="0" pageScale="1" pageWidth="850" pageHeight="1100" math="0" shadow="0">
      <root>
        <mxCell id="y-W_2nSDuF_RlGpkMTIX-0" />
        <mxCell id="y-W_2nSDuF_RlGpkMTIX-1" parent="y-W_2nSDuF_RlGpkMTIX-0" />
        <mxCell id="y-W_2nSDuF_RlGpkMTIX-2" value="IoC flow" style="swimlane;html=1;childLayout=stackLayout;horizontal=1;startSize=20;horizontalStack=0;rounded=0;shadow=0;labelBackgroundColor=none;strokeWidth=1;fontFamily=Verdana;fontSize=8;align=center;container=0;fillColor=#f5f5f5;fontColor=#333333;strokeColor=#666666;" vertex="1" parent="y-W_2nSDuF_RlGpkMTIX-1">
          <mxGeometry x="20" y="20" width="372" height="284" as="geometry" />
        </mxCell>
        <mxCell id="y-W_2nSDuF_RlGpkMTIX-3" value="Spring" style="swimlane;html=1;startSize=20;horizontal=0;collapsible=0;fillColor=#dae8fc;strokeColor=#6c8ebf;" vertex="1" parent="y-W_2nSDuF_RlGpkMTIX-1">
          <mxGeometry x="20" y="40" width="372" height="150" as="geometry" />
        </mxCell>
        <mxCell id="y-W_2nSDuF_RlGpkMTIX-4" style="edgeStyle=orthogonalEdgeStyle;rounded=0;html=1;labelBackgroundColor=none;startArrow=none;startFill=0;startSize=5;endArrow=classicThin;endFill=1;endSize=5;jettySize=auto;orthogonalLoop=1;strokeWidth=1;fontFamily=Verdana;fontSize=8" edge="1" parent="y-W_2nSDuF_RlGpkMTIX-3" source="y-W_2nSDuF_RlGpkMTIX-5" target="y-W_2nSDuF_RlGpkMTIX-7">
          <mxGeometry relative="1" as="geometry" />
        </mxCell>
        <mxCell id="y-W_2nSDuF_RlGpkMTIX-5" value="" style="ellipse;whiteSpace=wrap;html=1;rounded=0;shadow=0;labelBackgroundColor=none;strokeWidth=1;fontFamily=Verdana;fontSize=8;align=center;" vertex="1" parent="y-W_2nSDuF_RlGpkMTIX-3">
          <mxGeometry x="31" y="60" width="30" height="30" as="geometry" />
        </mxCell>
        <mxCell id="y-W_2nSDuF_RlGpkMTIX-7" value="Spring IoC Container" style="rounded=1;whiteSpace=wrap;html=1;shadow=0;labelBackgroundColor=none;strokeWidth=1;fontFamily=Verdana;fontSize=8;align=center;fillColor=#f5f5f5;fontColor=#333333;strokeColor=#666666;" vertex="1" parent="y-W_2nSDuF_RlGpkMTIX-3">
          <mxGeometry x="91" y="56.49999999999997" width="70" height="37" as="geometry" />
        </mxCell>
        <mxCell id="y-W_2nSDuF_RlGpkMTIX-10" value="" style="ellipse;whiteSpace=wrap;html=1;rounded=0;shadow=0;labelBackgroundColor=none;strokeWidth=2;fontFamily=Verdana;fontSize=8;align=center;" vertex="1" parent="y-W_2nSDuF_RlGpkMTIX-3">
          <mxGeometry x="330" y="60" width="30" height="30" as="geometry" />
        </mxCell>
        <mxCell id="y-W_2nSDuF_RlGpkMTIX-11" value="Application" style="swimlane;html=1;startSize=20;horizontal=0;collapsible=0;fillColor=#ffe6cc;strokeColor=#d79b00;" vertex="1" parent="y-W_2nSDuF_RlGpkMTIX-1">
          <mxGeometry x="20" y="190" width="372" height="114" as="geometry" />
        </mxCell>
        <mxCell id="y-W_2nSDuF_RlGpkMTIX-12" value="Action 1" style="rounded=1;whiteSpace=wrap;html=1;shadow=0;labelBackgroundColor=none;strokeWidth=1;fontFamily=Verdana;fontSize=8;align=center;fillColor=#ffe6cc;strokeColor=#d79b00;" vertex="1" parent="y-W_2nSDuF_RlGpkMTIX-11">
          <mxGeometry x="74" y="49.99999999999996" width="70" height="37" as="geometry" />
        </mxCell>
        <mxCell id="y-W_2nSDuF_RlGpkMTIX-13" value="Action 2" style="rounded=1;whiteSpace=wrap;html=1;shadow=0;labelBackgroundColor=none;strokeWidth=1;fontFamily=Verdana;fontSize=8;align=center;fillColor=#ffe6cc;strokeColor=#d79b00;" vertex="1" parent="y-W_2nSDuF_RlGpkMTIX-11">
          <mxGeometry x="164" y="49.99999999999996" width="70" height="37" as="geometry" />
        </mxCell>
        <mxCell id="hwa2oEtLnCjD5h7zlIxc-0" value="Action 3" style="rounded=1;whiteSpace=wrap;html=1;shadow=0;labelBackgroundColor=none;strokeWidth=1;fontFamily=Verdana;fontSize=8;align=center;fillColor=#ffe6cc;strokeColor=#d79b00;" vertex="1" parent="y-W_2nSDuF_RlGpkMTIX-11">
          <mxGeometry x="255" y="49.99999999999996" width="70" height="37" as="geometry" />
        </mxCell>
        <mxCell id="y-W_2nSDuF_RlGpkMTIX-14" value="DO" style="edgeStyle=orthogonalEdgeStyle;rounded=0;html=1;labelBackgroundColor=none;startArrow=classic;startFill=1;startSize=5;endArrow=classic;endFill=1;endSize=5;jettySize=auto;orthogonalLoop=1;strokeWidth=1;fontFamily=Verdana;fontSize=8;exitX=0.25;exitY=1;exitDx=0;exitDy=0;" edge="1" parent="y-W_2nSDuF_RlGpkMTIX-1" source="y-W_2nSDuF_RlGpkMTIX-7" target="y-W_2nSDuF_RlGpkMTIX-12">
          <mxGeometry x="0.813" y="-13" relative="1" as="geometry">
            <mxPoint as="offset" />
          </mxGeometry>
        </mxCell>
        <mxCell id="hwa2oEtLnCjD5h7zlIxc-1" value="DO" style="edgeStyle=orthogonalEdgeStyle;rounded=0;orthogonalLoop=1;jettySize=auto;html=1;entryX=0.5;entryY=0;entryDx=0;entryDy=0;startArrow=classic;startFill=1;fontSize=8;" edge="1" parent="y-W_2nSDuF_RlGpkMTIX-1" source="y-W_2nSDuF_RlGpkMTIX-7" target="y-W_2nSDuF_RlGpkMTIX-13">
          <mxGeometry x="0.8528" y="-15" relative="1" as="geometry">
            <mxPoint as="offset" />
          </mxGeometry>
        </mxCell>
        <mxCell id="hwa2oEtLnCjD5h7zlIxc-2" value="DO" style="edgeStyle=orthogonalEdgeStyle;rounded=0;orthogonalLoop=1;jettySize=auto;html=1;exitX=1;exitY=0.5;exitDx=0;exitDy=0;startArrow=classic;startFill=1;entryX=0.5;entryY=0;entryDx=0;entryDy=0;fontSize=8;" edge="1" parent="y-W_2nSDuF_RlGpkMTIX-1" source="y-W_2nSDuF_RlGpkMTIX-7" target="hwa2oEtLnCjD5h7zlIxc-0">
          <mxGeometry x="0.9291" y="-12" relative="1" as="geometry">
            <Array as="points">
              <mxPoint x="310" y="115" />
            </Array>
            <mxPoint as="offset" />
          </mxGeometry>
        </mxCell>
        <mxCell id="hwa2oEtLnCjD5h7zlIxc-3" style="edgeStyle=orthogonalEdgeStyle;rounded=0;orthogonalLoop=1;jettySize=auto;html=1;exitX=1;exitY=0.5;exitDx=0;exitDy=0;entryX=0.5;entryY=1;entryDx=0;entryDy=0;" edge="1" parent="y-W_2nSDuF_RlGpkMTIX-1" source="hwa2oEtLnCjD5h7zlIxc-0" target="y-W_2nSDuF_RlGpkMTIX-10">
          <mxGeometry relative="1" as="geometry" />
        </mxCell>
      </root>
    </mxGraphModel>
  </diagram>
  <diagram id="4-lheCxDtIu7l5kDtOVm" name="reflection">
    <mxGraphModel dx="1570" dy="1229" grid="0" gridSize="10" guides="1" tooltips="1" connect="1" arrows="1" fold="1" page="0" pageScale="1" pageWidth="850" pageHeight="1100" math="0" shadow="0">
      <root>
        <mxCell id="0" />
        <mxCell id="1" parent="0" />
        <mxCell id="5Vnab7lavzxlwCKH6IW2-3" style="edgeStyle=orthogonalEdgeStyle;rounded=0;orthogonalLoop=1;jettySize=auto;html=1;entryX=0;entryY=0.5;entryDx=0;entryDy=0;fillColor=#d5e8d4;strokeColor=#82b366;" parent="1" source="5Vnab7lavzxlwCKH6IW2-1" target="5Vnab7lavzxlwCKH6IW2-2" edge="1">
          <mxGeometry relative="1" as="geometry" />
        </mxCell>
        <mxCell id="5Vnab7lavzxlwCKH6IW2-1" value="&lt;div&gt;&lt;span style=&quot;background-color: transparent; color: light-dark(rgb(0, 0, 0), rgb(255, 255, 255));&quot;&gt;&amp;lt;bean id=&quot;planeFactory&quot; class=&quot;&lt;/span&gt;&lt;b style=&quot;background-color: transparent;&quot;&gt;&lt;font style=&quot;color: light-dark(rgb(204, 0, 102), rgb(255, 255, 255));&quot;&gt;pawg.cmd.beans.PlaneFactory&lt;/font&gt;&lt;/b&gt;&lt;span style=&quot;background-color: transparent; color: light-dark(rgb(0, 0, 0), rgb(255, 255, 255));&quot;&gt;&quot; factory-method=&quot;&lt;b&gt;getInstance&lt;/b&gt;&quot; /&amp;gt;&lt;/span&gt;&lt;/div&gt;" style="text;html=1;align=left;verticalAlign=top;whiteSpace=wrap;rounded=0;fillColor=#d5e8d4;strokeColor=#82b366;" parent="1" vertex="1">
          <mxGeometry x="128" y="194" width="537" height="26" as="geometry" />
        </mxCell>
        <mxCell id="5Vnab7lavzxlwCKH6IW2-12" style="edgeStyle=orthogonalEdgeStyle;rounded=0;orthogonalLoop=1;jettySize=auto;html=1;exitX=1;exitY=0.25;exitDx=0;exitDy=0;entryX=0;entryY=0.5;entryDx=0;entryDy=0;fillColor=#dae8fc;strokeColor=#6c8ebf;strokeWidth=2;" parent="1" source="5Vnab7lavzxlwCKH6IW2-2" target="5Vnab7lavzxlwCKH6IW2-8" edge="1">
          <mxGeometry relative="1" as="geometry">
            <Array as="points">
              <mxPoint x="956" y="147" />
              <mxPoint x="956" y="-106" />
            </Array>
          </mxGeometry>
        </mxCell>
        <mxCell id="5Vnab7lavzxlwCKH6IW2-13" style="edgeStyle=orthogonalEdgeStyle;rounded=0;orthogonalLoop=1;jettySize=auto;html=1;exitX=1;exitY=0.5;exitDx=0;exitDy=0;entryX=0;entryY=0.5;entryDx=0;entryDy=0;fillColor=#d5e8d4;strokeColor=#82b366;strokeWidth=2;" parent="1" source="5Vnab7lavzxlwCKH6IW2-2" target="5Vnab7lavzxlwCKH6IW2-9" edge="1">
          <mxGeometry relative="1" as="geometry" />
        </mxCell>
        <mxCell id="5Vnab7lavzxlwCKH6IW2-14" style="edgeStyle=orthogonalEdgeStyle;rounded=0;orthogonalLoop=1;jettySize=auto;html=1;exitX=1.001;exitY=0.608;exitDx=0;exitDy=0;fillColor=#ffe6cc;strokeColor=#d79b00;strokeWidth=2;exitPerimeter=0;" parent="1" source="5Vnab7lavzxlwCKH6IW2-2" target="5Vnab7lavzxlwCKH6IW2-10" edge="1">
          <mxGeometry relative="1" as="geometry">
            <Array as="points">
              <mxPoint x="1024" y="234" />
              <mxPoint x="1024" y="291" />
            </Array>
          </mxGeometry>
        </mxCell>
        <mxCell id="5Vnab7lavzxlwCKH6IW2-15" style="edgeStyle=orthogonalEdgeStyle;rounded=0;orthogonalLoop=1;jettySize=auto;html=1;exitX=1;exitY=0.75;exitDx=0;exitDy=0;entryX=0;entryY=0.5;entryDx=0;entryDy=0;fillColor=#e1d5e7;strokeColor=#9673a6;strokeWidth=2;" parent="1" source="5Vnab7lavzxlwCKH6IW2-2" target="5Vnab7lavzxlwCKH6IW2-11" edge="1">
          <mxGeometry relative="1" as="geometry">
            <Array as="points">
              <mxPoint x="1008" y="268" />
              <mxPoint x="1008" y="501" />
            </Array>
          </mxGeometry>
        </mxCell>
        <mxCell id="5Vnab7lavzxlwCKH6IW2-2" value="&lt;b&gt;&lt;font style=&quot;font-size: 19px; color: rgb(255, 0, 0);&quot;&gt;Runtime Reflection&lt;/font&gt;&lt;/b&gt;&lt;div&gt;&lt;br&gt;&lt;/div&gt;&lt;div&gt;&lt;br&gt;&lt;/div&gt;&lt;div&gt;Uses the&amp;nbsp;&lt;b&gt;class&lt;/b&gt; attribute from the&amp;nbsp;&lt;b&gt;bean&lt;/b&gt; definition to instantiate&lt;/div&gt;&lt;div&gt;a Spring Bean, and other attributes to properly choose the instantiation strategy.&lt;/div&gt;" style="rounded=1;whiteSpace=wrap;html=1;verticalAlign=top;fillColor=#f5f5f5;fontColor=#333333;strokeColor=#666666;" parent="1" vertex="1">
          <mxGeometry x="712" y="87" width="227" height="241" as="geometry" />
        </mxCell>
        <mxCell id="5Vnab7lavzxlwCKH6IW2-7" style="edgeStyle=orthogonalEdgeStyle;rounded=0;orthogonalLoop=1;jettySize=auto;html=1;entryX=0;entryY=0.25;entryDx=0;entryDy=0;fillColor=#dae8fc;strokeColor=#6c8ebf;" parent="1" source="5Vnab7lavzxlwCKH6IW2-4" target="5Vnab7lavzxlwCKH6IW2-2" edge="1">
          <mxGeometry relative="1" as="geometry" />
        </mxCell>
        <mxCell id="5Vnab7lavzxlwCKH6IW2-4" value="&lt;div&gt;&amp;lt;bean id=&quot;factoryService&quot; class=&quot;&lt;b&gt;&lt;font style=&quot;color: rgb(204, 0, 102);&quot;&gt;pawg.cmd.beans.FactoryService&lt;/font&gt;&lt;/b&gt;&quot; /&amp;gt;&lt;/div&gt;" style="text;html=1;align=left;verticalAlign=top;whiteSpace=wrap;rounded=0;fillColor=#dae8fc;strokeColor=#6c8ebf;" parent="1" vertex="1">
          <mxGeometry x="270" y="132" width="395" height="29" as="geometry" />
        </mxCell>
        <mxCell id="5Vnab7lavzxlwCKH6IW2-6" style="edgeStyle=orthogonalEdgeStyle;rounded=0;orthogonalLoop=1;jettySize=auto;html=1;entryX=0;entryY=0.75;entryDx=0;entryDy=0;fillColor=#ffe6cc;strokeColor=#d79b00;" parent="1" source="5Vnab7lavzxlwCKH6IW2-5" target="5Vnab7lavzxlwCKH6IW2-2" edge="1">
          <mxGeometry relative="1" as="geometry" />
        </mxCell>
        <mxCell id="5Vnab7lavzxlwCKH6IW2-5" value="&lt;div&gt;&lt;span style=&quot;background-color: transparent; color: light-dark(rgb(0, 0, 0), rgb(255, 255, 255));&quot;&gt;&amp;lt;bean id=&quot;printService&quot; class=&quot;&lt;/span&gt;&lt;b style=&quot;background-color: transparent;&quot;&gt;&lt;font style=&quot;color: light-dark(rgb(204, 0, 102), rgb(255, 255, 255));&quot;&gt;pawg.cmd.beans.PrintService&lt;/font&gt;&lt;/b&gt;&lt;span style=&quot;background-color: transparent; color: light-dark(rgb(0, 0, 0), rgb(255, 255, 255));&quot;&gt;&quot; init-method=&quot;&lt;b&gt;awesomeInit&lt;/b&gt;&quot; /&amp;gt;&lt;/span&gt;&lt;/div&gt;" style="text;html=1;align=left;verticalAlign=top;whiteSpace=wrap;rounded=0;fillColor=#ffe6cc;strokeColor=#d79b00;" parent="1" vertex="1">
          <mxGeometry x="158" y="255" width="507" height="25" as="geometry" />
        </mxCell>
        <mxCell id="5Vnab7lavzxlwCKH6IW2-8" value="&lt;b&gt;&lt;font style=&quot;font-size: 19px; color: rgb(0, 0, 0);&quot;&gt;Reflection - constructor&lt;/font&gt;&lt;font style=&quot;font-size: 19px; color: rgb(255, 0, 0);&quot;&gt;&amp;nbsp;&lt;/font&gt;&lt;/b&gt;&lt;div&gt;&lt;br&gt;&lt;/div&gt;&lt;div&gt;&lt;div style=&quot;text-align: left;&quot;&gt;Class&amp;lt;?&amp;gt; _clazz = Class.forName(&quot;&lt;b&gt;&lt;font style=&quot;color: rgb(204, 0, 102);&quot;&gt;pawg.cmd.beans.FactoryService&lt;/font&gt;&lt;/b&gt;&quot;);&lt;/div&gt;&lt;div style=&quot;text-align: left;&quot;&gt;Constructor&amp;lt;?&amp;gt;[] declaredConstructors = _clazz.getDeclaredConstructors();&lt;/div&gt;&lt;div style=&quot;text-align: left;&quot;&gt;declaredConstructors[0].setAccessible(true);&lt;/div&gt;&lt;div style=&quot;text-align: left;&quot;&gt;&lt;br&gt;&lt;/div&gt;&lt;div style=&quot;text-align: left;&quot;&gt;Object obj = declaredConstructors[0].newInstance();&lt;/div&gt;&lt;div style=&quot;text-align: left;&quot;&gt;&lt;br&gt;&lt;/div&gt;&lt;div style=&quot;text-align: left;&quot;&gt;_clazz.cast(method.invoke(obj));&lt;/div&gt;&lt;/div&gt;" style="rounded=1;whiteSpace=wrap;html=1;verticalAlign=top;fillColor=#dae8fc;strokeColor=#6c8ebf;" parent="1" vertex="1">
          <mxGeometry x="1107" y="-186" width="419" height="160" as="geometry" />
        </mxCell>
        <mxCell id="5Vnab7lavzxlwCKH6IW2-9" value="&lt;b&gt;&lt;font style=&quot;font-size: 19px; color: rgb(0, 0, 0);&quot;&gt;Reflection - factory method&lt;/font&gt;&lt;font style=&quot;font-size: 19px; color: rgb(255, 0, 0);&quot;&gt;&amp;nbsp;&lt;/font&gt;&lt;/b&gt;&lt;div&gt;&lt;br&gt;&lt;/div&gt;&lt;div&gt;&lt;div style=&quot;text-align: left;&quot;&gt;&lt;div&gt;Class&amp;lt;?&amp;gt; _clazz = Class.forName(&quot;&lt;b style=&quot;background-color: transparent;&quot;&gt;&lt;font style=&quot;color: light-dark(rgb(204, 0, 102), rgb(255, 255, 255));&quot;&gt;pawg.cmd.beans.PlaneFactory&lt;/font&gt;&lt;/b&gt;&quot;);&lt;/div&gt;&lt;div&gt;&lt;div&gt;&lt;br&gt;&lt;/div&gt;&lt;div&gt;Constructor&amp;lt;?&amp;gt;[] declaredConstructors = _clazz.getDeclaredConstructors();&lt;/div&gt;&lt;div&gt;declaredConstructors[0].setAccessible(true);&lt;/div&gt;&lt;div&gt;Object obj = declaredConstructors[0].newInstance();&lt;/div&gt;&lt;/div&gt;&lt;div&gt;&lt;br&gt;&lt;/div&gt;&lt;div&gt;Method method = _clazz.getMethod(&quot;&lt;b&gt;&lt;font style=&quot;color: rgb(204, 0, 102);&quot;&gt;getInstance&lt;/font&gt;&lt;/b&gt;&quot;);&lt;/div&gt;&lt;div&gt;&lt;br&gt;&lt;/div&gt;&lt;div&gt;_clazz.cast(method.invoke(obj));&lt;/div&gt;&lt;/div&gt;&lt;/div&gt;" style="rounded=1;whiteSpace=wrap;html=1;verticalAlign=top;fillColor=#d5e8d4;strokeColor=#82b366;" parent="1" vertex="1">
          <mxGeometry x="1108" y="-12" width="416" height="194" as="geometry" />
        </mxCell>
        <mxCell id="5Vnab7lavzxlwCKH6IW2-10" value="&lt;b&gt;&lt;font style=&quot;font-size: 19px; color: rgb(0, 0, 0);&quot;&gt;Reflection - init method&lt;/font&gt;&lt;/b&gt;&lt;div&gt;&lt;br&gt;&lt;/div&gt;&lt;div&gt;&lt;div style=&quot;text-align: left;&quot;&gt;&lt;div&gt;Class&amp;lt;?&amp;gt; _clazz = Class.forName(&quot;&lt;b style=&quot;background-color: transparent;&quot;&gt;&lt;font style=&quot;color: light-dark(rgb(204, 0, 102), rgb(255, 255, 255));&quot;&gt;pawg.cmd.beans.PrintService&lt;/font&gt;&lt;/b&gt;&quot;);&lt;/div&gt;&lt;div&gt;&lt;br&gt;&lt;/div&gt;&lt;div&gt;Constructor&amp;lt;?&amp;gt;[] declaredConstructors = _clazz.getDeclaredConstructors();&lt;/div&gt;&lt;div&gt;declaredConstructors[0].setAccessible(true);&lt;/div&gt;&lt;div&gt;Object obj = declaredConstructors[0].newInstance();&lt;/div&gt;&lt;div&gt;&lt;br&gt;&lt;/div&gt;&lt;div&gt;Method method = obj.getClass().getMethod(&quot;&lt;b&gt;&lt;font style=&quot;color: rgb(204, 0, 102);&quot;&gt;awesomeInit&lt;/font&gt;&lt;/b&gt;&quot;);&lt;/div&gt;&lt;div&gt;&lt;br&gt;&lt;/div&gt;&lt;div&gt;_clazz.cast(method.invoke(obj));&lt;/div&gt;&lt;/div&gt;&lt;/div&gt;" style="rounded=1;whiteSpace=wrap;html=1;verticalAlign=top;fillColor=#ffe6cc;strokeColor=#d79b00;" parent="1" vertex="1">
          <mxGeometry x="1108" y="198" width="418" height="186" as="geometry" />
        </mxCell>
        <mxCell id="5Vnab7lavzxlwCKH6IW2-11" value="&lt;b&gt;&lt;font style=&quot;font-size: 19px; color: rgb(0, 0, 0);&quot;&gt;Reflection - &lt;i style=&quot;&quot;&gt;FactoryBean.getObject&lt;/i&gt;&lt;/font&gt;&lt;/b&gt;&lt;div&gt;&lt;br&gt;&lt;/div&gt;&lt;div&gt;&lt;div style=&quot;text-align: left;&quot;&gt;&lt;div&gt;Class&amp;lt;?&amp;gt; _clazz = Class.forName(&quot;&lt;b style=&quot;background-color: transparent;&quot;&gt;&lt;font style=&quot;color: light-dark(rgb(204, 0, 102), rgb(255, 255, 255));&quot;&gt;pawg.cmd.beans.PrintService&lt;/font&gt;&lt;/b&gt;&quot;);&lt;/div&gt;&lt;div&gt;&lt;div&gt;&lt;br&gt;&lt;/div&gt;&lt;div&gt;Constructor&amp;lt;?&amp;gt;[] declaredConstructors = _clazz.getDeclaredConstructors();&lt;/div&gt;&lt;div&gt;declaredConstructors[0].setAccessible(true);&lt;/div&gt;&lt;div&gt;Object obj = declaredConstructors[0].newInstance();&lt;/div&gt;&lt;/div&gt;&lt;div&gt;&lt;br&gt;&lt;/div&gt;&lt;div&gt;&lt;div&gt;if (_clazz.isInstance(&lt;b&gt;&lt;font style=&quot;color: rgb(204, 0, 102);&quot;&gt;FactoryBean.class&lt;/font&gt;&lt;/b&gt;)) {&lt;/div&gt;&lt;div&gt;&lt;span style=&quot;background-color: transparent; color: light-dark(rgb(0, 0, 0), rgb(255, 255, 255));&quot;&gt;&amp;nbsp; &amp;nbsp; Method method = _clazz.getMethod(&quot;&lt;/span&gt;&lt;b style=&quot;background-color: transparent;&quot;&gt;&lt;font style=&quot;color: light-dark(rgb(204, 0, 102), rgb(255, 255, 255));&quot;&gt;getObject&lt;/font&gt;&lt;/b&gt;&lt;span style=&quot;background-color: transparent; color: light-dark(rgb(0, 0, 0), rgb(255, 255, 255));&quot;&gt;&quot;);&lt;/span&gt;&lt;/div&gt;&lt;div&gt;}&lt;/div&gt;&lt;/div&gt;&lt;div&gt;&lt;span style=&quot;background-color: transparent; color: light-dark(rgb(0, 0, 0), rgb(255, 255, 255));&quot;&gt;_clazz.cast(method.invoke(obj));&lt;/span&gt;&lt;/div&gt;&lt;/div&gt;&lt;/div&gt;" style="rounded=1;whiteSpace=wrap;html=1;verticalAlign=top;fillColor=#e1d5e7;strokeColor=#9673a6;" parent="1" vertex="1">
          <mxGeometry x="1107" y="397" width="418" height="208" as="geometry" />
        </mxCell>
      </root>
    </mxGraphModel>
  </diagram>
  <diagram name="circular-dependency" id="DIpes5r57danaESNG-Yf">
    <mxGraphModel dx="1245" dy="1275" grid="0" gridSize="10" guides="1" tooltips="1" connect="1" arrows="1" fold="1" page="0" pageScale="1" pageWidth="850" pageHeight="1100" math="0" shadow="0">
      <root>
        <mxCell id="mT9FR2EUE-cv_ySxZbWZ-0" />
        <mxCell id="mT9FR2EUE-cv_ySxZbWZ-1" parent="mT9FR2EUE-cv_ySxZbWZ-0" />
        <mxCell id="LSjF1wN9ZkFp1Qhtptiw-9" value="" style="edgeStyle=orthogonalEdgeStyle;rounded=0;orthogonalLoop=1;jettySize=auto;html=1;dashed=1;dashPattern=8 8;" parent="mT9FR2EUE-cv_ySxZbWZ-1" source="LSjF1wN9ZkFp1Qhtptiw-0" target="LSjF1wN9ZkFp1Qhtptiw-2" edge="1">
          <mxGeometry relative="1" as="geometry" />
        </mxCell>
        <mxCell id="LSjF1wN9ZkFp1Qhtptiw-10" style="rounded=0;orthogonalLoop=1;jettySize=auto;html=1;entryX=0;entryY=0.5;entryDx=0;entryDy=0;exitX=1;exitY=0.5;exitDx=0;exitDy=0;dashed=1;dashPattern=8 8;" parent="mT9FR2EUE-cv_ySxZbWZ-1" source="LSjF1wN9ZkFp1Qhtptiw-0" target="LSjF1wN9ZkFp1Qhtptiw-3" edge="1">
          <mxGeometry relative="1" as="geometry" />
        </mxCell>
        <mxCell id="LSjF1wN9ZkFp1Qhtptiw-0" value="Controller A" style="rounded=1;whiteSpace=wrap;html=1;fillColor=#f5f5f5;fontColor=#333333;strokeColor=#666666;" parent="mT9FR2EUE-cv_ySxZbWZ-1" vertex="1">
          <mxGeometry x="731" y="-75" width="120" height="60" as="geometry" />
        </mxCell>
        <mxCell id="LSjF1wN9ZkFp1Qhtptiw-1" value="Repo A" style="shape=hexagon;perimeter=hexagonPerimeter2;whiteSpace=wrap;html=1;fixedSize=1;fillColor=#bac8d3;strokeColor=#23445d;" parent="mT9FR2EUE-cv_ySxZbWZ-1" vertex="1">
          <mxGeometry x="1181" y="-85" width="120" height="80" as="geometry" />
        </mxCell>
        <mxCell id="LSjF1wN9ZkFp1Qhtptiw-11" style="edgeStyle=orthogonalEdgeStyle;rounded=0;orthogonalLoop=1;jettySize=auto;html=1;exitX=0.5;exitY=1;exitDx=0;exitDy=0;entryX=0.5;entryY=0;entryDx=0;entryDy=0;fillColor=#6a00ff;strokeColor=#3700CC;strokeWidth=3;" parent="mT9FR2EUE-cv_ySxZbWZ-1" source="LSjF1wN9ZkFp1Qhtptiw-2" target="LSjF1wN9ZkFp1Qhtptiw-3" edge="1">
          <mxGeometry relative="1" as="geometry" />
        </mxCell>
        <mxCell id="LSjF1wN9ZkFp1Qhtptiw-19" style="edgeStyle=orthogonalEdgeStyle;rounded=0;orthogonalLoop=1;jettySize=auto;html=1;entryX=0;entryY=0.5;entryDx=0;entryDy=0;dashed=1;dashPattern=8 8;" parent="mT9FR2EUE-cv_ySxZbWZ-1" source="LSjF1wN9ZkFp1Qhtptiw-2" target="LSjF1wN9ZkFp1Qhtptiw-1" edge="1">
          <mxGeometry relative="1" as="geometry" />
        </mxCell>
        <mxCell id="LSjF1wN9ZkFp1Qhtptiw-2" value="Service A" style="ellipse;whiteSpace=wrap;html=1;fillColor=#d0cee2;strokeColor=#56517e;" parent="mT9FR2EUE-cv_ySxZbWZ-1" vertex="1">
          <mxGeometry x="946" y="-85" width="120" height="80" as="geometry" />
        </mxCell>
        <mxCell id="LSjF1wN9ZkFp1Qhtptiw-12" style="edgeStyle=orthogonalEdgeStyle;rounded=0;orthogonalLoop=1;jettySize=auto;html=1;entryX=0.5;entryY=0;entryDx=0;entryDy=0;fillColor=#6a00ff;strokeColor=#3700CC;strokeWidth=3;" parent="mT9FR2EUE-cv_ySxZbWZ-1" source="LSjF1wN9ZkFp1Qhtptiw-3" target="LSjF1wN9ZkFp1Qhtptiw-4" edge="1">
          <mxGeometry relative="1" as="geometry" />
        </mxCell>
        <mxCell id="LSjF1wN9ZkFp1Qhtptiw-16" value="" style="edgeStyle=orthogonalEdgeStyle;rounded=0;orthogonalLoop=1;jettySize=auto;html=1;dashed=1;dashPattern=8 8;" parent="mT9FR2EUE-cv_ySxZbWZ-1" source="LSjF1wN9ZkFp1Qhtptiw-3" target="LSjF1wN9ZkFp1Qhtptiw-5" edge="1">
          <mxGeometry relative="1" as="geometry" />
        </mxCell>
        <mxCell id="LSjF1wN9ZkFp1Qhtptiw-3" value="Service B" style="ellipse;whiteSpace=wrap;html=1;fillColor=#d0cee2;strokeColor=#56517e;" parent="mT9FR2EUE-cv_ySxZbWZ-1" vertex="1">
          <mxGeometry x="946" y="75" width="120" height="80" as="geometry" />
        </mxCell>
        <mxCell id="LSjF1wN9ZkFp1Qhtptiw-13" style="edgeStyle=orthogonalEdgeStyle;rounded=0;orthogonalLoop=1;jettySize=auto;html=1;entryX=1;entryY=1;entryDx=0;entryDy=0;curved=1;exitX=1;exitY=0;exitDx=0;exitDy=0;fillColor=#6a00ff;strokeColor=#3700CC;strokeWidth=3;" parent="mT9FR2EUE-cv_ySxZbWZ-1" source="LSjF1wN9ZkFp1Qhtptiw-4" target="LSjF1wN9ZkFp1Qhtptiw-2" edge="1">
          <mxGeometry relative="1" as="geometry">
            <Array as="points">
              <mxPoint x="1122" y="256" />
              <mxPoint x="1122" y="-17" />
            </Array>
          </mxGeometry>
        </mxCell>
        <mxCell id="LSjF1wN9ZkFp1Qhtptiw-17" style="edgeStyle=orthogonalEdgeStyle;rounded=0;orthogonalLoop=1;jettySize=auto;html=1;entryX=0;entryY=0.5;entryDx=0;entryDy=0;startArrow=classic;startFill=1;fillColor=#d80073;strokeColor=#A50040;strokeWidth=3;" parent="mT9FR2EUE-cv_ySxZbWZ-1" source="LSjF1wN9ZkFp1Qhtptiw-4" target="LSjF1wN9ZkFp1Qhtptiw-6" edge="1">
          <mxGeometry relative="1" as="geometry" />
        </mxCell>
        <mxCell id="LSjF1wN9ZkFp1Qhtptiw-4" value="Service C" style="ellipse;whiteSpace=wrap;html=1;fillColor=#d0cee2;strokeColor=#56517e;" parent="mT9FR2EUE-cv_ySxZbWZ-1" vertex="1">
          <mxGeometry x="946" y="244" width="120" height="80" as="geometry" />
        </mxCell>
        <mxCell id="LSjF1wN9ZkFp1Qhtptiw-5" value="Repo B" style="shape=hexagon;perimeter=hexagonPerimeter2;whiteSpace=wrap;html=1;fixedSize=1;fillColor=#bac8d3;strokeColor=#23445d;" parent="mT9FR2EUE-cv_ySxZbWZ-1" vertex="1">
          <mxGeometry x="1181" y="75" width="120" height="80" as="geometry" />
        </mxCell>
        <mxCell id="LSjF1wN9ZkFp1Qhtptiw-6" value="Repo C" style="shape=hexagon;perimeter=hexagonPerimeter2;whiteSpace=wrap;html=1;fixedSize=1;fillColor=#bac8d3;strokeColor=#23445d;" parent="mT9FR2EUE-cv_ySxZbWZ-1" vertex="1">
          <mxGeometry x="1178" y="244" width="120" height="80" as="geometry" />
        </mxCell>
        <mxCell id="LSjF1wN9ZkFp1Qhtptiw-14" value="" style="edgeStyle=orthogonalEdgeStyle;rounded=0;orthogonalLoop=1;jettySize=auto;html=1;dashed=1;dashPattern=8 8;" parent="mT9FR2EUE-cv_ySxZbWZ-1" source="LSjF1wN9ZkFp1Qhtptiw-7" target="LSjF1wN9ZkFp1Qhtptiw-3" edge="1">
          <mxGeometry relative="1" as="geometry" />
        </mxCell>
        <mxCell id="LSjF1wN9ZkFp1Qhtptiw-7" value="Controller B" style="rounded=1;whiteSpace=wrap;html=1;fillColor=#f5f5f5;fontColor=#333333;strokeColor=#666666;" parent="mT9FR2EUE-cv_ySxZbWZ-1" vertex="1">
          <mxGeometry x="728" y="85" width="120" height="60" as="geometry" />
        </mxCell>
        <mxCell id="LSjF1wN9ZkFp1Qhtptiw-18" value="" style="edgeStyle=orthogonalEdgeStyle;rounded=0;orthogonalLoop=1;jettySize=auto;html=1;dashed=1;dashPattern=8 8;" parent="mT9FR2EUE-cv_ySxZbWZ-1" source="LSjF1wN9ZkFp1Qhtptiw-8" target="LSjF1wN9ZkFp1Qhtptiw-4" edge="1">
          <mxGeometry relative="1" as="geometry" />
        </mxCell>
        <mxCell id="LSjF1wN9ZkFp1Qhtptiw-8" value="Controller C" style="rounded=1;whiteSpace=wrap;html=1;fillColor=#f5f5f5;fontColor=#333333;strokeColor=#666666;" parent="mT9FR2EUE-cv_ySxZbWZ-1" vertex="1">
          <mxGeometry x="725" y="254" width="120" height="60" as="geometry" />
        </mxCell>
      </root>
    </mxGraphModel>
  </diagram>
  <diagram id="JCVkaimHeyg2MSwbSkol" name="spring-boot-concept">
    <mxGraphModel dx="2626" dy="1675" grid="0" gridSize="10" guides="1" tooltips="1" connect="1" arrows="1" fold="1" page="0" pageScale="1" pageWidth="850" pageHeight="1100" math="0" shadow="0">
      <root>
        <mxCell id="0" />
        <mxCell id="1" parent="0" />
        <mxCell id="fmwAh8O4zftSxRUUJ0St-2" value="&lt;div style=&quot;background-color: rgb(30, 31, 34); color: rgb(188, 190, 196);&quot;&gt;&lt;pre style=&quot;font-family: &amp;quot;Fira Code&amp;quot;, monospace;&quot;&gt;&lt;span style=&quot;color: rgb(53, 159, 244);&quot;&gt;&amp;lt;dependency&amp;gt;&lt;br&gt;&lt;/span&gt;&lt;span style=&quot;color: rgb(53, 159, 244);&quot;&gt;  &lt;/span&gt;&lt;span style=&quot;color: rgb(110, 126, 217);&quot;&gt;&amp;lt;groupId&amp;gt;&lt;/span&gt;&lt;font color=&quot;#bcbec4&quot;&gt;org.springframework.boot&lt;/font&gt;&lt;span style=&quot;color: rgb(110, 126, 217);&quot;&gt;&amp;lt;/groupId&amp;gt;&lt;br&gt;&lt;/span&gt;&lt;span style=&quot;color: rgb(110, 126, 217);&quot;&gt;  &amp;lt;artifactId&amp;gt;&lt;/span&gt;&lt;font color=&quot;#bcbec4&quot;&gt;spring-boot-starter-graphql&lt;/font&gt;&lt;span style=&quot;color: rgb(110, 126, 217);&quot;&gt;&amp;lt;/artifactId&amp;gt;&lt;br&gt;&lt;/span&gt;&lt;span style=&quot;color: rgb(53, 159, 244);&quot;&gt;&lt;font color=&quot;#359ff4&quot;&gt;&amp;lt;/dependency&amp;gt;&lt;br&gt;&amp;lt;dependency&amp;gt;&lt;br&gt;  &lt;/font&gt;&lt;span style=&quot;color: rgb(110, 126, 217); white-space: normal;&quot;&gt;&amp;lt;groupId&amp;gt;&lt;/span&gt;&lt;span style=&quot;color: rgb(188, 190, 196); white-space: normal;&quot;&gt;org.springframework.boot&lt;/span&gt;&lt;span style=&quot;color: rgb(110, 126, 217);&quot;&gt;&lt;font color=&quot;#6e7ed9&quot;&gt;&lt;span style=&quot;white-space: normal;&quot;&gt;&amp;lt;/groupId&amp;gt;&lt;br&gt;&lt;/span&gt;&lt;/font&gt;&lt;/span&gt;&lt;font color=&quot;#359ff4&quot;&gt;  &amp;lt;artifactId&amp;gt;&lt;/font&gt;&lt;span style=&quot;color: rgb(188, 190, 196); white-space: normal;&quot;&gt;spring-boot-starter-data-jpa&lt;/span&gt;&lt;span style=&quot;color: rgb(110, 126, 217);&quot;&gt;&lt;font color=&quot;#6e7ed9&quot;&gt;&lt;span style=&quot;white-space: normal;&quot;&gt;&amp;lt;/artifactId&amp;gt;&lt;br&gt;&lt;/span&gt;&lt;/font&gt;&lt;/span&gt;&lt;/span&gt;&lt;span style=&quot;color: rgb(53, 159, 244);&quot;&gt;&amp;lt;/dependency&amp;gt;&lt;br&gt;&amp;lt;dependency&amp;gt;&lt;br&gt;&lt;/span&gt;&lt;span style=&quot;color: rgb(53, 159, 244);&quot;&gt;  &lt;/span&gt;&lt;span style=&quot;color: rgb(110, 126, 217);&quot;&gt;&amp;lt;groupId&amp;gt;&lt;/span&gt;&lt;font color=&quot;#bcbec4&quot;&gt;org.springframework.boot&lt;/font&gt;&lt;span style=&quot;color: rgb(110, 126, 217);&quot;&gt;&amp;lt;/groupId&amp;gt;&lt;br&gt;&lt;/span&gt;&lt;span style=&quot;color: rgb(110, 126, 217);&quot;&gt;  &amp;lt;artifactId&amp;gt;&lt;/span&gt;&lt;font color=&quot;#bcbec4&quot;&gt;spring-boot-starter-web&lt;/font&gt;&lt;span style=&quot;color: rgb(110, 126, 217);&quot;&gt;&amp;lt;/artifactId&amp;gt;&lt;br&gt;&lt;/span&gt;&lt;span style=&quot;color: rgb(53, 159, 244);&quot;&gt;&amp;lt;/dependency&amp;gt;&lt;br&gt;&lt;/span&gt;&lt;span style=&quot;color: rgb(53, 159, 244);&quot;&gt;&amp;lt;dependency&amp;gt;&lt;br&gt;&lt;/span&gt;&lt;span style=&quot;color: rgb(53, 159, 244);&quot;&gt;  &lt;/span&gt;&lt;span style=&quot;color: rgb(110, 126, 217);&quot;&gt;&amp;lt;groupId&amp;gt;&lt;/span&gt;&lt;font color=&quot;#bcbec4&quot;&gt;org.springframework.boot&lt;/font&gt;&lt;span style=&quot;color: rgb(110, 126, 217);&quot;&gt;&amp;lt;/groupId&amp;gt;&lt;br&gt;&lt;/span&gt;&lt;span style=&quot;color: rgb(110, 126, 217);&quot;&gt;  &amp;lt;artifactId&amp;gt;&lt;/span&gt;&lt;font color=&quot;#bcbec4&quot;&gt;spring-boot-starter-websocket&lt;/font&gt;&lt;span style=&quot;color: rgb(110, 126, 217);&quot;&gt;&amp;lt;/artifactId&amp;gt;&lt;br&gt;&lt;/span&gt;&lt;span style=&quot;color: rgb(53, 159, 244);&quot;&gt;&amp;lt;/dependency&amp;gt;&lt;br&gt;&lt;/span&gt;&lt;span style=&quot;color: rgb(53, 159, 244);&quot;&gt;&amp;lt;dependency&amp;gt;&lt;br&gt;&lt;/span&gt;&lt;span style=&quot;color: rgb(53, 159, 244);&quot;&gt;  &lt;/span&gt;&lt;span style=&quot;color: rgb(110, 126, 217);&quot;&gt;&amp;lt;groupId&amp;gt;&lt;/span&gt;&lt;font color=&quot;#bcbec4&quot;&gt;org.springframework.boot&lt;/font&gt;&lt;span style=&quot;color: rgb(110, 126, 217);&quot;&gt;&amp;lt;/groupId&amp;gt;&lt;br&gt;&lt;/span&gt;&lt;span style=&quot;color: rgb(110, 126, 217);&quot;&gt;  &amp;lt;artifactId&amp;gt;&lt;/span&gt;&lt;font color=&quot;#bcbec4&quot;&gt;spring-boot-starter-actuator&lt;/font&gt;&lt;span style=&quot;color: rgb(110, 126, 217);&quot;&gt;&amp;lt;/artifactId&amp;gt;&lt;br&gt;&lt;/span&gt;&lt;span style=&quot;color: rgb(53, 159, 244);&quot;&gt;&amp;lt;/dependency&amp;gt;&lt;br&gt;&lt;/span&gt;&lt;/pre&gt;&lt;/div&gt;" style="rounded=1;whiteSpace=wrap;html=1;align=left;fontSize=16;points=[[0,0,0,0,0],[0,0.25,0,0,0],[0,0.5,0,0,0],[0,0.75,0,0,0],[0,1,0,0,0],[0.25,0,0,0,0],[0.25,1,0,0,0],[0.5,0,0,0,0],[0.5,0.05,0,0,0],[0.5,0.24,0,0,0],[0.5,0.43,0,0,0],[0.5,0.63,0,0,0],[0.5,1,0,0,0],[0.75,0,0,0,0],[0.75,1,0,0,0],[0.82,0.86,0,0,0],[1,0,0,0,0],[1,0.25,0,0,0],[1,0.5,0,0,0],[1,0.75,0,0,0],[1,1,0,0,0]];spacingLeft=2;strokeColor=none;" parent="1" vertex="1">
          <mxGeometry x="-533" y="-179" width="500" height="393" as="geometry" />
        </mxCell>
        <mxCell id="fmwAh8O4zftSxRUUJ0St-30" style="edgeStyle=orthogonalEdgeStyle;rounded=0;orthogonalLoop=1;jettySize=auto;html=1;entryX=1;entryY=0.5;entryDx=0;entryDy=0;curved=1;exitX=1;exitY=0.5;exitDx=0;exitDy=0;fillColor=#e1d5e7;strokeColor=#9673a6;strokeWidth=2;" parent="1" source="fmwAh8O4zftSxRUUJ0St-3" target="fmwAh8O4zftSxRUUJ0St-9" edge="1">
          <mxGeometry relative="1" as="geometry">
            <Array as="points">
              <mxPoint x="519" y="126" />
              <mxPoint x="841" y="126" />
              <mxPoint x="841" y="-21" />
            </Array>
          </mxGeometry>
        </mxCell>
        <mxCell id="fmwAh8O4zftSxRUUJ0St-31" style="edgeStyle=orthogonalEdgeStyle;rounded=0;orthogonalLoop=1;jettySize=auto;html=1;entryX=1;entryY=0.5;entryDx=0;entryDy=0;exitX=1;exitY=0.5;exitDx=0;exitDy=0;fillColor=#fff2cc;strokeColor=#d6b656;curved=1;strokeWidth=2;" parent="1" source="fmwAh8O4zftSxRUUJ0St-3" target="fmwAh8O4zftSxRUUJ0St-11" edge="1">
          <mxGeometry relative="1" as="geometry">
            <Array as="points">
              <mxPoint x="519" y="135" />
              <mxPoint x="885" y="135" />
              <mxPoint x="885" y="-157" />
            </Array>
          </mxGeometry>
        </mxCell>
        <mxCell id="fmwAh8O4zftSxRUUJ0St-32" style="edgeStyle=orthogonalEdgeStyle;rounded=0;orthogonalLoop=1;jettySize=auto;html=1;fillColor=#f8cecc;strokeColor=#b85450;curved=1;exitX=1;exitY=0.5;exitDx=0;exitDy=0;strokeWidth=2;" parent="1" source="fmwAh8O4zftSxRUUJ0St-3" target="fmwAh8O4zftSxRUUJ0St-10" edge="1">
          <mxGeometry relative="1" as="geometry">
            <Array as="points">
              <mxPoint x="519" y="166" />
              <mxPoint x="898" y="166" />
              <mxPoint x="898" y="-220" />
              <mxPoint x="866" y="-220" />
              <mxPoint x="866" y="-281" />
            </Array>
          </mxGeometry>
        </mxCell>
        <mxCell id="fmwAh8O4zftSxRUUJ0St-33" style="edgeStyle=orthogonalEdgeStyle;rounded=0;orthogonalLoop=1;jettySize=auto;html=1;entryX=1;entryY=0.5;entryDx=0;entryDy=0;exitX=1;exitY=0.5;exitDx=0;exitDy=0;fillColor=#d5e8d4;strokeColor=#82b366;curved=1;strokeWidth=2;" parent="1" source="fmwAh8O4zftSxRUUJ0St-3" target="fmwAh8O4zftSxRUUJ0St-8" edge="1">
          <mxGeometry relative="1" as="geometry">
            <Array as="points">
              <mxPoint x="519" y="175" />
              <mxPoint x="975" y="175" />
              <mxPoint x="975" y="-412" />
            </Array>
          </mxGeometry>
        </mxCell>
        <mxCell id="fmwAh8O4zftSxRUUJ0St-3" value="&lt;b&gt;spring-boot-autoconfigure&lt;/b&gt; -&amp;gt; META-INF -&amp;gt; spring -&amp;gt;&lt;br&gt;&lt;b&gt;&lt;font style=&quot;font-size: 14px; color: rgb(0, 185, 0);&quot;&gt;org.springframework.boot.autoconfigure.AutoConfiguration.imports&lt;/font&gt;&lt;/b&gt;" style="rounded=1;whiteSpace=wrap;html=1;align=left;" parent="1" vertex="1">
          <mxGeometry x="52" y="145" width="467" height="47" as="geometry" />
        </mxCell>
        <mxCell id="fmwAh8O4zftSxRUUJ0St-23" value="includes" style="rounded=0;orthogonalLoop=1;jettySize=auto;html=1;exitX=0.25;exitY=0;exitDx=0;exitDy=0;fillColor=#f0a30a;strokeColor=#BD7000;strokeWidth=2;entryX=0;entryY=0.5;entryDx=0;entryDy=0;" parent="1" source="fmwAh8O4zftSxRUUJ0St-7" target="fmwAh8O4zftSxRUUJ0St-18" edge="1">
          <mxGeometry relative="1" as="geometry" />
        </mxCell>
        <mxCell id="fmwAh8O4zftSxRUUJ0St-7" value="&lt;b&gt;&lt;font style=&quot;color: rgb(204, 0, 0);&quot;&gt;&amp;nbsp; spring-boot-actuator-autoconfigure&lt;/font&gt;&lt;/b&gt; -&amp;gt; META-INF -&amp;gt; spring -&amp;gt; &lt;br&gt;&lt;div style=&quot;&quot;&gt;&lt;b style=&quot;background-color: transparent; color: light-dark(rgb(51, 51, 51), rgb(193, 193, 193));&quot;&gt;&lt;font style=&quot;font-size: 14px; color: rgb(0, 185, 0);&quot;&gt;&amp;nbsp; org.springframework.boot.autoconfigure.AutoConfiguration.imports&lt;/font&gt;&lt;/b&gt;&lt;/div&gt;" style="rounded=1;whiteSpace=wrap;html=1;fillColor=#f5f5f5;fontColor=#333333;strokeColor=#666666;align=left;" parent="1" vertex="1">
          <mxGeometry x="323" y="64" width="467" height="44" as="geometry" />
        </mxCell>
        <mxCell id="fmwAh8O4zftSxRUUJ0St-13" style="rounded=0;orthogonalLoop=1;jettySize=auto;html=1;exitX=0.117;exitY=0.995;exitDx=0;exitDy=0;anchorPointDirection=1;entryX=0.5;entryY=0.05;entryDx=0;entryDy=0;entryPerimeter=0;fillColor=#d5e8d4;strokeColor=#82b366;strokeWidth=3;exitPerimeter=0;" parent="1" source="fmwAh8O4zftSxRUUJ0St-8" target="fmwAh8O4zftSxRUUJ0St-2" edge="1">
          <mxGeometry relative="1" as="geometry">
            <mxPoint x="-140" y="-250" as="targetPoint" />
          </mxGeometry>
        </mxCell>
        <mxCell id="fmwAh8O4zftSxRUUJ0St-8" value="&lt;div style=&quot;background-color:#1e1f22;color:#bcbec4&quot;&gt;&lt;pre style=&quot;font-family:&#39;Fira Code&#39;,monospace;font-size:11.3pt;&quot;&gt;&lt;div&gt;&lt;pre style=&quot;font-family:&#39;Fira Code&#39;,monospace;font-size:11.3pt;&quot;&gt;org.springframework.boot.autoconfigure.graphql.GraphQlAutoConfiguration&lt;br&gt;org.springframework.boot.autoconfigure.graphql.data.GraphQlQueryByExampleAutoConfiguration&lt;br&gt;org.springframework.boot.autoconfigure.graphql.data.GraphQlQuerydslAutoConfiguration&lt;br&gt;org.springframework.boot.autoconfigure.graphql.data.GraphQlReactiveQueryByExampleAutoConfiguration &lt;br&gt;org.springframework.boot.autoconfigure.graphql.data.GraphQlReactiveQuerydslAutoConfiguration&lt;br&gt;org.springframework.boot.autoconfigure.graphql.reactive.GraphQlWebFluxAutoConfiguration&lt;br&gt;org.springframework.boot.autoconfigure.graphql.rsocket.GraphQlRSocketAutoConfiguration&lt;br&gt;org.springframework.boot.autoconfigure.graphql.rsocket.RSocketGraphQlClientAutoConfiguration&lt;br&gt;org.springframework.boot.autoconfigure.graphql.security.GraphQlWebFluxSecurityAutoConfiguration&lt;br&gt;org.springframework.boot.autoconfigure.graphql.security.GraphQlWebMvcSecurityAutoConfiguration&lt;br&gt;org.springframework.boot.autoconfigure.graphql.servlet.GraphQlWebMvcAutoConfiguration&lt;/pre&gt;&lt;/div&gt;&lt;/pre&gt;&lt;/div&gt;" style="text;html=1;align=left;verticalAlign=middle;whiteSpace=wrap;rounded=0;strokeColor=#2D7600;fillColor=#60a917;fontColor=#ffffff;" parent="1" vertex="1">
          <mxGeometry x="-397" y="-515" width="824" height="204" as="geometry" />
        </mxCell>
        <mxCell id="fmwAh8O4zftSxRUUJ0St-9" value="&lt;div style=&quot;background-color:#1e1f22;color:#bcbec4&quot;&gt;&lt;pre style=&quot;font-family:&#39;Fira Code&#39;,monospace;font-size:11.3pt;&quot;&gt;org.springframework.boot.autoconfigure.websocket.reactive.WebSocketReactiveAutoConfiguration &lt;br&gt;org.springframework.boot.autoconfigure.websocket.servlet.WebSocketMessagingAutoConfiguration&lt;br&gt;org.springframework.boot.autoconfigure.websocket.servlet.WebSocketServletAutoConfiguration&lt;/pre&gt;&lt;/div&gt;" style="text;html=1;align=left;verticalAlign=middle;whiteSpace=wrap;rounded=0;fillColor=#e1d5e7;strokeColor=#9673a6;" parent="1" vertex="1">
          <mxGeometry x="-13" y="-50" width="774" height="58" as="geometry" />
        </mxCell>
        <mxCell id="fmwAh8O4zftSxRUUJ0St-10" value="&lt;div style=&quot;background-color:#1e1f22;color:#bcbec4&quot;&gt;&lt;pre style=&quot;font-family:&#39;Fira Code&#39;,monospace;font-size:11.3pt;&quot;&gt;&lt;pre style=&quot;font-family:&#39;Fira Code&#39;,monospace;font-size:11.3pt;&quot;&gt;&lt;pre style=&quot;font-family:&#39;Fira Code&#39;,monospace;font-size:11.3pt;&quot;&gt;org.springframework.boot.autoconfigure.data.jpa.JpaRepositoriesAutoConfiguration &lt;br&gt;org.springframework.boot.autoconfigure.orm.jpa.HibernateJpaAutoConfiguration&lt;/pre&gt;&lt;/pre&gt;&lt;/pre&gt;&lt;/div&gt;" style="text;html=1;align=left;verticalAlign=middle;whiteSpace=wrap;rounded=0;strokeColor=#b85450;fillColor=#f8cecc;" parent="1" vertex="1">
          <mxGeometry x="-249" y="-301" width="674" height="40" as="geometry" />
        </mxCell>
        <mxCell id="fmwAh8O4zftSxRUUJ0St-11" value="&lt;div style=&quot;background-color:#1e1f22;color:#bcbec4&quot;&gt;&lt;pre style=&quot;font-family:&#39;Fira Code&#39;,monospace;font-size:11.3pt;&quot;&gt;&lt;pre style=&quot;font-family:&#39;Fira Code&#39;,monospace;font-size:11.3pt;&quot;&gt;&lt;pre style=&quot;font-family:&#39;Fira Code&#39;,monospace;font-size:11.3pt;&quot;&gt;&lt;div&gt;&lt;pre style=&quot;font-family:&#39;Fira Code&#39;,monospace;font-size:11.3pt;&quot;&gt;org.springframework.boot.autoconfigure.web.client.RestClientAutoConfiguration&lt;br&gt;org.springframework.boot.autoconfigure.web.client.RestTemplateAutoConfiguration&lt;br&gt;org.springframework.boot.autoconfigure.web.embedded.EmbeddedWebServerFactoryCustomizerAutoConfiguration &lt;br&gt;org.springframework.boot.autoconfigure.web.servlet.DispatcherServletAutoConfiguration&lt;br&gt;org.springframework.boot.autoconfigure.web.servlet.HttpEncodingAutoConfiguration&lt;br&gt;org.springframework.boot.autoconfigure.web.servlet.MultipartAutoConfiguration&lt;br&gt;org.springframework.boot.autoconfigure.web.servlet.ServletWebServerFactoryAutoConfiguration&lt;br&gt;org.springframework.boot.autoconfigure.web.servlet.WebMvcAutoConfiguration&lt;br&gt;org.springframework.boot.autoconfigure.web.servlet.error.ErrorMvcAutoConfiguration&lt;br&gt;org.springframework.boot.autoconfigure.webservices.WebServicesAutoConfiguration&lt;br&gt;org.springframework.boot.autoconfigure.webservices.client.WebServiceTemplateAutoConfiguration&lt;br&gt;&lt;/pre&gt;&lt;/div&gt;&lt;/pre&gt;&lt;/pre&gt;&lt;/pre&gt;&lt;/div&gt;" style="text;html=1;align=left;verticalAlign=middle;whiteSpace=wrap;rounded=0;fillColor=#fff2cc;strokeColor=#d6b656;" parent="1" vertex="1">
          <mxGeometry x="-13" y="-258" width="864" height="202" as="geometry" />
        </mxCell>
        <mxCell id="fmwAh8O4zftSxRUUJ0St-14" style="rounded=0;orthogonalLoop=1;jettySize=auto;html=1;exitX=0.25;exitY=1;exitDx=0;exitDy=0;entryX=0.5;entryY=0.24;entryDx=0;entryDy=0;entryPerimeter=0;fillColor=#f8cecc;strokeColor=#b85450;strokeWidth=3;" parent="1" source="fmwAh8O4zftSxRUUJ0St-10" target="fmwAh8O4zftSxRUUJ0St-2" edge="1">
          <mxGeometry relative="1" as="geometry" />
        </mxCell>
        <mxCell id="fmwAh8O4zftSxRUUJ0St-15" style="rounded=0;orthogonalLoop=1;jettySize=auto;html=1;fillColor=#fff2cc;strokeColor=#d6b656;strokeWidth=3;entryX=0.5;entryY=0.43;entryDx=0;entryDy=0;entryPerimeter=0;exitX=0;exitY=0.5;exitDx=0;exitDy=0;" parent="1" source="fmwAh8O4zftSxRUUJ0St-11" target="fmwAh8O4zftSxRUUJ0St-2" edge="1">
          <mxGeometry relative="1" as="geometry" />
        </mxCell>
        <mxCell id="fmwAh8O4zftSxRUUJ0St-17" style="rounded=0;orthogonalLoop=1;jettySize=auto;html=1;fillColor=#e1d5e7;strokeColor=#9673a6;strokeWidth=3;exitX=0;exitY=0.25;exitDx=0;exitDy=0;" parent="1" source="fmwAh8O4zftSxRUUJ0St-9" edge="1">
          <mxGeometry relative="1" as="geometry">
            <mxPoint x="-283" y="67" as="targetPoint" />
          </mxGeometry>
        </mxCell>
        <mxCell id="fmwAh8O4zftSxRUUJ0St-18" value="&lt;b&gt;&amp;nbsp;spring-boot-actuator&lt;/b&gt; -&amp;gt;&lt;br&gt;&lt;b&gt;&lt;font style=&quot;color: rgb(255, 128, 0); font-size: 14px;&quot;&gt;&amp;nbsp;org.springframework.boot.actuate&lt;/font&gt;&lt;/b&gt;" style="rounded=1;whiteSpace=wrap;html=1;fillColor=#f5f5f5;fontColor=#333333;strokeColor=#666666;align=left;" parent="1" vertex="1">
          <mxGeometry x="549" y="11" width="235" height="39" as="geometry" />
        </mxCell>
        <mxCell id="fmwAh8O4zftSxRUUJ0St-20" style="rounded=0;orthogonalLoop=1;jettySize=auto;html=1;fillColor=#b0e3e6;strokeColor=#0e8088;strokeWidth=3;exitX=0.82;exitY=0.86;exitDx=0;exitDy=0;exitPerimeter=0;entryX=0;entryY=0.75;entryDx=0;entryDy=0;" parent="1" source="fmwAh8O4zftSxRUUJ0St-2" target="fmwAh8O4zftSxRUUJ0St-19" edge="1">
          <mxGeometry relative="1" as="geometry">
            <mxPoint x="0.44827586206906744" y="223.50000000000023" as="sourcePoint" />
          </mxGeometry>
        </mxCell>
        <mxCell id="fmwAh8O4zftSxRUUJ0St-22" style="rounded=0;orthogonalLoop=1;jettySize=auto;html=1;exitX=1;exitY=0.75;exitDx=0;exitDy=0;entryX=0;entryY=0.5;entryDx=0;entryDy=0;fillColor=#e51400;strokeColor=#B20000;strokeWidth=2;" parent="1" source="fmwAh8O4zftSxRUUJ0St-19" target="fmwAh8O4zftSxRUUJ0St-7" edge="1">
          <mxGeometry relative="1" as="geometry" />
        </mxCell>
        <mxCell id="fmwAh8O4zftSxRUUJ0St-19" value="&lt;b&gt;&lt;font style=&quot;color: rgb(51, 51, 255); font-size: 13px;&quot;&gt;&amp;nbsp; &amp;nbsp;spring-boot-starter-actuator-3.5.3&lt;/font&gt;&lt;/b&gt;&lt;div&gt;&lt;blockquote style=&quot;margin: 0 0 0 40px; border: none; padding: 0px;&quot;&gt;&lt;ul&gt;&lt;li&gt;&lt;b&gt;&lt;font style=&quot;color: rgb(0, 153, 0);&quot;&gt;spring-boot-starter&lt;/font&gt;&lt;/b&gt;&lt;/li&gt;&lt;li&gt;&lt;b&gt;&lt;font style=&quot;color: rgb(204, 0, 0);&quot;&gt;spring-boot-actuator-autoconfigure&lt;/font&gt;&lt;/b&gt;&lt;/li&gt;&lt;li&gt;micometer-jakarta9&lt;/li&gt;&lt;li&gt;micrometer-observation&lt;/li&gt;&lt;/ul&gt;&lt;/blockquote&gt;&lt;/div&gt;" style="rounded=1;whiteSpace=wrap;html=1;align=left;" parent="1" vertex="1">
          <mxGeometry x="-10" y="14" width="294" height="109" as="geometry" />
        </mxCell>
        <mxCell id="fmwAh8O4zftSxRUUJ0St-29" style="edgeStyle=orthogonalEdgeStyle;rounded=0;orthogonalLoop=1;jettySize=auto;html=1;entryX=0;entryY=0.5;entryDx=0;entryDy=0;fillColor=#008a00;strokeColor=#005700;strokeWidth=3;" parent="1" source="fmwAh8O4zftSxRUUJ0St-27" target="fmwAh8O4zftSxRUUJ0St-28" edge="1">
          <mxGeometry relative="1" as="geometry" />
        </mxCell>
        <mxCell id="fmwAh8O4zftSxRUUJ0St-27" value="RUN" style="rounded=1;whiteSpace=wrap;html=1;fillColor=#008a00;fontColor=#ffffff;strokeColor=#005700;fontSize=35;fontStyle=1" parent="1" vertex="1">
          <mxGeometry x="-625" y="265" width="120" height="60" as="geometry" />
        </mxCell>
        <mxCell id="fmwAh8O4zftSxRUUJ0St-34" style="rounded=0;orthogonalLoop=1;jettySize=auto;html=1;exitX=0.843;exitY=-0.006;exitDx=0;exitDy=0;fillColor=#60a917;strokeColor=#2D7600;strokeWidth=3;entryX=0.25;entryY=1;entryDx=0;entryDy=0;exitPerimeter=0;" parent="1" source="fmwAh8O4zftSxRUUJ0St-28" target="fmwAh8O4zftSxRUUJ0St-3" edge="1">
          <mxGeometry relative="1" as="geometry" />
        </mxCell>
        <mxCell id="fmwAh8O4zftSxRUUJ0St-36" style="rounded=0;orthogonalLoop=1;jettySize=auto;html=1;entryX=0.25;entryY=1;entryDx=0;entryDy=0;fillColor=#0050ef;strokeColor=#001DBC;elbow=vertical;strokeWidth=3;exitX=0.609;exitY=-0.006;exitDx=0;exitDy=0;exitPerimeter=0;" parent="1" source="fmwAh8O4zftSxRUUJ0St-28" target="fmwAh8O4zftSxRUUJ0St-19" edge="1">
          <mxGeometry relative="1" as="geometry" />
        </mxCell>
        <mxCell id="fmwAh8O4zftSxRUUJ0St-37" style="rounded=0;orthogonalLoop=1;jettySize=auto;html=1;entryX=-0.002;entryY=0.215;entryDx=0;entryDy=0;fillColor=#008a00;strokeColor=#005700;strokeWidth=3;exitX=1;exitY=0.5;exitDx=0;exitDy=0;entryPerimeter=0;" parent="1" source="fmwAh8O4zftSxRUUJ0St-28" target="fmwAh8O4zftSxRUUJ0St-35" edge="1">
          <mxGeometry relative="1" as="geometry" />
        </mxCell>
        <mxCell id="fmwAh8O4zftSxRUUJ0St-28" value="&lt;div style=&quot;background-color:#1e1f22;color:#bcbec4&quot;&gt;&lt;pre style=&quot;font-family: &amp;quot;Fira Code&amp;quot;, monospace;&quot;&gt;&lt;span style=&quot;color:#b3ae60;&quot;&gt;@SpringBootApplication&lt;br&gt;&lt;/span&gt;&lt;span style=&quot;color:#cf8e6d;&quot;&gt;public class &lt;/span&gt;GraphqlSpringBootApplication &lt;span style=&quot;color:#e8ba36;&quot;&gt;{&lt;/span&gt;&lt;span style=&quot;color:#e8ba36;&quot;&gt;&lt;br&gt;&lt;/span&gt;&lt;span style=&quot;color:#e8ba36;&quot;&gt;    &lt;/span&gt;&lt;span style=&quot;color:#cf8e6d;&quot;&gt;public static void &lt;/span&gt;&lt;span style=&quot;color:#56a8f5;&quot;&gt;main&lt;/span&gt;&lt;span style=&quot;color:#e8ba36;&quot;&gt;(&lt;/span&gt;String&lt;span style=&quot;color:#e8ba36;&quot;&gt;[] &lt;/span&gt;args&lt;span style=&quot;color:#e8ba36;&quot;&gt;) &lt;/span&gt;&lt;span style=&quot;color:#54a857;&quot;&gt;{&lt;br&gt;&lt;/span&gt;&lt;span style=&quot;color:#54a857;&quot;&gt;       &lt;/span&gt;SpringApplication.&lt;span style=&quot;font-style:italic;&quot;&gt;run&lt;/span&gt;&lt;span style=&quot;color:#e8ba36;&quot;&gt;(&lt;/span&gt;GraphqlSpringBootApplication.&lt;span style=&quot;color:#cf8e6d;&quot;&gt;class&lt;/span&gt;, args&lt;span style=&quot;color:#e8ba36;&quot;&gt;)&lt;/span&gt;;&lt;br&gt;    &lt;span style=&quot;color:#54a857;&quot;&gt;}&lt;/span&gt;&lt;span style=&quot;color:#54a857;&quot;&gt;&lt;br&gt;&lt;div&gt;&lt;span style=&quot;color: rgb(232, 186, 54); white-space: normal;&quot;&gt;}&lt;/span&gt;&lt;/div&gt;&lt;/span&gt;&lt;/pre&gt;&lt;/div&gt;" style="text;html=1;align=left;verticalAlign=middle;whiteSpace=wrap;rounded=0;fontSize=17;" parent="1" vertex="1">
          <mxGeometry x="-432" y="231" width="665" height="129" as="geometry" />
        </mxCell>
        <UserObject label="p.graphql.GraphqlSpringBootApplication&amp;nbsp; &amp;nbsp; &amp;nbsp; &amp;nbsp; &amp;nbsp; : Starting GraphqlSpringBootApplication using Java 24.0.1 with PID 46852&lt;br&gt;p.graphql.GraphqlSpringBootApplication&amp;nbsp; &amp;nbsp; &amp;nbsp; &amp;nbsp; &amp;nbsp; : &lt;b&gt;&lt;font style=&quot;color: rgb(204, 0, 204);&quot;&gt;No active profile set, falling back to 1 default profile: &quot;default&quot;&lt;/font&gt;&lt;/b&gt;&lt;br&gt;.s.d.r.c.RepositoryConfigurationDelegate&amp;nbsp; &amp;nbsp; &amp;nbsp; &amp;nbsp;&amp;nbsp; : Bootstrapping &lt;b&gt;&lt;font style=&quot;color: rgb(51, 51, 255);&quot;&gt;Spring Data JPA&lt;/font&gt;&lt;/b&gt; repositories in DEFAULT mode.&lt;br&gt;.s.d.r.c.RepositoryConfigurationDelegate&amp;nbsp; &amp;nbsp; &amp;nbsp; &amp;nbsp;&amp;nbsp; : Finished Spring Data repository scanning in 180 ms. Found 1 JPA repository interface.&lt;br&gt;o.s.b.w.embedded.tomcat.TomcatWebServer&amp;nbsp; : &lt;b&gt;&lt;font style=&quot;color: rgb(255, 128, 0);&quot;&gt;Tomcat initialized with port 8080 (http)&lt;/font&gt;&lt;/b&gt;&lt;br&gt;o.apache.catalina.core.StandardService&amp;nbsp; &amp;nbsp; &amp;nbsp; &amp;nbsp; &amp;nbsp;&amp;nbsp;: Starting service [Tomcat]&lt;br&gt;o.apache.catalina.core.StandardEngine&amp;nbsp; &amp;nbsp; &amp;nbsp; &amp;nbsp; &amp;nbsp;&amp;nbsp; : Starting Servlet engine: [Apache Tomcat/10.1.42]&lt;br&gt;o.a.c.c.C.[Tomcat].[localhost].[/]&amp;nbsp; &amp;nbsp; &amp;nbsp; &amp;nbsp; &amp;nbsp; &amp;nbsp; &amp;nbsp; &amp;nbsp; &amp;nbsp; &amp;nbsp; &amp;nbsp;&amp;nbsp;&amp;nbsp; : &lt;b&gt;&lt;font style=&quot;color: rgb(255, 128, 0);&quot;&gt;Initializing Spring embedded WebApplicationContext&lt;/font&gt;&lt;/b&gt;&lt;br&gt;w.s.c.ServletWebServerApplicationContext&amp;nbsp; &amp;nbsp;&amp;nbsp;&amp;nbsp; : Root &lt;b&gt;&lt;font style=&quot;color: rgb(204, 0, 0);&quot;&gt;WebApplicationContext&lt;/font&gt;&lt;/b&gt;: initialization completed in&lt;b&gt;&lt;font style=&quot;color: rgb(51, 51, 255);&quot;&gt; &lt;/font&gt;&lt;font style=&quot;color: rgb(204, 0, 0);&quot;&gt;2066 ms&lt;/font&gt;&lt;/b&gt;&lt;br&gt;o.hibernate.jpa.internal.util.LogHelper&amp;nbsp; &amp;nbsp; &amp;nbsp; &amp;nbsp; &amp;nbsp; &amp;nbsp; &amp;nbsp; : HHH000204: Processing &lt;b&gt;&lt;font style=&quot;color: rgb(51, 51, 255);&quot;&gt;PersistenceUnitInfo [name: default]&lt;br&gt;&lt;/font&gt;&lt;/b&gt;org.hibernate.Version&amp;nbsp; &amp;nbsp; &amp;nbsp; &amp;nbsp; &amp;nbsp; &amp;nbsp; &amp;nbsp; &amp;nbsp; &amp;nbsp; &amp;nbsp; &amp;nbsp; &amp;nbsp; &amp;nbsp; &amp;nbsp; &amp;nbsp; &amp;nbsp; &amp;nbsp; &amp;nbsp; &amp;nbsp; &amp;nbsp; : HHH000412: &lt;b&gt;&lt;font style=&quot;color: rgb(51, 51, 255);&quot;&gt;Hibernate ORM core version 6.6.18.Final&lt;/font&gt;&lt;/b&gt;&lt;br&gt;o.h.c.internal.RegionFactoryInitiator&amp;nbsp; &amp;nbsp; &amp;nbsp; &amp;nbsp; &amp;nbsp; &amp;nbsp; &amp;nbsp; &amp;nbsp; &amp;nbsp;: HHH000026: Second-level cache disabled&lt;br&gt;o.s.o.j.p.SpringPersistenceUnitInfo&amp;nbsp; &amp;nbsp; &amp;nbsp; &amp;nbsp; &amp;nbsp; &amp;nbsp; &amp;nbsp; &amp;nbsp; &amp;nbsp; &amp;nbsp;: No LoadTimeWeaver setup: ignoring JPA class transformer&lt;br&gt;com.zaxxer.hikari.HikariDataSource&amp;nbsp; &amp;nbsp; &amp;nbsp; &amp;nbsp; &amp;nbsp; &amp;nbsp; &amp;nbsp; &amp;nbsp; &amp;nbsp;: mysql-main-pool - Starting...&lt;br&gt;&lt;b&gt;&lt;font style=&quot;color: rgb(51, 51, 255);&quot;&gt;com.zaxxer.hikari.pool.HikariPool&amp;nbsp; &amp;nbsp; &amp;nbsp; &amp;nbsp;&amp;nbsp;&lt;/font&gt;&lt;/b&gt;&amp;nbsp; &amp;nbsp; &amp;nbsp;&amp;nbsp;&amp;nbsp; &lt;b&gt;&lt;font style=&quot;color: rgb(51, 51, 255);&quot;&gt;: mysql-main-pool - Added connection com.mysql.cj.jdbc.ConnectionImpl@26c6288d&lt;/font&gt;&lt;/b&gt;&lt;br&gt;com.zaxxer.hikari.HikariDataSource&amp;nbsp; &amp;nbsp; &amp;nbsp; &amp;nbsp; &amp;nbsp; &amp;nbsp; &amp;nbsp; &amp;nbsp; &amp;nbsp;: mysql-main-pool - Start completed.&lt;br&gt;org.hibernate.orm.connections.pooling&amp;nbsp; &amp;nbsp; &amp;nbsp; &amp;nbsp; &amp;nbsp;&amp;nbsp;&amp;nbsp; &amp;nbsp;: HHH10001005: Database info:&lt;br&gt;o.h.e.t.j.p.i.JtaPlatformInitiator&amp;nbsp; &amp;nbsp; &amp;nbsp; &amp;nbsp; &amp;nbsp; &amp;nbsp; &amp;nbsp; &amp;nbsp; &amp;nbsp; &amp;nbsp; &amp;nbsp; &amp;nbsp; &amp;nbsp; : HHH000489: No JTA platform available (set &#39;hibernate.transaction.jta.platform&#39; to enable JTA platform integration)&lt;br&gt;j.LocalContainerEntityManagerFactoryBean&amp;nbsp;&amp;nbsp; &amp;nbsp;: Initialized JPA EntityManagerFactory for persistence unit &#39;default&#39;&lt;br&gt;efaultSchemaResourceGraphQlSourceBuilder : &lt;b&gt;&lt;font style=&quot;color: rgb(0, 153, 0);&quot;&gt;Loaded 1 resource(s) in the GraphQL schema.&lt;/font&gt;&lt;/b&gt;&lt;br&gt;o.s.b.a.g.GraphQlAutoConfiguration&amp;nbsp; &amp;nbsp; &amp;nbsp; &amp;nbsp; &amp;nbsp; &amp;nbsp; &amp;nbsp; &amp;nbsp; &amp;nbsp;: GraphQL schema inspection:&lt;br&gt;s.b.a.g.s.GraphQlWebMvcAutoConfiguration&amp;nbsp;&amp;nbsp; &amp;nbsp;: &lt;b&gt;&lt;font style=&quot;color: rgb(0, 153, 0);&quot;&gt;GraphQL endpoint HTTP POST /graphql&lt;/font&gt;&lt;/b&gt;&lt;br&gt;o.s.b.a.e.web.EndpointLinksResolver&amp;nbsp; &amp;nbsp; &amp;nbsp; &amp;nbsp; &amp;nbsp; &amp;nbsp;&amp;nbsp;&amp;nbsp; &amp;nbsp;: &lt;font style=&quot;color: rgb(0, 0, 0);&quot;&gt;&lt;b style=&quot;&quot;&gt;Exposing 12 endpoints beneath base path &#39;/actuator&#39;&lt;/b&gt;&lt;/font&gt;&lt;br&gt;o.s.b.w.embedded.tomcat.TomcatWebServer&amp;nbsp; &amp;nbsp;: Tomcat started on port 8080 (http) with context path &#39;/&#39;&lt;br&gt;p.graphql.GraphqlSpringBootApplication&amp;nbsp; &amp;nbsp; &amp;nbsp; &amp;nbsp; &amp;nbsp; &amp;nbsp;: &lt;b&gt;&lt;font style=&quot;color: rgb(204, 0, 102);&quot;&gt;Started GraphqlSpringBootApplication in 7.096 seconds (process running for 8.16)&lt;/font&gt;&lt;/b&gt;&lt;br&gt;o.a.c.c.C.[Tomcat].[localhost].[/]&amp;nbsp; &amp;nbsp; &amp;nbsp; &amp;nbsp; &amp;nbsp; &amp;nbsp; &amp;nbsp; &amp;nbsp; &amp;nbsp; &amp;nbsp; &amp;nbsp;&amp;nbsp;&amp;nbsp; : Initializing Spring DispatcherServlet &#39;dispatcherServlet&#39;&lt;br&gt;o.s.web.servlet.DispatcherServlet&amp;nbsp; &amp;nbsp; &amp;nbsp; &amp;nbsp; &amp;nbsp; &amp;nbsp; &amp;nbsp; &amp;nbsp; &amp;nbsp;&amp;nbsp; &amp;nbsp;: Initializing Servlet &#39;dispatcherServlet&#39;&lt;br&gt;o.s.web.servlet.DispatcherServlet&amp;nbsp; &amp;nbsp; &amp;nbsp; &amp;nbsp; &amp;nbsp; &amp;nbsp; &amp;nbsp; &amp;nbsp; &amp;nbsp;&amp;nbsp; &amp;nbsp;: Completed initialization in 2 ms" link="2025-07-18T14:04:45.596+02:00  INFO 46852 --- [graphql-spring-boot] [           main] p.graphql.GraphqlSpringBootApplication   : Starting GraphqlSpringBootApplication using Java 24.0.1 with PID 46852 (C:\work\workspace\Other\spring-seminar\graphql-spring-boot\target\classes started by pawg in C:\work\workspace\Other\spring-seminar)&#xa;2025-07-18T14:04:45.600+02:00  INFO 46852 --- [graphql-spring-boot] [           main] p.graphql.GraphqlSpringBootApplication   : No active profile set, falling back to 1 default profile: &quot;default&quot;&#xa;2025-07-18T14:04:46.867+02:00  INFO 46852 --- [graphql-spring-boot] [           main] .s.d.r.c.RepositoryConfigurationDelegate : Bootstrapping Spring Data JPA repositories in DEFAULT mode.&#xa;2025-07-18T14:04:47.070+02:00  INFO 46852 --- [graphql-spring-boot] [           main] .s.d.r.c.RepositoryConfigurationDelegate : Finished Spring Data repository scanning in 180 ms. Found 1 JPA repository interface.&#xa;2025-07-18T14:04:47.637+02:00  INFO 46852 --- [graphql-spring-boot] [           main] o.s.b.w.embedded.tomcat.TomcatWebServer  : Tomcat initialized with port 8080 (http)&#xa;2025-07-18T14:04:47.655+02:00  INFO 46852 --- [graphql-spring-boot] [           main] o.apache.catalina.core.StandardService   : Starting service [Tomcat]&#xa;2025-07-18T14:04:47.655+02:00  INFO 46852 --- [graphql-spring-boot] [           main] o.apache.catalina.core.StandardEngine    : Starting Servlet engine: [Apache Tomcat/10.1.42]&#xa;2025-07-18T14:04:47.753+02:00  INFO 46852 --- [graphql-spring-boot] [           main] o.a.c.c.C.[Tomcat].[localhost].[/]       : Initializing Spring embedded WebApplicationContext&#xa;2025-07-18T14:04:47.753+02:00  INFO 46852 --- [graphql-spring-boot] [           main] w.s.c.ServletWebServerApplicationContext : Root WebApplicationContext: initialization completed in 2066 ms&#xa;2025-07-18T14:04:48.066+02:00  INFO 46852 --- [graphql-spring-boot] [           main] o.hibernate.jpa.internal.util.LogHelper  : HHH000204: Processing PersistenceUnitInfo [name: default]&#xa;2025-07-18T14:04:48.130+02:00  INFO 46852 --- [graphql-spring-boot] [           main] org.hibernate.Version                    : HHH000412: Hibernate ORM core version 6.6.18.Final&#xa;2025-07-18T14:04:48.185+02:00  INFO 46852 --- [graphql-spring-boot] [           main] o.h.c.internal.RegionFactoryInitiator    : HHH000026: Second-level cache disabled&#xa;2025-07-18T14:04:48.632+02:00  INFO 46852 --- [graphql-spring-boot] [           main] o.s.o.j.p.SpringPersistenceUnitInfo      : No LoadTimeWeaver setup: ignoring JPA class transformer&#xa;2025-07-18T14:04:48.677+02:00  INFO 46852 --- [graphql-spring-boot] [           main] com.zaxxer.hikari.HikariDataSource       : mysql-main-pool - Starting...&#xa;2025-07-18T14:04:49.247+02:00  INFO 46852 --- [graphql-spring-boot] [           main] com.zaxxer.hikari.pool.HikariPool        : mysql-main-pool - Added connection com.mysql.cj.jdbc.ConnectionImpl@26c6288d&#xa;2025-07-18T14:04:49.249+02:00  INFO 46852 --- [graphql-spring-boot] [           main] com.zaxxer.hikari.HikariDataSource       : mysql-main-pool - Start completed.&#xa;2025-07-18T14:04:49.362+02:00  INFO 46852 --- [graphql-spring-boot] [           main] org.hibernate.orm.connections.pooling    : HHH10001005: Database info:&#xa;    Database JDBC URL [Connecting through datasource &#39;HikariDataSource (mysql-main-pool)&#39;]&#xa;    Database driver: undefined/unknown&#xa;    Database version: 8.0.35&#xa;    Autocommit mode: undefined/unknown&#xa;    Isolation level: undefined/unknown&#xa;    Minimum pool size: undefined/unknown&#xa;    Maximum pool size: undefined/unknown&#xa;2025-07-18T14:04:50.290+02:00  INFO 46852 --- [graphql-spring-boot] [           main] o.h.e.t.j.p.i.JtaPlatformInitiator       : HHH000489: No JTA platform available (set &#39;hibernate.transaction.jta.platform&#39; to enable JTA platform integration)&#xa;2025-07-18T14:04:50.343+02:00  INFO 46852 --- [graphql-spring-boot] [           main] j.LocalContainerEntityManagerFactoryBean : Initialized JPA EntityManagerFactory for persistence unit &#39;default&#39;&#xa;2025-07-18T14:04:51.006+02:00  INFO 46852 --- [graphql-spring-boot] [           main] efaultSchemaResourceGraphQlSourceBuilder : Loaded 1 resource(s) in the GraphQL schema.&#xa;2025-07-18T14:04:51.202+02:00  INFO 46852 --- [graphql-spring-boot] [           main] o.s.b.a.g.GraphQlAutoConfiguration       : GraphQL schema inspection:&#xa;    Unmapped fields: {}&#xa;    Unmapped registrations: {}&#xa;    Unmapped arguments: {}&#xa;    Skipped types: []&#xa;2025-07-18T14:04:51.236+02:00  INFO 46852 --- [graphql-spring-boot] [           main] s.b.a.g.s.GraphQlWebMvcAutoConfiguration : GraphQL endpoint HTTP POST /graphql&#xa;2025-07-18T14:04:51.721+02:00  INFO 46852 --- [graphql-spring-boot] [           main] o.s.b.a.e.web.EndpointLinksResolver      : Exposing 12 endpoints beneath base path &#39;/actuator&#39;&#xa;2025-07-18T14:04:51.819+02:00  INFO 46852 --- [graphql-spring-boot] [           main] o.s.b.w.embedded.tomcat.TomcatWebServer  : Tomcat started on port 8080 (http) with context path &#39;/&#39;&#xa;2025-07-18T14:04:51.832+02:00  INFO 46852 --- [graphql-spring-boot] [           main] p.graphql.GraphqlSpringBootApplication   : Started GraphqlSpringBootApplication in 7.096 seconds (process running for 8.16)&#xa;2025-07-18T14:04:52.099+02:00  INFO 46852 --- [graphql-spring-boot] [(3)-192.168.1.7] o.a.c.c.C.[Tomcat].[localhost].[/]       : Initializing Spring DispatcherServlet &#39;dispatcherServlet&#39;&#xa;2025-07-18T14:04:52.100+02:00  INFO 46852 --- [graphql-spring-boot] [(3)-192.168.1.7] o.s.web.servlet.DispatcherServlet        : Initializing Servlet &#39;dispatcherServlet&#39;&#xa;2025-07-18T14:04:52.102+02:00  INFO 46852 --- [graphql-spring-boot] [(3)-192.168.1.7] o.s.web.servlet.DispatcherServlet        : Completed initialization in 2 ms" id="fmwAh8O4zftSxRUUJ0St-35">
          <mxCell style="text;html=1;align=left;verticalAlign=middle;whiteSpace=wrap;rounded=0;strokeColor=#666666;dashed=1;dashPattern=1 4;perimeterSpacing=0;spacingLeft=2;spacingTop=2;spacingBottom=2;spacingRight=2;fillColor=#f5f5f5;fontColor=#333333;" parent="1" vertex="1">
            <mxGeometry x="305" y="202" width="775" height="431" as="geometry" />
          </mxCell>
        </UserObject>
        <mxCell id="fmwAh8O4zftSxRUUJ0St-24" value="" style="shape=image;verticalLabelPosition=bottom;labelBackgroundColor=default;verticalAlign=top;aspect=fixed;imageAspect=0;image=data:image/png,iVBORw0KGgoAAAANSUhEUgAAAgkAAABICAIAAADzm/FPAAAAAXNSR0IArs4c6QAAAARnQU1BAACxjwv8YQUAAAAJcEhZcwAADsMAAA7DAcdvqGQAAAASdEVYdFNvZnR3YXJlAEdyZWVuc2hvdF5VCAUAABg1SURBVHhe7Z35VxRnusf9dzjHn+650YkigsmoMYuTmJw56Qw52ZTIqoK7TqLRZMLtexPNJJPkzkkyTu7cO9EMUL0AEnGNqAEVMBgEUQISY4vN0kB3V7/V99T+rlXd0DbEPJ9TP0DVW+/7PO/yfOt9a+l5SQAAAAAgmUfvAAAAAH71gDYAAAAANKANAAAAAA1oAwAAAEAD2gAAAADQgDYAAAAANKANAAAAAA1oAwAAAEDjpA0IIVmW47OKLMsIIdoyAAAA4H4i1AZZlmOxmKIo9IFsgRAaGxsbGBgIhUKyLNOHAQAAgPsGXxtkWZ5FVcBBCF27dm1wcBDkAQAAIGtwtAEhFIvF6L2zRzgcbm9vD4VCsLgEAACQHTjakPqkITRxq+fu5at3vrt650Ka23c9dy+HJm7ROfJACLW1tfX29sLUAQAAIDtwtCEej9O7SBRFiaPYpaHjB89WVNU/VubLL/MtTXPLr6p/7MDZiktDx+PI/a5Ga2trZ2enq2FZoc87f55KYYA+AgAA8KAwDW1QlKRy+mbdlobHS6UlpVIeE/dT2kqlvFJpyZaGx0/frFWSSlLdhLS2tnZ0dLgZxiXg0SI5hmdGQb3Hm5ORfBywi8DJ8fbQCbNDoJA2xSPRaR4M+qrJineWf4npWfPm5VT30clMqGp0SAkAc4G0tQEp6Ga4a0+zp8y3tHw6MwZ7007P39PsuRnuQorTvYTW1tb29nZnwzjwRu+MY/r9nzfwtUEl40FZC1gOFcIqqwpmhpYgI1WheT2rEZPn7Hyv0CBe7xLaz23TjNQbANwf0tMGdTUpET3SeaB8xsKgb+W+/HLf0sOdB+KJqMPK0rS0wR7qWCzr8853CIVzAyuOmLHDvp7NZDQxRU6sDfalLlZuX3WOUZ+MndPHjLPC2JoNAh5bCazOI56u6TY7iAdOjzfHqqUsTD0BYMakpw1ISXTdOb+7ac20l5LYrVTK2920puvOeaQk6PJMpqMN1ghMcfTOHdiYy+7JAK7aYCUQxMcMWjUntIHA1EWB75ZgT6d3udY8AMw+aWgDUlAkNnLo4r4SaQkb4ulNyqsMrtwUWF7qc1eREmnJ3y7ui8RGRCtLM9IGwVKMdTHukfC1YCwW2AEroA9mLXKZV5RGUMDHObYoQYUMbP3Byk0YGpiYK4hT1BoIm5s4AWc9hD3dco0T/dmbEEYaZvEEC/dYXRkGeAJ4KSb2KURurk2TQahW5mD0H6Zm3GHaFwDmIKlqg3a7OHlp6ERlcAU33Jf7861VplIp7/0zZS0/Bk/frN13/EVLS/A0+Fbqy6sMrrg0dMIqiGI62sDEL0oh6BuPNmYMYgKoozbQWNFKXBAbjjWY8KoiFhsc20fnBJyjPGOoZFgsE2oDJ2erKti6ctIGbr2J7Ge1wTxda80U5yVUzTvGbqYGhDMMA9JmF0sAYLZJVRuSSQUpCe/pomJpMRXfy335pVJeUe3Ckrrccn9+qW/J5vpV7T+dTiiJhJI4daNWT1/uz19ft6iodiF7E7vcl18sLf6P00UJRc6gNvCCkT2AsdBjhEV6Wd8ezPiwF2qDMdqts4wEzMq1nS0vHLMRysYyg8nT3qPn6Zog1ZUNNkBzLuqFMdQsgqkr+hQ2dpuZW3uMWKxnxW8aBiMTPY1RA9xJpAFT8w6JGW1wSc/omaPlADDbpKQNSEFKUjl2/Z9FNQsr6Av//OK63Krgyo8vbNt59JniusWlUt6upjU3w1f1szpvf7sp8Nsy39L1dYuqT6395Py2Cv8ybSZB5FPhy19Xs/BY7/8pqgjRK0vT1QYd/tIKvqZEp6QCEBHIRNogiLls1OOcQsLGXEpOOHmS7rgm0Ha4mIHBn4GxdlrQcVAvwiqRCYuMwawmmRA1wCmawjCSkEynCG7AiqsTtrXiNSgbW4Hcax4AZotUtEG9kL87MbTB/0iZlEdd8pf68vY2v9AduogUNB4L72pas75ukaYNXYqpDZXB5a/XPXywZYP60jWKtw4e23H0d2XkwpSarZS3wb8sNDFkFWoxM23QsRWCWrJw1QZy+j8b2kBFVU6e91cbdGyF0H3n2CmK6ZQ2MCUyBgvycaoBPsT8w2w7V0XhmeSI2DUeTFsAwJzDXRuUpBJLTH15+U/rahaU+wvwGUOpb+lbzX/4IdSqJBUZxZCC3v+2rKh24e6mZy1tuHL7bGVweVHtwsOdBzRtUJO13jq28+jT1NSh3F+wrnbBl5f+FEtMUStLmdAGe0AKtYEKdvzo8OvVBtswoTbQK1emnExfG/jRk0nPJ901JZwUizAQu8bDxTsAmAOkpA2dt7/d0vA4cxs5f1NwedutY9oqUCKWiJ7plyqDy0ukXHzecOX22U3mzvafTumJZRT/pvcf2ssNlDzkb6l/vOP2txnQhh5vDjHBt+cN+oBk1wGs62IjHPCjQ5rawCwgYFfEgjjCxlxrCcU4hQ7BzB7XBIzecOjzzicO0a87UFJBX6SzhbJ1ZWI5aLnM1JuezAim/KYhMOtZqKYU9nsb2n+mqYyUGhbiL0NgbWrab+6xNBKvyfQWrABgVnDRBiWphKdCn1zYQd1ALvcVFNUu+Krz/TiKIiURR7H67i82+B/VHlJasuvoM6Q2qPcbSqW8zQ2rWn4M6ncUIrHRj85VvV77GzJb9e9PLmwPT93B5WGa2mCMQBJzSAtXLawxzw8oaWoDs1iPwYRIHZHluCW2WhDY0c01AW0Ya4wdH0nY+9saalgk99i4aQPpsu4mt95S14Z04fcHoVZxPWX7gGEw15cMGg8AGcdJGxT1PWh0fqBhc/0qcsagvpGwrfHJ0eiw9q40OtvvrwyuqPAXaM8scbUhr0ybJWxvXN115xxSEoqi9N27wn1VYnP9Y+d+rNdP1y2ZjjbwQhseGbF5PTbO8akGPwClrQ1UaPBInAQEfG1grzGp8MTm5poAryL2KC9cUiv1uKnUZEKr7VTXlEgxE0qgi2zPDKbayQUfat7A9C6yZqh5A+0IpzUBYG7hpA0JRQ5FBt87U6Y+nIpf3fsL1tUs+PrKB8mkIivy0NiNd068Yt08EGuDcfpH5zaPx8L6W9AftGxUpw5+YupQUpf73pmSO5HBhGJ8lHta2uDC7K35UuoCAAAw53DRhpN9X7PX9dqW3zvcrn9F49SN2o3aU6opasO2xicvD53U4/6Zm1IRuaxkbSf6Dj8Y2iBayM7kNS8AAEBGcdKG2+P9bzX/obhuMfVAUYm0+I/fPDcWvadoz60eurivFFsactWGcn++/4e/xhLRZDI5MNKzMfAo86J1fnHd4r3NL9wev6lb8kvXBkMNcFJ5jBIAAGCWcNKGI1cOct+CXl+36D9Pr5+Mj8soficy8F9nikukXNGakvruG6kNJdKSz1rfHI0OK0llLDq88+gz+OlWKcXS4sNX1MdeHzhtgLVmAADmOk7asOvoGi1q41f0atR+ve7hD1sqp+QJGcVvjfW9ffwlWhu096ITSP0AxpWfqXlDfomU++G5yuHJ2wmUmIiP7m32FNfRCqRJSO7Oo0/rltwPbQAAAABEOGkD+aYboQ0ftGyckiMyims3ol8mL/zzNgV/q76joKAEkpuvf4WvOOna8JfzW+5N/pxQ5Eh8dM+x54sletnKKku3BLQBAAAgmzhpw9aGJ8iwbsTr4rpF7558dSI+lkDy3YmfPmjZWExoQ36xlLu76dnjfUeC3Z9X1T9GPahaKi358vI7kdio+vLE5J1tjU+xsxM92ZaGx3VLQBsAAACyiZM2HLq0b33dIt5qz5JtDU8OT95WFGVKnvj6yp/ZyF4i5RbVLiyqXciqy8bAo83Xv5KRWsq10EX2XOuuxhcX39ItAW0AAADIJk7a0D/SvauJc8tBf46odbBJf4a1/adT2xtXs2nKtVfh2P17m1+4PtypP58qXf20qHYh/n6Dvunf2OgPX9UtAW0AAADIJk7aIKN4sPtz5gFT9SHU1+se/uhclfVjcF9c3Fvqy6vg3Z/Atw3+ZWW+pTVdH0XlSaSgyXjkzWPPl3BuRKsvVwe6P9PnFqANAAAAWcZJGxJK4tbY9epTa7lTh5K6XP0LrEhJ3Bq9vrfZs75uUYUW/bnbBv+ydTUL3v+2fDQ6rH4zI6mc6DuyrnZBuY9WlBIp992Tr90a7U2YvyAN2gAAAJBNnLRB+56ScupGzcbAI1T41n7EbfE7J1/Wv7mtKGho/MaWhlVrax7SvqpEhPsKf0GFr+DVf/3b2ydemoiPKQpCCro7cWtr4xOshKgqEnjk5I1/zfh7SgAAAMA0cdIGVR7UID508GwFG8HL/QXFdYuPXDk4JUc0eVAisZFDl/ZvbXiCfpHNX7Dz6NM133+oqwhSEpHYyF+/210sqb8hyuZ84Gx5aOKWgv36G2gDAABANnHRBk0elAsDjVXaZ1ZpefDlV9WvrO/+IhIb0T6tiuKJaM/dS8Huzz9v2/PnlsqPzlUduri/qed/+sM/yCiufrJVSYxMhb7qfG+Dfxlzm0GdYVQGV5wfaMjA7zcAAAAA0yUFbUgqE/Gx//5uF/VbC+aWt6V+1ZErB0MTt6xpAVISU/LEaPTuaHRYu+2cQNo6kqKggZFrf7u4b2NA/aUHVmler/vNpxd2qutOoA0AAACzR0rakEwq/eGrPGGwrveXeU8Xne33TcRHFUVNT+Wg/UbQnaaef+w7XuiQT5lv6c1wlzpXAW0AAACYPdy1QX9QFSlIuvqJfquZDehquJeWFkuL9ja/UPP9h9//3BKaGIzERsZj4dvj/ZeHTvxvu3dX07Pr6x7WhIGjDRX+grU1D9V2/UUvizIAtAEAACCbpKQN+jwggWT1dQTmm6nmll/hX1YiLVlb8+/qk6n+gqrgyqrgijLf0nU1D62teahUWiJ+wjW/RFr85rHf6y80UJMG0AYAAIAsk6I2qA8sJZPJlh8D3HkDHuWN16El9YNI+gcz1D0uZ6nzhrP9fqsgCtAGAACAbJKqNugPLI1Ghz8+v433Khx3404vOFuJlPvx+a3qLzqo9yo4gDYAAABkk3S0IakkkHxp6MT2xtXshzSmvZX68rY3PnVx6Lj+ew90qRqgDQAAANkkDW3Qpw6R2OiXl94p1+8/M4E+3U3P5O+X9quf7BZMGkAbAAAAskya2qB+PQl1h9q2H12tfzgv3W1n8BntjkX+juCaCl/BBv+y7Y1P/RBqVd9+EEwaQBsAAACyjJM2DA8Ph8PhSCQyPj4+NTV17969eDw2Pj42MjpS9/2nmwNPvNu4fkdwzdbAU3vqC99ufG2D75F9Da/saXhxR3DNjuCaP9Y/v7fhxarAY7uDv3+78bVN/hUV/mX7Gl6p8C+r9K/c3/DqruBz5b6C4JVD4+Nj0ehUPB4fHh6enJyMRqORSGR0dNSyZCbaECjEfqq5MEAfflBQ3UzfO/W3rNM5y07f4835tf3wteTR+pAnkFXfA577/5Pmc4R0e2MqqHnO9/bRu7OI2ls8lFfsaA0UzsupNsxUj1I2q5nYCTD6vPOxxJKHPnEGOGnD6OjoxMTE1JQatSORyMTEBEJoamoqEolEpsYau/9+4HhlZWDl1sDqvQ0vvtXwcmVg5Rv1z+8IPrMjuOaNes+WwJO7gs9tC6x+o96zv/GVTf7lG/yP7mkorAqsKvcVvNnwwv5jLzVe+3Jk7F40OhWNTiUSiZGREYTU55T0UqxVpulqgzqu8DYIFNKNlHHwNk6NgCd7gYYm3dGYbvoMwxtm2SKLzTSbbt5HXIfGLPeu+wS/Ncnu1OPNsWK6+rfHM5/sbOrOHE4++vVK9rVBV4V4PI4QisViCKkf1IvH47FYTJblRCJxM9Td0l9/4vrXZ/sCLTfqj18/3Hz16zM9/jN90qm+2rM3gi03Gk70fa3/cfz64ZPX/3XhRtOZPl/z9X9e6P/m5t1uhFA8Ho9GowmNycnJRCKBEIpEIrFYzDJpWtqgKqpzX7wfuA4AhiwGHYZ0R2O66TMMf5hlhWwWnc2ysojr0Jjl3nWfELQm5qwaqaypYV91Tk51H10V2lQ1B0ump1VPLMT0IAvaoF+8TwNZlqd9roWiKLIsW5MGhFBra2tHR0d62iBoEhNtSmFgJdPCdLV2xGgYOxm3W6tNaGeize/M5Fq4x/fwSvndq9b5VqOSeTKnCAYP1pm0xJI6CSUzIe3RirPOIvsi0VnNtRQ1Ky9ViumjR7IqCtc5uzgtAU8C7cyJOTVW2+aJWEp8UFlnczK3oR0n69kuTq8Hax3S2E8XjfvC95HvgpG/VzuFdkpQFh046PRmRAhYh7g9RFuU0NFzc7QwYBdk5abHHcs8Iga5jqbPUmkpshNy8xRWOFE5Wgva9WmY6jAusN6rJuDEDbzmzeZw6Pm28Z5qfoZEx7Yrs8+rzxio8KX/S4V+fbaB78yCNoyNjdF7Z49wONza2trZ2ZmeNjhVk9pyRDiwew8+tPClXl5ow9tPChghEx9yPV6P8Tc+iWFLIfs3HrxwieKOeRM6sZGJNpCwSGrH3+rUtEGNBaaPenzhaYOVBlsqJYtToy1TgfgqH1aQKGyRAwZ3jbSTRuA4EcUMf/UQgPnOLZrwneujyAUtf7seuO6zbmK2cWzW5cQoTmsj5v4ELjCBgKs22KMDc1BXBbPCsRXzFEdTWvMGUZ7CCscHDlEhhDZwxwU+zInOjNHnLcRGJZ4Jp+enkqGK5q96oWC3l724hDeZ1SWInUZ9ZlMbZFkeGBiY+eV/RkAIdXV1tbW19fb2yrL6E9Op4lBN9CFrYJACQCbT53rWOSraRI+Kd6IBQPZ7/Cz8X7JDqIf0XsVTJhJh/pYXtNcqrtpAucMrhduJmQsfdxfsBKKwReRJ509VHQbHcTqxaz3wtYG2wd0FMn8cgZu2DUKbKQd5PZAIqTqpWijqP5aRdPUKRhNdIgeRRylUOF05wnmD67igi2CwEwh6fhoZasohaDuiIcxM7J3c4uh6mxEcbUAIhUKha9euhcPhWVQIhFA4HO7q6tJvNoRCofSMETcJ3fvtNiZ6j5qMgh3VainazJEScxPeU1LUmMH/taeiJvxhxsKL2hpmd2G8VnGLifSQ45WS2ggRuWBWIOasMGwRbUrnb52F1aHQccYYfi25aQNtg52tyAXaGJ77Am0Q2kyZIQjBWhgiL/xTtZBXinYKGa0MhAYLDLMR9EYsT44N/AGSujbQZYniBr7W56gNqWaowbQCBdslDC/sUrKpDfrUYXBwsL29va2trXVWaWtra29vHxwcTG/SoELHNRu6Bs01Prb30DFFhD2LxBtbcBVA9WP8X8sSCrrrswjzF0QQHcFotKuOI3V0KfwRoo0lbEio+xkXuAGXLhRzB0/PDLlAYYrNzdiMtbWoHvimin0UuUDkz82T3i/Uabt/pqQNBlYLpmShQ//BGzqV0USXyIEf77QjRp7CCseXcYy6SkMb8LK4i5O4PXbriHu+a4YmRJ3QXmNHsS6hLWB4bV+yrA26PIRCod7e3s7Ozo6Ojvas09HR0dnZ2dvbGwqF0hcGDXzZUcNc3hWtZrJRWxBudCSPeZQbTPGuo1210VFVh/iX7qkGRBruGHPXBtJr6n4D3oPVncT6Ox6OWS8EI4Qqjnu/gerWeHgy9xMnMkHTjmJOI1DgOBGXMX9T1waxjyIXiPwF7rNuctoC75zu2hDwmIVaBjhZaLcUWQq5jG6WkuJoIgzjGUn1YVGe/ArHlvvJge+mDXqvJsYp05HwVsNaQdDzU8jQwqVOCCO5w5DpRZzoMU2E2qCv6siyrD/GOlvM+MEnYpqGVT22365NujcbzWCeTYc27Kids7FTS2zPQ3M8hYLYbcZicqCacE7hzy3IccUbA8YhIme801vl5lQH8E5vmKdZqD4MQ5ciGCFk/QieU9JHjkahh/SRf6JhpGEDdrp4+GnQjhN+YVcAROx21wYHH/kusPkbEO7jbhLVy7U5BW3ACrJTOlioP0mlYmelleK1OqftRbqjKcfb49qHRXmmVOFOzylxxwU2TgXPKdnG5BR6XOYNhJGiDA3ImQFbJ6Y2E91PPYvf+sTCF/UsWdo4aQMwF+nx5hDD8hcC2bkfTB4IH8kAjZHBa9JM9WFhhZNROy0y6OYvHNAGIAto13QZCQdzlwfEx2xoQ2YQVji27JMuxJrVrxzQBuA+gS/48MfwL58H0Me5rQ3CCsdX29IUBtGy868d0AYAAACABrQBAAAAoAFtAAAAAGhAGwAAAAAa0AYAAACABrQBAAAAoAFtAAAAAGhAGwAAAACa/wdpjwL0jknvtwAAAABJRU5ErkJggg==;" parent="1" vertex="1">
          <mxGeometry x="-1170" y="-207" width="528" height="72.97" as="geometry" />
        </mxCell>
        <mxCell id="fmwAh8O4zftSxRUUJ0St-25" value="" style="shape=image;verticalLabelPosition=bottom;labelBackgroundColor=default;verticalAlign=top;aspect=fixed;imageAspect=0;image=data:image/png,iVBORw0KGgoAAAANSUhEUgAAAboAAAFDCAIAAADDCFwDAAAAAXNSR0IArs4c6QAAAARnQU1BAACxjwv8YQUAAAAJcEhZcwAADsMAAA7DAcdvqGQAAAASdEVYdFNvZnR3YXJlAEdyZWVuc2hvdF5VCAUAAEigSURBVHhe7b1rcNtWvuB5d2vmw+6nnZqqddXuly1NTdVuTdXMh6mamrqjduykE9+kY8fprs7tbe+d7pvqXLc6iq3EjmQnfZ1O3Ol0Euems5YVt3VjO+m9ebrbiilKsiNbNp2HbJGyKdpUqIi0ntSDNilKpEAABLgFHDwODg5AkBRJwf7/CmVT4MHBwXn88D8ACf7VJAAAAOCAvyJXAAAAADRAlwAAAI4AXQIAADgCdAkAAOAI0CUAAIAjQJcAAACOAF0CAAA4AnQJAADgCNAlUBsG33yooaHhqU/J9RXy6VMNEk99pP79S/nvhoaGX671rgB3Mvj6Fqk/PPTmIPlOyYAu72IUlejU0SBfvyn1WesCKH26oWHL67a9+iP5mPSub9Ql+W4JKAWwLiFQRVDDGc6mqGW3vPk1nq4cQJdAMZT+h/W2j55akx5THnLQZ9P1UewpY19IWyFWorxKtgUqhpwl2Dd0vQBd3pWYOh8OCvQatrz5upwKCUJZidBO8oZ8lHmunF49Y2/RtqLvS0HOx6brG/aOWZUo6o9+qKdSMsRKqJwhEFIm+sQcrcLiVi2YlXnqqOFPkGYdQI2ltRHxp6Fx1Y6khY1vyonlHoidd+V1n5qiS0PTaw1N9DSLPgC6vBuhTG0wDG6Su4WyRk6v9RvJWcV0adjEYndqeWxm2VpkRw4Sc1HJoMNQQutplzKKzAciv4UNKtogAWqBoWUNM3G8aSivVZ76yCRZGbxXUDZHe9R6mvSWZbQBurwbIZ1ixCBECcIUWJ8rpktD56Z0L4S8obVMzRGiVnJTUckExXRJBJhyMvpFMdBlvcHaBbW70o6GUx0eCpiaWwstDZ0NS2bMyrxHpVcoycwneNDl3QgeXeIBmuFEqvvCGG3hfzrUJdELjaDd2WjIEAsbzWsqaim6NHR6VHgpmTlPGdBl3dHO06gtVFspTWyEqkvTdASPKKXXxHkd+xN0eQ9jCvdwy5h8UdXoEqWkvoUgAkAFVBhTUUvQpXFbXZcQXa5blDPrm8bPnFmejCm61NFbGaJLoBhKyKZKwVaX6ho8vkOvLS/5GXoqqTAcOQf6WwiTaimhsUmXFjejaBJH21p6n7x2aVdUoNpgN2qw85apaT59igwbTWA9B09mOCmivkQ5MYMu70GIiQm9Z1ATY5d+FD1h4LrUsbg0KW9u7nY6pP6MaqMVVY9GpQFgo0u88E89pUeXWEr1XfzcIAExZp3Q2oWMJYl+SNel0hlUlG5DJDM0vdbQoEugeph6Kh1ZbeS0FwBcCugSKAdHulQuRUGkBtwlgC4BAAAcAboEAABwBOgSAADAEaBLAAAAR4AuAQAAHAG6BAAAcAToEgAAwBGgSwAAAEf8VRQAAABwgKTLQg2p8e4AAFifuE4FoEsAAOqD61QAugQAoD64TgWgSwAA6oPrVAC6BACgPrhOBaBLAADqg+tUALoEAKA+uE4FoEsAAOqD61QAugQAoD64TgWgSwAA6oPrVGCpS0EQeJ7nKobneUEQ8JypuwMA4F7DdSqg65LneZZlRVEk1peEIAjLy8vT09OJRILneW29eXcAANyDuE4FFF3yPF+hKHEEQRgbG5uZmdGM6bo6AgCgGrhOBaQuBUFgWdaQpGJSqVQwGEwkEmhW7ro6AgCgGrhOBaQu1za0RAiCEAgExsfHUYDpujoCAKAauE4FpC45jjO8XxKiUCgY7upo+P3+UCiEMnddHQEAUA3sVcAwubm5uVgsRj5ysjrEYrF4fI5hGLIcGGunS4ErZCYLq3Pkehm/3z8yMgK6BABAw0YFDJOLxWLJZJplBY4r1GBhWSGZTMdisWx21WqGXbEuxXyBTRXyOTF1Uwi9Js72FQqUPfn9/mAwCLoEAEDDRgVzc3PJZNostWovyWQ6Hp+z0mBluhRFMXNL/O6ImLwuXPtHof8RcfIvZBoZ0CUAAAQ2KojFYjWLK/GFZYVYLJbJZKgBZgW6FEWRWRSHnxPO/lfB3yqc+75w7kFx4rNyossh34YdvR2z5GqN/vauDe0Rcu3dTs2OevJ074Ydvn5ytUakaUdX0xC59m5nvqOtq/H0PLm6itR+j3WGogKVaDRqdlltlmg0mk6niS/XaKUqS5eiWOBWxGutwuf/nj/5vwu9m4W+TcIXD4mTf15fupz1N9rmXDuclMSYpvyjLpHq6VLKuc0/Sa6uA05KYkxTe3nVfo91hqICFbMu+w53bdihLI2n5s2a0313qnfD4Yh5vcM00Wh0aWlp7XQpitLFytBLYvf/yR/9X7h3/o3Qd59wdpNw4TFx2luOLotRvjicSKo2OCmJkzR14N7UJVB1bFRg0uV8e6uvD72e9Dfu6No5SGpOWgZ9ilItVOgkzZrqUhQLQl4Mvyn2/sf8H/8N+7t/xXX8b8K5zZIuv/p7cXGQTC9jp0sptOzSoxtJGeppRFUkrkvptZJYGsZKSq2XI+OcRnmef65NPyPJA562iRE51MI3kZAL4O9QclONZtiXQeh6JspepMChWEnINIaThF4tmk9li51W11MPZ6KzU66pgT0tA+R7CkpR1c1ph4/rUi42KhWtpZBxOqQ26trw5gU9AWoy2iYEcvs6O1Lr+tczMRfVqiRkGkOsZ2pQu70TOD4iiC51TLrEl/n2VrsA0yZydJJm7XQpitIly/Fj4tn/zL/3b9mD/yP76r/m/+X/klzZt1EYflHMzJQTXUo9T9Hl5GkfJiNllGriMJz/h3z4GFb6Ger0Bstg8Rp1EwPzHe24OJRSyT1eyUcvg2FfmFOkEwC2oZ64WEmMaTBdEpmjNLK5ioy0qc5HG7YemypMdG5t2No5Qb6tMOTT86EcvrZ3wiCUlkJa0U4zRLxG3cRIpAk/LyrbWhypRf1jO5XPQOaeY1ESYxpsR5YNStm7CedHZNWIdy0UFajY6jKy0yq6RL6zVqGTNGujSxEx+Yn4xX/l3/9f2YP/A/vKX7Gv/895b6N04bL/YTH6vvS5IhrOdYmh9x4kDpu5km4WwkrEnxiG2I0Ktq0hsSYXQ+ZSaQm5GzJxUhIrXWLDFasWwxDtb7ccaQN7Ghoe7ZwqDLQ0yOo0o+sSQy8M2pHNYNbfMlnJqslsclPRj9riSOn1b8xZzcRJSax06aBB9da3w+KI1P06qJO7C4oKVGx0KV3EtDCd4jtrFTpJswa6XF7OjYzMx0KBlct/z/zLv8u+8j/lDv5r9rf/ij/576TQ8uwm4WqLuBIjN1MpRZdyRKBOi/T+Kv9J9EhtvXFKZadLyiYEKGowzp5K1SXW6SNNlNGlJCNLYqNLbKir+VtIxISkyz0DBVmXLaaTkgSeP+Xw5VBIWohTGqWliumSsgmJcnEG36PFkdLr32gutWs5KYmNLos1qGHvSrZaVsWOSK1/0KWOlS4lV7b6o6b1Bt9Zq9BJmjXQpSgWwuGFp5rO3L/l5J6nT3765qvfHt4xd/i/ZHq35r94RLj838XZs1IiCxzrUu5tipiMp3epP6k9VQab2mBmsdUlfRMcWRZKP8a2LVWXxYIRi5KY01QaXZY4GacfvrQjKXODtektZatL+iYG8M9IWMRiTnSp50yPLuklMafRu1+RBtVbn8TBEUF0aYaqSyeutFehkzRroEs0GY+MJf7u56f+j3//1n/4T//vQ4/+f6+8evGbgauZ2DlxbqAg0KfhiJJ0qfYYdZRaCAXrxFjvJ3RpGmmUTXB54ZtjHb0kXZIbKiPQSUms0uhVgWVOJqaMNAe3eiSoR0TbESYUekuRQRxd9MYjIo9OSS9lRZNLMV3iG2J166QkVmmoDWqxd5LiR6S9Bl3qmHVpNQc3O9SsQidp9LfWRJfys4VE3+WJZ1q8//JRMD63rFzNlO//kEmNONYl6l5o2tLbSD29a31XDoW0lBa6RH1USib1SOomBqnJr5XJVC9NzRZyMQ4YbadkqFWsJHgaU1CjpFf3aCGRMsDCRtrhkztSEtNaitQlEpaURm5f2iZGdWrpuxrbqHIprkvDUWgV6KgkeBqDvCgNar13I5ZHpBbAsPfyG9GFUFSgYtKldHtHqzFpUfVnUKH2ISF50W4HOUmz9rosFAr5vLCSYfN5xZMOKaJLw1kdqDUmxwHVxnACuGehqEDFpMvaLWupy4L8USJyZTEsdame5KHr1AU1aDLE40D1AV1K2Oiyvt8Zr0CXXFpcGhVXYmL6WzEdkb4nftsvfQNy8Rvxtl+8c028MywujRb41UJ2WkyFpDVLNwp5w2PjLHUJAMC9io0K4vF6PpGo7O+Mi4XsrDj5F3GqS5z4TIx+IC6FxdiHYuKqEH5bHOsU5y6Ks+fE2EdieqyQuCpOfS7e+lic6Slwy3guoEsAAAhsVMAwTL2ed5lKLZX7RCJuWRLitEec/LM4eUqM94vxL6R/p7ullROfickRcd4nTJ0RE0PCbb8k1lsfi1OfF7glPBvQJQAABPYqyGZX4/FaP009lVpKp9OkBlUsdZnL5Xjph8ZX+cwin03I/y5yzBKfXWSzt6U1TCq/muBzyzyTzDN3BHY5n0vnVxf5zAKXWcjzLM/z+bzy6SLQJQAABPYqEEWR47hMJpNOp5dqQjqdzmQyHMdRQ0u6LtGkneO4vIwgCPl8HrkPwTAM/pYMj72WEqNflER7FQQBfnwCAAACJyoQRVGoIVaiRFB0ubxsuOxYOalUCn7aDAAAAtepgNQlz/PT09PUu0LlIQhCOByGH84FAIDAdSogdSkIQiKRGBsbS6VSFUpTEIRUKhUOh9GFy0QigTJ0XR0BAFANXKcCUpcowJyZmQkGg4FAwF8xgUAgGAzOzMyg0NKNdQQAQDVwnQooukTGTCQS4+PjoVBoZGQkWBYjIyOhUGh8fDyRSGiudGMdAQBQDVynArou0VRa+hxRxaC75HjO1N0BAHCv4ToVWOqyetR4dwAArE9cpwLQJQAA9cF1KgBdAgBQH1ynAtAlAAD1wXUqAF0CAFAfXKcC0CUAAPXBdSoAXQIAUB9cpwJFlwAAAEBRILoEAKAOuE4FoEsAAOqD61QAugQAoD64TgWgSwAA6oPrVAC6BACgPrhOBaBLAADqg+tUALoEAKA+uE4FoEsAAOqD61QAugQAoD64TgWgSwAA6oPrVGCpS/jxCQAAqorrVEDXJc/zLMuKokisLwlBEJaXl6enp+GnzQAAMOM6FVB0yfN8haLEEQRhbGwMfjgXAAAC16mA1KUgCCzLGpJUTCqVCgaDiUQCzcpdV0cAAFQD16mA1KWT0FIsiHmB4/I5Lp/LC7xYKJJeEIRAIDA+Po4CTNfVEQAA1cBeBQyTm5ubi8Vi5DPUqkMsFovH5xiGIcuBQeqS4zjD+0a4PJtcXZhaiozMXR6c6h2c6g3NfzW9FEmtLvJ5u5jU7/eHQiGUuX0dAQBwj2CjAobJxWKxZDLNsgLHFWqwsKyQTKZjsVg2u2oVMjrVpSAKd7LzV6fPvef/x33ntjafaWw689dNZ/662dP4wrnHTgReDsyeT60uCGJ+OXeHzZOG9vv9IyMjoEsAADRsVDA3N5dMps1Sq/aSTKbj8TkrDTrSZV7gJ1Pffhh8o7XvB097Gps93zMtjfvObv009Pa3Cf83U975lUlihu73+4PBIOgSAAANGxXEYrGaxZX4wrJCLBbLZDLUALO4LgVRmEx9e+zqCy3eB0yWNCzP9nz/5PArl279ZTI1yguGufm61uWsv3FHb8csudoJ/e1dG3Z0bdjh6yffWWdUcIxrQH33DqxXbFQQjUbNLqvNEo1G0+k08WlxrVRFdHknO/9h8I2irnzGs/F3F38+ONW7sDI1ung1w6bxTO5OXQ75XCBKRNnHuCbUd+/AesVGBXRdTvobpeika8OO3vZJ07tcoe8weldaGk/NmxPIS2SnmmbD4YjpXWnXS0tL5eiSy7NXp8+19f3ALEe0NHu+96sz/+35voePB166Mf/1KpcRxPzw7IUlJoHns651WS6Tp3s3tPknydXrEhAWsP6wUQFFl5Ir6ZZUl/n2Vl+fnrhr5yA1jWZS/LW+lK/L5OrCe/4Dzdj1yl+d+etd3Zv2nd32m/M/+f2lvz8yuPd0uONa/OJiZiYvSJ8TEkXxWnwgxSxKnzhSKabLSJPq+6YhZZU0z233d7TJJ4rT84qetNMCNayTpKAmaI9oRutQpsxa5tLumk6jxL0d13SVWKQ3lBCVx1CY9ojio9M+tWxYek2pcpqmdnXD9ogcn+qlVdBWKsc439GmlkTKQTlwqQDqVnphjPvSy4PrUq4lVKU4A8c6pwqFwkRnyzHpfzoOa9h673izSpWvGRzP2VDzBHrFqofgqPOYahWoPzQVKJh0KamNpj+rha5CFFpq+UjRqCnALFOXYkGcWorsO7cNifJpT+Ovv/jhX24eGV28Or00Fk9H55cnbmfjGXYJiVK+KcTlBX508erc8kReyGtZ2epS0oHSp+Uxgzq9fFkQG05Sd1f/pM+CMa0U5jvaJXEgjygr9a3kAUaYRdMlJb2Us+omvbSG6BKNds16Qz5czfjR4a+V9LjLsMPUhNjfbjhhaPWDiUCpDanSUJGI8ui7kE8VVBn1tzQ0tAwUCgN7Ghr2DJDvSjiuYcu9G5oVq0CslmxKaEg233E6UkbnwU8zQH0xqUDHpEtsBr2ja0OrP0p6kFgMWsSX6Cmpx8pvRXbSwtUydZkXuJG5y81npNDyaU/joS9/eXNhcJVbETAP4qxymTur8zk+G0veiN0Jcfmc9padLnFZKHGB4gi8Wxv+pOsSH0sKxvmyNg6NA5LQpcGA2uDXSmijS2x8YuglN6TBy6C/NhymVoAhn7yj+Y42OWSTEsivNQGZxUSUR/nTxkQyE51bGxpa+gtTx6T/Tcp0XMP0vUsvyXZE2xoa1LqQ5nYvo/NotQrUG1IFGKQupcm1OtGWI0dzVIgv1LARy6q3sVXWLi1Nmbrk8rnBqV75w5Xf+835nwzPDggiXZQoFL2VvHkreVMUhZml7767fY3DPn1ZTJd698VDKqLH6wPVPGwQcnyBz8uMg1kLjsrQpbY7p7qUAxx1KUmX+FnUUIBIk7S7SBN6jUWUmMIiTZa6lDPUa4OGpMutnROyLh+V5+YEDmuYsvdiujQ7FwX1eLENyWQcdx5KrQL1hlQBhq0uC9ygZAD9T+MiudIy/MQjSrp2K9DltKTLpz2Nf7r+uxU2hV+OxBHEfCwZ+nqyO83cEUXhVvLm+J1gzaNLDDUBPfYpR5daCR3pUiqt+pZecme6JMI3GSWuRG/1t3c1taMYU8IUOlnqsmnIdipafDKOYV/DlL0X06XeoFWJLmm1CtQZUgUYpC6JifOgz0qItq4ktStNzE2Jy9SlNBmf/1L6QKX3+z2R4xauFLk8G7sT8ox2jiWG5Ts9Ymj+y5n0uHZBs4gu8SuD6qg293h8qMjBgvJaGq7K60iTyaf4YMZel6hL0wUyR7pUCkMcXRFdyiXH88EPWV0vpSFibUxGqEgOhYXh4FaP4xp2uHc9WiRqwEKXcjL9EqeUj/POQ6lVoL6YVKBj0iXuQcNtHNyPVnNwLI10TRO/M25OX6Yu0a2eF8499lzPQz2RE6JIbp8X8snVBf9M/wfDvx2evYA+By+I+Uu3/nI7G1+LO+OGUS0rQ07Trk/KMF1iczdcf5QpWKm6VIaiPCv0Nam3O0yJCUEoJWksSZeqL5SFYhaUHtsXfph25dH+xO9clYTjGrbeu4UusaNu9xFHZ0CvWMOtIbTGpvPQaxWoKzQVKJh1qdgNtSDmOEKFWG80alSLIvUPb1JcWb4upWevrS6cCPym2bPxX66/vpJLyUIU8wK/nEvOLI1fi1/6MPhGx5XW4NxlKaqUiS/HfLdOV/Vzl3YzSiPGqeKaQKrqHmftaxg/SwF3NTYqoOmyRkv5uuTzrH+mv+3sD1658H9fuvXn2J3QjfmvL090nbrxztEr+97+qvmz0B9m0t8hUQqisJiZ8X77XnjhCvGAorXQpR5EOB+fazWY8RjKYp54j7JWNaxNHQwfAALuamxUUN/vjJepS/RJ9Y9H3nr14n//4Nqr715p/d3Fn73he+qf/f/Y/e173y4OrXIrDJ9dzt2ZSY/7Z/o/vP5697f/nFxdIDJZC10CAHBXYaOCeLyeTyQq/zvjgihML40FZs9/OXHm4MD/s7f3b35/6e+P+1/6KHjos9Dbn4X+8PHIoZPDrxz+5tmDAzuO+1+aXhoTTFc5QZcAABDYqIBhmHo97zKVWir/iUTols4qtzI41fub8z9plr4n3vi0/Nl17JuR/62175GPRg5NLUXwG+IaoEsAAAjsVZDNrsbjtX6aeiq1lE6nqRp0qksUYyaz8/6ZL44HXtp/btvTHuXxwE97Gvef3fae/8DV6XO3s3PmuBIBugQAgMBeBaIochyXyWTS6fRSTUin05lMhuM4amhpp8uVlRUGI5fLsSy7kk3PpSa/mw8OT138OtbzdawnMHkxuhBaWJ5h2CzLshzH5WS0Fyg30CUAAAROVCDdQ64hVqJEUHSJrnEyDMOyLC/DsiwyIGIls7LKZLNMZjWXXWWyHMdpKdHrXC6Xz+ez2SzKShAE+PEJAAAIXKcCii6Xl5cNSUwU/elHglQqBT9tBgAAgetUQOqS5/np6WnqTfTyEAQhHA7DD+cCAEDgOhWQuhQEIZFIjI2NpVKpCqUpCEIqlQqHw+jCZSKRQBm6ro4AAKgGrlMBqUsUYM7MzASDwUAg4K+YQCAQDAZnZmZQaOnGOgIAoBq4TgUUXSJjJhKJ8fHxUCg0MjISLIuRkZFQKDQ+Pp5IJDRXurGOAACoBq5TAV2XaCqN7nRXCM/zxKSeujsAAO41XKcCS11WjxrvDgCA9YnrVAC6BACgPrhOBaBLAADqg+tUALoEAKA+uE4FoEsAAOqD61QAugQAoD64TgWgSwAA6oPrVKDoEgAAACgKRJcAANQB16kAdAkAQH1wnQpAlwAA1AfXqQB0CQBAfXCdCkCXAADUB9epAHQJAEB9cJ0KQJcAANQH16kAdAkAQH1wnQpAlwAA1AfXqcBSl/A0dQAAqorrVEDXJc/zLMuKYmm/J04gCMLy8vL09DT8Vg8AAGZcpwKKLnmer1CUOIIgjI2NwS9BAgBA4DoVkLoUBIFlWUMStF4UuHyOzTM2C5fPCSLlp8lTqRT8zjgAAASuUwGpS2poyeaZwOz51y49uat78zOe+6jLru7Nr116MjB7ns0zxOaCIAQCgfHxcRRguq6OAACoBq5TAalLjuMM70txZf7mwpVXB37W7NlotiS+NHs2vjrws5sLg4KYJzLx+/2hUAhl7ro6AgCgGtirgGFyc3NzsViMfIZadYjFYvH4HMOQ0R5OcV2mVhc/Ch56xuTKXd2bd3VvMklz40fBQ6nVRSITv98/MjICugQAQMNGBQyTi8ViyWSaZQWOK9RgYVkhmUzHYrFsdtU8w0YU0SUvcIHZCy+c266HkGckb+7ybD4ReLlz6Nf4SrS8cG57YPYCLxjy8fv9wWAQdAkAgIaNCubm5pLJtFlq1V6SyXQ8PmeOGhF2uhRFMZGZPXplH7Jhs2fjC+e2/9OXT7f2PrK39+E0cyeRmdndvXnf2W1vf9W8r28rikCbz2w8emVfIjOLGxp0CQAAgY0KYrFYzeJKfGFZIRaLZTIZaoBpp0uWZ3y3up71PojCxl9/8aOeyInondChy037z23P8UyGTe/p2XJkcO+t5M3Pw0f3n30MpXzW+6Dv1mmW168CrGtdzvobd/R2zJKrndDf3rVhR9eGHb5+8p11hoNjlI6lPUKuXf84ODRnRJp2dDUNkWuB6mGjgmg0anZZbZZoNJpOp4kv12iloutSFMWFlalXL/4c3eF5zvvQn28cTq0uXosPvHLhp/vPPoZ0+Zz3wdcuPnlzYfBOdu7D62/s7r5fu+ezsDKlGfru1OWQzwWiRDg4xsp1WXkO5eDg0JxRuS4rz+HewkYFZl1GT/XKoYm0NJ6aN2uOSCMthyP2aaj5RKPRpaWl0nTJ59mu8NFdHulmTvOZjW9dbvru9vWxxPDbXza3dD+wr29bjl/NsOkW7wMt3Q8c+WbPZGr0xvzXr6l63eXZ1BU+yueVj3Cua12Wy+Tp3g1t/kly9brEgVMql13lOdSVymVXeQ73FjYqMOlyvr3V16e8juzc0bVzkNScosJWf9S0vqR8ytHlzNJ3z/c+ot7A2fTxyFsrudRnoXee8z64y7MJ1+Uznvv29j7sGe1MMYvvDx/UPm/0fO8j00tjKLdiupT6GfK91tvksefvaJNPAqfnFT3ppw5aWCdJQU0gj1tktA5lyqxlLnfr0yhxb8c1XSUW6Q0lROUxFKY9ovjotE8tG5ZeU6qcpqld3bA9IsenemkVtJXKMc53tKklkXJQDlwqgLqVXhjjvvTy4LqUawlVKY5c4T612Jhb9VrFhWtqMr3YWDFUBo51ThUKhYnOlmPS/3Rq2HzaGxhytu3qUWCHQKleWrWoV2ZsdgEYoKlAwaRLQnkWgWFxXeILPZ9ydHn0Spt2s3tvz9/0Rt5fzMwcGdzT7NmI6XIJ6bLZc9+xqy+mc3c+H/1jizwfR8u7V1pRbra6lHSgdC+5C6JeLnc+bHxKo1H9kz4LxrRSmO9ol3o26ujYeEZbyYOHMIs23ijppZxVN+mlNUSXaPBo1hvy4WMbPzr8tZIedxl2mJoQ+9sNJwytfpSssNqQKg0ViSiPvgvLCEiucMzFyqFh6fWyWTeZVXTZ39LQ0DJQKAzsaWjYM0C+K1Hr5jMhZ2tORq1eerVY1i1AxaQCHTtdTkpdzhwVkpNx2kzcST7l6BJ5EC2tvT/oH/9wNh39w1fPoLvke3sfznIrydUFdbb+vSODe+9k57zfHtduDT3juW939wMoNztd4rLAhhwx9gx/0nWJiUnFYDS9Nxu7NTHeDONQ3ouhhDa6xIMvHb3khjR4GfTXhsPUCjDkk3c039EmB4xSAvm1FtSYtUiUR/nTbjzT8zFUtXrszpqMZKJza0NDS39h6pj0v0mZtW4+E4ZstaxKqBbQZYmQKsCw0KU0fba65mhOaZ3MLp9ydKnd5pbv8zzo/fZ4ajUhfahI/bTQ7y7+/OXzP9U+cXnC/3KGTf/l5hH8i5L7zm5DuRXTpe4+PKQidKn3crouUVaGiZhxvGnxSxnjzTw2zIkNupSDNXUpSZfaVtKCFyDSJO0u0oReYyEPNv4jTZa6lDPUa4PEWOFqPoqp9TSqLos3GYmky62dE7IuH5Xn5gS1bT6sqtG7xmzVA6dXL7VaQJclQqoAw0KXaKFPoolFijSLBJj0fMrR5fnoJ82q9Zo9G98fPrjE3O6JnGzre1S14SZ5kV6/eO7xC9FPFzPTx66+0Hzme5ouz49/jHIrpsvioYqD6BJDTVDV8MSU2HgU6lt6yZ3pkhb7KHGlNs6lS2xqbdDDH5oum4Z0tZmh50MNo8wHS2syA8Un4xg1aT4TEF3WGlIFGLa6dKLC8tOUo8tVbuUN31Oa+H478HfX45cWM9Pv+Q881/OQtl6+svnwB8OvJlcXBqd6D/T/WDXsfa9f+kWWW0G52elS7m2YULA4Cx97xCUk9bXUrbXowORTfPxgr0scb/gYk0voSJdKYYijK6JL7EIYygc/ZHW9lIaItZW3dE1TdImlUSsKqz3Deuy1VDZlX/qO6E1mtJsBB7d6at18Joq3CHYWtKwWi8wBCiYV6Jh0Gdmp38MxTLT7Dnept3fm2w8b0mjXJbE0lvlUpEtBzF+f8+3p2aJp8T3/gdn0+Oxy9OORQ69dfPJA/xMv9f/t65d+cerG4URm5lby5rtXWrXb4nt6tlyP+7RnbdjqUul8+CyMoktFGXKadn0qhA14eQwr+WDjh5jYSpQ63pRhJk9mfU3qHQlTYkJPSkkaS9KlakNlwQ1iiLOwfeGHaVce7U9ddqQutf3i1sOOBdsppcn0lRbStKXWzWdCPyLi1jaleq2qRW07kKYTaCpQMOlSVp7WOpjjMBVWlKYiXRYKhQybfn/4oPZwjWe93/9g+Lff3b6WYZdiyRtXpvuuTp+dSI2usKnw4tX3hg6gz6ijyfvJwMEMm9ayKqbL0pC6r9Wkz4hNvFMupKqA6gHNd3djowKzLmu2lKlLQcyPJYZf6n9CCzB3d29+6/KveiInhmcvSJ9av33NP9PvGe2Up+3604kO9P84kggIgv4Yt7XQJXbydzyE1mq84WGORWwCrD3QfHc3Niqo73fGy9ElCjA9o527sZvdzWc2tnQ/8JvzP3nTt/NN3z8c6H9id/f9+KMwd3dvPjN6DA8t10iXAADcVdioIB6v5xOJSv7OOEIUhVvJm4cu/7Los4EVmXo2Hrq881byBvErFKBLAAAIbFTAMEy9nneZSi2V80QiBMNnL0Q/we/5EMsuz6bdnvt3eTbv9ty/p2fL+egnDJ8lMgFdAgBAYK+CbHY1Hq/109RTqaV0Om3WIMJSlysrK4zK9O3xP/l/3+rdus/7+P6eH77Y86N93u37vNvbvNv2ex9v82573vvInu4tbd6tJ4cOziZvMQzDcVxOBuUGugQAgMBeBaIochyXyWTS6fRSTUin05lMhuM4amhJ1yWatDMMw7IsL8PkmEQ6PjjR1zN60hs+4Qke99482RN+3xs+3hv+oDt83Bs+2R0+fmXyXGI5nmOZXC6Xz+ez2SzKShAE+PEJAAAInKhAFEWhhliJEkHR5fLysiGJgiiIQl7gbRb5eiVlZ6lUCn7aDAAAAtepgNQlz/PT09PUu0LlIQhCOByGH84FAIDAdSogdSkIQiKRGBsbS6VSFUpTEIRUKhUOh9GFy0QigTJ0XR0BAFANXKcCUpcowJyZmQkGg4FAwF8xgUAgGAzOzMyg0NKNdQQAQDVwnQooukTGTCQS4+PjoVBoZGQkWBYjIyOhUGh8fDyRSGiudGMdAQBQDVynArou0VSa53muYnieJyb11N0BAHCv4ToVWOqyetR4dwAArE9cpwLQJQAA9cF1KgBdAgBQH1ynAtAlAAD1wXUqAF0CAFAfXKcC0CUAAPXBdSoAXQIAUB9cpwLQJQAA9cF1KlB0CQAAABQFoksAAOqA61QAugQAoD64TgWgSwAA6oPrVAC6BACgPrhOBaBLAADqg+tUALoEAKA+uE4FoEsAAOqD61QAugQAoD64TgWgSwAA6oPrVGCpS/jxCQAAqorrVEDXJc/zLMuKokisLwlBEJaXl6enp+GnzQAAMOM6FVB0yfN8haLEEQRhbGwMfjgXAAAC16mA1KUgCCzLGpKg9aLA5XNsnrFZuHxOEA3zbkQqlQoGg4lEAs3KXVdHAABUA9epgNQlNbRk80xg9vxrl57c1b35Gc991GVX9+bXLj0ZmD3P5hlic0EQAoHA+Pg4CjBdV0cAAFQD16mA1CXHcYb3pbgyf3PhyqsDP2v2bDRbEl+aPRtfHfjZzYVBQcwTmfj9/lAohDJ3XR0BAFAN7FXAMLm5ublYLEY+Q606xGKxeHyOYchoD6e4LlOrix8FDz1jcuWu7s27ujeZpLnxo+Ch1OoikYnf7x8ZGQFdAgCgYaMChsnFYrFkMs2yAscVarCwrJBMpmOxWDa7ap5hI4rokhe4wOyFF85t10PIM5I3d3k2nwi83Dn0a3wlWl44tz0we4EXDPn4/f5gMAi6BABAw0YFc3NzyWTaLLVqL8lkOh6fM0eNCDtdiqKYyMwevbIP2bDZs/GFc9v/6cunW3sf2dv7cJq5k8jM7O7evO/stre/at7XtxVFoM1nNh69si+RmcUNDboEAIDARgWxWKxmcSW+sKwQi8UymQw1wLTTJcszvltdz3ofRGHjr7/4UU/kRPRO6NDlpv3ntud4JsOm9/RsOTK491by5ufho/vPPoZSPut90HfrNMvrVwHWtS5n/Y07ejtmydVO6G/v2rCja8MOXz/5zjrDwTFKx9IeIdeufxwcmjMiTTu6mobItXczQz6593Y1nV2rOiwNGxVEo1Gzy2qzRKPRdDpNfLlGKxVdl6IoLqxMvXrx5+gOz3Peh/5843BqdfFafOCVCz/df/YxpMvnvA++dvHJmwuDd7JzH15/Y3f3/do9n4WVKc3Qd6cupd627kWJcHCMleuy8hzKwcGhOaNyXVaeg8Lk6d4Nbf5JcvXagpV2zeqwNGxUYNZl9FQvkvuGHV2Np+bNmiPSSMvhiH0aaj7RaHRpaak0XfJ5tit8dJdHupnTfGbjW5ebvrt9fSwx/PaXzS3dD+zr25bjVzNsusX7QEv3A0e+2TOZGr0x//Vrql53eTZ1hY/yeeUjnOtal+VSkz69RjgYD5XLrvIc6krlsqs8B4VadC0HXaLa2KjApMv59lZfn/I6snNH185BUnOKClv9UdP6kvIpR5czS9893/uIegNn08cjb63kUp+F3nnO++AuzyZcl8947tvb+7BntDPFLL4/fFD7vNHzvY9ML42h3IrpUupnyrxA7W3y2PN3tMkngdPzSh/STx20sE7qAWoCedyibtehTJm1zOVufRol7u24pvcbi/SGEqLyGArTHlE632k0u/H14+m1fi+naWpXN2yPaLMhg2W0lcoxzne04VGAcuBSAdSt9MIY96WXBx8bci2hKsWRK9ynFhsbSHqt4qPL1GR6sbFiqAwc65wqFAoTnS3HpP/p1LD5tDcw5Gzb1aPADoFSvbRqUa/MWO4CS6DVpMGw/e3yhng9qM2tb0vvKobGNe7CMJSU9cQujOrED0Q5ZEMCvUOaB6mp99pBU4GCSZeE8iwCw+K6xBd6PuXo8uiVNu1m996ev+mNvL+YmTkyuKfZsxHT5RLSZbPnvmNXX0zn7nw++scWeT6OlnevtKLcbHUp1b5S13Ir6i2Bj0+pGdQ/6bNgTCuF+Y52qZlRR8fGM9pKHjyEWbTxRkkv5ax2U720hhAA9T+tKw/58LGNHx3+WkmP90XsMDUhKqPIWDxtJV4bUqXp/Rsrj74LywhIrnDMxcqhYen1slk3mVV02d/S0NAyUCgM7Glo2DNAvitR6+YzIWdrTkatXnq1WNatTKRJrRx6PkRDE75W/sSOBR8Rs/4OKRNqqQxDSc8K73VkHZq6gY0uLQap1nttMKlAx06Xk1KXM0eF5GScNhN3kk85ukQeREtr7w/6xz+cTUf/8NUz6C753t6Hs9xKcnVBna1/78jg3jvZOe+3x7VbQ8947tvd/QDKzU6X5jOb6gi8ug1/0nWJiUnF2O20zmTs1kRfMYxDeS+mvkLp08ajwNFLbkiDl0F/bThMrQBDPnlH8x1tcsAoJZBfa4PBrEWiPMqfduOZno+hqtVjd9ZkJBOdWxsaWvoLU8ek/03KrHXzmTBkq2VVQrUU0SWGUf3FdGkss7otpbbppTKNHbMB9deGfTnSpdUg1erfGlIFGBa6lKbPVtcczSmtk9nlU44utdvc8n2eB73fHk+tJqQPFamfFvrdxZ+/fP6n2icuT/hfzrDpv9w8gn9Rct/ZbSi3YrrUq1U7KZlbwtxjSKSslHMLak5ztyt3vFF6oSmxQZfyiVddStKlPktSwz2lAJEmaXeRJvRaLZKhZqT1VrrE5lY0jBWu5qONLjWNqsviTUYi6XJr54Ssy0fluTlBbZsPq2qKubQDp1cvtVpM7jPmj/qt3U5tdGk8XkWXpPfppTK2iwNdms8Zxu5kq0tz77WGVAGGhS7RQp9EE4sUaRYJMOn5lKPL89FPmlXrNXs2vj98cIm53RM52db3qGrDTfIivX7x3OMXop8uZqaPXX2h+cz3NF2eH/8Y5VZMl/rA1hqA0hJ4k9u3hJqgquGJKbHxKNS39JIb0ljqkhwDEkpcqfV+6RKbWhumU7qlLpuGdLWZoedDDVjMB0trMgPFJ+MYNWk+E1WOLvG5890bXVrULR1SBRi2unSiwvLTlKPLVW7lDd9Tmvh+O/B31+OXFjPT7/kPPNfzkLZevrL58AfDryZXFwaneg/0/1g17H2vX/pFlltBudnpUq59TCj0lsC7gnwSU15LLar1PJNP8W6HvS5xvOF9SC4hpU9bGMR0dEV0aRhUUj74IeODjRg/ylu6po3lwf/EKxarPcN67LVUNmVf+o7oTWYc5AYc3OqpdfOZKN4ievVaV4tF5oYOjFW7RdkM4iPTKzVv9K92IjGVqiRd4nUo78tc53L3sx6klN5rhUkFOiZdRnbq93AME+2+w13q7Z359sOGNNp1SSyNZT4V6VIQ89fnfHt6tmhafM9/YDY9Prsc/Xjk0GsXnzzQ/8RL/X/7+qVfnLpxOJGZuZW8+e6VVu22+J6eLdfjPu1ZG7a6VBoDn4VRWkJRhpymXZ90kD1JyQdre8rUoNTxpnRlKZM2X5N6ajUlJvSklKSxJF2q3VFZzL1cSY/tCz9Mu/Jof+pDjtSltl/cetixYDulNJm+0kKattS6+UzoR0Tc2qZUr1W1qG1Hk6Z+gI1terVjZZPu6asbaolNrYMNCqx+cPGRpSpJl9iu5U9xGM5hqADSrXC6Lq16rwU0FSiYdCkrT80ZdxymworSVKTLQqGQYdPvDx/UHq7xrPf7Hwz/9rvb1zLsUix548p039XpsxOp0RU2FV68+t7QAfQZdTR5Pxk4mGHTWlbFdFkaUi8p1hIIw/hZG0hVAdUDmq++lDq5LhUbFZh1WbOlTF0KYn4sMfxS/xNagLm7e/Nbl3/VEzkxPHtB+tT67Wv+mX7PaKc8bdefTnSg/8eRREAQ9Me4rYUusZO/4yG0VuMND3MsYhNg7YHmqwN6fFo8PKwQGxXU9zvj5egSBZie0c7d2M3u5jMbW7of+M35n7zp2/mm7x8O9D+xu/t+/FGYu7s3nxk9hoeWa6RLAADuKmxUEI/X84lEJX9nHCGKwq3kzUOXf1n02cCKTD0bD13eeSt5g/gVCtAlAAAENipgGKZez7tMpZbKeSIRguGzF6Kf4Pd8iGWXZ9Nuz/27PJt3e+7f07PlfPQThs8SmYAuAQAgsFdBNrsaj9f6aeqp1FI6nTZrEGGpy5WVFUZl+vb4n/y/b/Vu3ed9fH/PD1/s+dE+7/Z93u1t3m37vY+3ebc9731kT/eWNu/Wk0MHZ5O3GIbhOC4ng3IDXQIAQGCvAlEUOY7LZDLpdHqpJqTT6Uwmw3EcNbSk6xJN2hmGYVmWl2FyTCIdH5zo6xk96Q2f8ASPe2+e7Am/7w0f7w1/0B0+7g2f7A4fvzJ5LrEcz7FMLpfL5/PZbBZlJQgC/PgEAAAETlQgiqJQQ6xEiaDocnl52ZBEQRREIS/wNot8vZKys1QqBT9tBgAAgetUQOqS5/np6WnqXaHyEAQhHA7DD+cCAEDgOhWQuhQEIZFIjI2NpVKpCqUpCEIqlQqHw+jCZSKRQBm6ro4AAKgGrlMBqUsUYM7MzASDwUAg4K+YQCAQDAZnZmZQaOnGOgIAoBq4TgUUXSJjJhKJ8fHxUCg0MjISLIuRkZFQKDQ+Pp5IJDRXurGOAACoBq5TAV2XaCrN8zxXMTzPE5N66u4AALjXcJ0KLHVZPWq8OwAA1ieuUwHoEgCA+uA6FYAuAQCoD65TAegSAID64DoVgC4BAKgPrlMB6BIAgPrgOhWALgEAqA+uUwHoEgCA+uA6FSi6BAAAAIoC0SUAAHXAdSoAXQIAUB9cpwLQJQAA9cF1KgBdAgBQH1ynAtAlAAD1wXUqAF0CAFAfXKcCS13C8y4BAKgqrlMBXZc8z7Msa/8bkkURBGF5eXl6ehqepg4AgBnXqYCiS57nKxQljiAIY2Nj6/q3emb9jTt6O2bJ1U7ob+/asKNrww5fP/nOOsPBMUrH0h4h165/HByaMyJNO7qahsi1QPVYdyooBqlLQRBYljUkQetFgcvn2Dxjs3D5nPxT4ySpVGpd/xJk2eNtyOcCUSIcHGPluqw8h3JwcGjOqFyXJedQRo2Vscm6Zd2poBikLqmhJZtnArPnX7v05K7uzc947qMuu7o3v3bpycDseTbPEJsLgnBX/s745OneDW3+SXL1usSBUyofh5XnUFdKlp2JknMoo8bK2GTd4joVkLrkOM7wvhRX5m8uXHl14GfNno1mS+JLs2fjqwM/u7kwKIh5IhO/3x8KhVDmtDqS+pk8q9V7m9wt/B1t0srG0/OKntRk9LBOkoKaQO5SyGgdypRZy1zu1qdR4t6Oa7pKLNIbSojKYyhMe0Tx0WmfWjYsvaZUOU1Tu7phe0SOT/XSKmgrlWOc72hTSyLloBy4VAB1K70wxn3p5cF1KdcSqlIcucJ9arExt+q1igvX1GR6sbFiqAwc65wqFAoTnS3HpP/p1LD5tDcw5Gzb1aPADoFSvbRqUa/MWO4C7zNS2Uw1RiaQMB7sWXIT1D2MOzVuYnuOrC80FegwTG5ubi4Wi5Ff264OsVgsHp9jGDLawymuy9Tq4kfBQ8+YXLmre/Ou7k0maW78KHgotbpIZOL3+0dGRix0KbW30tJyF0QdRe58WGNLfUv9kz4LxrRSmO9o1/sfNp7RVvLgIcyijTdKerlHKm7SS2uILtHg0aw35MO7O350+GslPe4y7DA1Ifa3G04YWv0oWWG1IVUaKhJRHn0XlhGQXOGYi5VDw9LrZbNuMqvAp7+loaFloFAY2NPQsGeAfFei1s1nQs7WnIxavfRqsaxbCamcaqed9TfJmRtrTDlq9UBoB2veRD+0SBNWDPMZax1iUoEOw+RisVgymWZZgeMKNVhYVkgm07FYLJtdNc+wEUV0yQtcYPbCC+e26yHkGcmbuzybTwRe7hz6Nb4SLS+c2x6YvcALhnz8fn8wGKTrEpcF1huIsWf4k65LTEwqBqPpvdnYrYnxZhiH8l4MJbTRJf1MrpfckAYvg/7acJhaAYZ88o7mO9rkgFFKIL+WszJtIq8nyqP8aTee6fkYqlo9dmdNRjLRubWhoaW/MHVM+t+kzFo3nwlDtlpWJVSLvS7x872KZY3pZSbzpJdHfat4MdYTpAow5ubmksm0WWrVXpLJdDw+Z44aEXa6FEUxkZk9emUfsmGzZ+ML57b/05dPt/Y+srf34TRzJ5GZ2d29ed/ZbW9/1byvbyuKQJvPbDx6ZV8iM4sbupgudffhIRWhS72X03WJsjLMZYzjTYtfyhhv5rFhTmwYDFL5tXlTSbrUtpIWvACRJml3kSb0Ggt5sPGvhhhEebSasQ46jBWu5qOYWk+j6rJ4k5FIutzaOSHr8lF5bk5Q2+bDqlqP4/Rs1QOnVy+1Wow5mPJXgl98DVljWA1YRawmXRo6jLkYeBqL80TdIFWAEYvFahZX4gvLCrFYLJPJUANMO12yPOO71fWs90EUNv76ix/1RE5E74QOXW7af257jmcybHpPz5Yjg3tvJW9+Hj66/+xjKOWz3gd9t06zvH4VoJgui4cqhj+tdKmhJqhqeGJKbDwK9S295IY0lrqk9WklrtTGuXSJTa0N0/ix1GXTkK42M/R8qGGU+WBpTWag+GQcoybNZ8KQ7dpHlxj0GlPbSH3tUJfmgUBusm4hVYARjUbNLqvNEo1G0+k08eUarVR0XYqiuLAy9erFn6M7PM95H/rzjcOp1cVr8YFXLvx0/9nHkC6f8z742sUnby4M3snOfXj9jd3d92v3fBZWpjRD2+kSv/6C9Rhy7BGXkAxnbDU6MPkUHz/Y6xLHGz7G5BI60qVSGOLoiuiSmLL1t+OHrK6X0hCxtvKWrmljefA/8YrFas+wHnstlU3Zl74jepMZ7WbAwa2eWjefieItolevdbVYZC4l08qsVa+pwHgT03VprGSsIeQc5Eui5CbrFpMKdMy6jJ7S74M1npo3a45IIy2HI/ZpqPlEo9GlpaXSdMnn2a7w0V0e6WZO85mNb11u+u729bHE8NtfNrd0P7Cvb1uOX82w6RbvAy3dDxz5Zs9kavTG/NevqXrd5dnUFT7K55WPcNrqUukT6ADMXUpDVoacpl2fCmEDXu46Sj7Y+NGrTzsPlzrelGEmZdLma1LvSJgSE3pSStJYki5VGyoLbhB9kGgX9RX0w7Qrj/anPsZIXWr7xa2HHQu2U0qT6SstpGlLrZvPhH5ExLyVUr1W1aK2HUWaeno8H0ON6U3Q1msVXZoq2Vxv5k3WKTQVKJh0Od/e6utTXkd27ujaOUhqTlFhqz9qWl9SPuXocmbpu+d7H1Fv4Gz6eOStlVzqs9A7z3kf3OXZhOvyGc99e3sf9ox2ppjF94cPap83er73kemlMZRbMV2WhtR9jSa1wibeKRdSVUD1gOa7u7FRgUmXhPIsAsPiusQXej7l6PLolTbtZvfenr/pjby/mJk5Mrin2bMR0+US0mWz575jV19M5+58PvrHFnk+jpZ3r7Si3NZCl9jJ3/EQWqvxhoc5rjhv3x1A893d2KjATpeTUpxujgrJyThtJu4kn3J0iTyIltbeH/SPfzibjv7hq2fQXfK9vQ9nuZXk6oI6W//ekcG9d7Jz3m+Pa7eGnvHct7v7AZTbWugSAIC7ChsVWOhSmj5bXXM0p7ROZpdPObrUbnPL93ke9H57PLWakD5UpH5a6HcXf/7y+Z9qn7g84X85w6b/cvMI/kXJfWe3odxAlwAAENiowEKXaKFPoolFijSLBJj0fMrR5fnoJ82q9Zo9G98fPrjE3O6JnGzre1S14SZ5kV6/eO7xC9FPFzPTx66+0Hzme5ouz49/jHKz0yVxU6IyzDeIAABYn5AqwLDVpRMVlp+mHF2ucitv+J7SxPfbgb+7Hr+0mJl+z3/guZ6HtPXylc2HPxh+Nbm6MDjVe6D/x6ph73v90i+y3ArKDXQJAAABqQIMky4jO/V7OIaJdt/hLvX2znz7YUMa7boklsYyn4p0KYj563O+PT1bNC2+5z8wmx6fXY5+PHLotYtPHuh/4qX+v3390i9O3TicyMzcSt5890qrdlt8T8+W63Gf9qyNmukSAAC3QKoAw6RLWXnqbRzccZgKK0pTkS4LhUKGTb8/fFB7uMaz3u9/MPzb725fy7BLseSNK9N9V6fPTqRGV9hUePHqe0MH0GfU0eT9ZOBghk1rWTnXpf7RMyxItPn8nX7k6jdeDB9yVB7J4yQ3AABqCqkCDLMua7aUqUtBzI8lhl/qf0ILMHd3b37r8q96IieGZy9In1q/fc0/0+8Z7ZSn7frTiQ70/ziSCAiC/hg3h7rEPjiCfV0B/6KL/t0e/PsM+rcpjLo0fDXF/CUN/JtCAADUGFIFGPX9zng5ukQBpme0czd2s7v5zMaW7gd+c/4nb/p2vun7hwP9T+zuvh9/FObu7s1nRo/hoaVjXRq/Q6a6zHA5UhOc6WsqNF0aEiBd0nMDAKDmkCrAiMfr+USikr8zjhBF4Vby5qHLvyz6bGBFpp6Nhy7vvJW8QfwKhXNdGr/cpujS7FDDV9xK1CUlNwAAag6pAgyGYer1vMtUaqmcJxIhGD57IfoJfs+HWHZ5Nu323L/Ls3m35/49PVvORz9h+CyRiXNdml1GjwdNNnSuS0puAADUHFIFRrLZ1Xi81k9TT6WW0um0WYMIS12urKwwKtO3x//k/32rd+s+7+P7e374Ys+P9nm37/Nub/Nu2+99vM277XnvI3u6t7R5t54cOjibvMUwDMdxORmUmzNd4k98IK5dKlKTbwTpCcyPmSmqS4vcAACoNaQKjIiiyHFcJpNJp9NLNSGdTmcyGY7jqKElXZdo0s4wDMuyvAyTYxLp+OBEX8/oSW/4hCd43HvzZE/4fW/4eG/4g+7wcW/4ZHf4+JXJc4nleI5lcrlcPp/PZrMoK0EQ7H58wuA1+p1xbSX+LCLlZo7xMTPFdWmVGwAAtYVUAQ1RFIUaYiVKBEWXy8vLhiQKoiAKeYG3WeTrlZSdpVKpYj9t5hSLZxGV+ZgZi9wAAKgFlaigLpC65Hl+enqaeleoPARBCIfDlf1wLv1ZROU+ZoaeGwAANaZ0FdQZUpeCICQSibGxsVQqVaE0BUFIpVLhcBhduEwkEihD19URAADVwHUqIHWJAsyZmZlgMBgIBPwVEwgEgsHgzMwMCi3dWEcAAFQD16mAoktkzEQiMT4+HgqFRkZGgmUxMjISCoXGx8cTiYTmSjfWEQAA1cB1KqDrEk2leZ7nKobneWJST90dAAD3Gq5TgaUuq0eNdwcAwPrEdSoAXQIAUB9cpwLQJQAA9cF1KgBdAgBQH1ynAtAlAAD1wXUqUHQJAAAAFAWiSwAA6oDrVAC6BACgPrhOBaBLAADqg+tUALoEAKA+uE4FoEsAAOqD61QAugQAoD64TgWgSwAA6oPrVAC6BACgPrhOBaBLAADqg+tUYKlLeN4lAABVxXUqoOuS53mWZe1/Q7IogiAsLy9PT0/D09QBADDjOhVQdMnzfIWixBEEYWxsDH6rBwAAAtepgNSlIAgsyxqSVEwqlYJfggQAgMB1KiB1ubahJUIQhMp+ZxwAgLsQ16mA1CXHcYb31wi/3x8KhVDmrqsjAACqQakqYJjc3NxcLBYjn6pWOrFYLB6fYxiG3IcttdPlyMgI6BIAAI2SVMAwuVgslkymWVbguEKFC8sKyWQ6Fotls6vO59O102UwGARdAgCgUZIK5ubmksm0WXyVLMlkOh6fcy490CUAAPWhJBXEYrE1iSvxhWWFWCyWyWQcBpigSwtm/Y07ejtmydU1YPJ074Y2/yS5uur0t3dtaI+QawGgapSkgmg0avZd5Us0Gk2n08RXaawAXVoAugSAKlOSCsy67DvctWGHsjSemjer0JTY12daH41Gl5aWKtXl8vJyNptlGIZlWZ7n8/m8IAiiip6BM0CXzgFdAvcIJanApMv59lZVf5P+xh1dOwdJFRpdWU1d3rlzJ51OZ1ZWmNVVNpfjOE4xpizNAlpw8D9NPi2my0iTepZoGlJWyaPX39EmnzpOzyseUZNt2OHrJ/IgBDfkQ2nwrYyZ+9Sd9nbMzqMdya9pualMHesckP4faNkj/09HPxxFfCi30z5lpWYlab2aUl2J61IuvFoM6YgMx24UnHQIckWZ9q4WoKldrYr2iJ6bmgPoEqgxNBVYYtIlvsy3t1oGmNFTvRsOR7hBSQjV1GUqlZmfZ5JJNpPhstl8NiuwrMiyoiAUVlcLKyuFfF7ZLJst3L6tvOb5wvi4tAbDVpfaOFf0gaQmjV5Sf7g4TLqUN1Hy0fOc72jH1YOJxvBayVlXhoUuCxOdWxu2dk4Upo5tbXi0c4p8WwIrRqG/Xd4L0qIiI0ln6BgnT/swO2srVV3ih4kdvpRALySeQH495FPPCtKO8IrFX5sPE3QJ1BiTCuyw1WVkp0V0Kbmy1R/lCtXX5fx8pr2d+eMf2dOnucOH8//8z8KJE+I774hHjxYOHy7s319gGCXMjEYLfX3SC0EoLC4WPv+8cP68pFQVO10axaQNWmL0Gv600KWuD9wjhncpaiCjOTweNOtSYqCloWHrsalCv/R/5wTxrhyoEt4x5CYl0OJcFf2coZTBeIyGw8eOTlMz7mgNC/vrvsZfgy6BGkOqwBYbXUpz7cMR83pJkciVtdDlwkLmT39iDh1iL1/mPv8839Ul7N0rHjki/vGPhY8/LrzzTuGLL5R59+RkYWBACjBHRwvffVd4913phRZ7Ftel7gUtdDLrUteBlS5VE+nxlxZM6fNuaV3lumzpL8i6bKHNyfXpMBbQUXWpXQTQE2tXD3D9ySEwvmBBpVTgSBNxytFSgi6B9QqpAlusdCm5UnMiocJT+OU7ZeAQxlw7XS4tZRYWmBs32PFxbmgoPzoqXL8uXrokTkwUvvmmcO5c4auvlOhyYaFw5Upherpw61YhFit8+WVhYqIUXa5RdKnoo1fPUHalooY1iS4dTMZ1tEzousTjUGN0KR2dIQilBo8y8oZt+ulBOjT1cCC6BNYzpApsoerSxpXkUvXokrjVw/NCPi/m89KtHkFQFg3t/g/tRpCdLnFrYHYjRy+mSDl6Ul7jVyRl5MjOeItD0QR2+a9sXTq41aNfLXWiS1WC+nVGrDyY1/BLt1L5jfE4eRdLVzDoEli3mFRgh1mXVnNwukOrqsvafpBIn73Shj22BqVpRzNQCZMuySuD+swUizrL1qUT9D3SAltDCfWb3b2NxLVLlBaPjvXEphOJll7dRMsTdAmsW2gqsMSkS+n2jmGirSqyDrpcW4rpsjQMlyYJZv2NuDvuAfrbDacHAHALJanApMu1We5WXeoRqCGYMmJ9je8uRQobLS7jAsD6piQVVO8743elLgEAuKsoSQXxeLWeSATfGQcAYL1TkgoYhqnG8y5TqaVaP5Go6C0g0CUAAASlqiCbXY3H1/Jp6qnUUjqddi49S13mcjn8d8Z5GfQa3StHt8vRv+i+ufYafcEcpUG5gS4BACAoVQWiKHIcl8lk0un0UsVIH5TMZDiOs4nzCCi6RNN4pDyEJkcEwzDan7gutQQoE+2XygVBgB+fAACAoDwViKIorBHORYmg6HJ5edmQpGJSqRT8tBkAAASuUwGpS57np6enHd4ncoIgCOFwGH44FwAAAtepgNSlIAiJRGJsbCyVSlUoTUEQUqlUOBxGFy4TiQTK0HV1BABANXCdCkhdogBzZmYmGAwGAgF/xQQCgWAwODMzo932cV0dAQBQDVynAooukTETicT4+HgoFBoZGQmWxcjISCgUGh8fTyQSmivdWEcAAFQD16mArks0lcY/SFQ2PM8Tk3rq7gAAuNdwnQosdVk9arw7AADWJ65TAegSAID64DoVgC4BAKgPrlMB6BIAgPrgOhWALgEAqA+uUwHoEgCA+uA6FYAuAQCoD65TgaJLAAAAoCj/P60r+dJa/cx5AAAAAElFTkSuQmCC;" parent="1" vertex="1">
          <mxGeometry x="-1170" y="-133.3769259351447" width="528.5321400270358" height="386.23502540437227" as="geometry" />
        </mxCell>
      </root>
    </mxGraphModel>
  </diagram>
</mxfile>
